# Rhino

v 0 -0.5 -0.5
v 0 0.5 -0.5
v 0 0.5 0.5
v 0 0.29999923706054688 -0.30000001192092896
v 0 0.29999923706054688 0.5
v 0 -0.5 -0.30000001192092896
vt 0 0
vt 0 1
vt 1 1
vt 0.20000000298023224 0.80000001192092896
vt 1 0.80000001192092896
vt 0.20000000298023224 0
vn -1 0 0
vn -1 0 0
vn -1 0 0
vn -1 0 0
vn -1 0 0
vn -1 0 0
f 2/2/2 1/1/1 4/4/4
f 4/4/4 5/5/5 3/3/3
f 1/1/1 6/6/6 4/4/4
f 4/4/4 3/3/3 2/2/2
v 0 0 0
p 7
v 0 0.5 -0.50000000000000089
v 0 0.5 -0.30000000000000071
v 0 -0.50000000000000178 -0.29999999999999893
cstype bspline
deg 1
curv 0 1.2000000000000002 8 9 10
parm u 0 0 0.20000000000000018 1.2000000000000002 1.2000000000000002
end
v 0 0.5 0.5
v 0 0.30000000000000426 0.5
v 0 0.29999999999999716 -0.5
cstype bspline
deg 1
curv 0 1.2 11 12 13
parm u 0 0 0.20000000000000001 1.2 1.2
end
