# Rhino

v 0.5 -0.30882358551025391 0.5
v 0.5 -0.30882358551025391 0.0607476606965065
v 0.5 -0.19117641448974609 0.5
v 0.5 -0.19117641448974609 0.0607476606965065
v 0.5 -0.30882358551025391 0.28037384152412415
v 0.5 -0.25 0.5
v 0.5 -0.19117641448974609 0.28037384152412415
v 0.5 -0.25 0.0607476606965065
v 0.38235282897949219 -0.30882358551025391 0.5
v 0.38235282897949219 -0.30882358551025391 0.0607476606965065
v 0.44117641448974609 -0.30882358551025391 0.0607476606965065
v 0.38235282897949219 -0.30882358551025391 0.28037384152412415
v 0.44117641448974609 -0.30882358551025391 0.5
v 0.38235282897949219 -0.19117641448974609 0.5
v 0.38235282897949219 -0.25 0.5
v 0.44117641448974609 -0.19117641448974609 0.5
v 0.38235282897949219 -0.19117641448974609 0.0607476606965065
v 0.44117641448974609 -0.19117641448974609 0.0607476606965065
v 0.38235282897949219 -0.19117641448974609 0.28037384152412415
v 0.38235282897949219 -0.25 0.0607476606965065
vt 0.21125370264053345 0.21125370264053345
vt 0.21125370264053345 0.99853515625
vt 0.42104256153106689 0.21125370264053345
vt 0.42104256153106689 0.99853515625
vt 0.21125370264053345 0.60489439964294434
vt 0.31614813208580017 0.21125370264053345
vt 0.42104256153106689 0.60489439964294434
vt 0.31614813208580017 0.99853515625
vt 0.20978885889053345 0.21125370264053345
vt 0 0.21125370264053345
vt 0.20978885889053345 0.99853515625
vt 0 0.99853515625
vt 0.20978885889053345 0.60489439964294434
vt 0.10489442944526672 0.99853515625
vt 0 0.60489439964294434
vt 0.10489442944526672 0.21125370264053345
vt 0.21125370264053345 0
vt 0.21125370264053345 0.20978885889053345
vt 0.42104256153106689 0
vt 0.42104256153106689 0.20978885889053345
vt 0.31614813208580017 0
vt 0.42104256153106689 0.10489442944526672
vt 0.31614813208580017 0.20978885889053345
vt 0.21125370264053345 0.10489442944526672
vt 0.84354996681213379 0
vt 0.63376110792160034 0
vt 0.84354996681213379 0.78874629735946655
vt 0.63376110792160034 0.78874629735946655
vt 0.84354996681213379 0.39437314867973328
vt 0.73865550756454468 0.78874629735946655
vt 0.73865550756454468 0
vt 0.63376110792160034 0.39437314867973328
vt 0 0
vt 0 0.20978885889053345
vt 0.20978885889053345 0
vt 0.20978885889053345 0.20978885889053345
vt 0.10489442944526672 0
vt 0 0.10489442944526672
vt 0.20978885889053345 0.10489442944526672
vt 0.10489442944526672 0.20978885889053345
vt 0.42250740528106689 0
vt 0.42250740528106689 0.78874629735946655
vt 0.63229626417160034 0
vt 0.63229626417160034 0.78874629735946655
vt 0.42250740528106689 0.39437314867973328
vt 0.52740180492401123 0
vt 0.63229626417160034 0.39437314867973328
vt 0.52740180492401123 0.78874629735946655
vn 1 0 0
vn 1 0 0
vn 1 0 0
vn 1 0 0
vn 1 0 0
vn 1 0 0
vn 1 0 0
vn 1 0 0
vn 0 -1 0
vn 0 -1 0
vn 0 -1 0
vn 0 -1 0
vn 0 -1 0
vn 0 -1 0
vn 0 -1 0
vn 0 -1 0
vn 0 0 1
vn 0 0 1
vn 0 0 1
vn 0 0 1
vn 0 0 1
vn 0 0 1
vn 0 0 1
vn 0 0 1
vn 0 1 0
vn 0 1 0
vn 0 1 0
vn 0 1 0
vn 0 1 0
vn 0 1 0
vn 0 1 0
vn 0 1 0
vn 0 0 -1
vn 0 0 -1
vn 0 0 -1
vn 0 0 -1
vn 0 0 -1
vn 0 0 -1
vn 0 0 -1
vn 0 0 -1
vn -1 0 0
vn -1 0 0
vn -1 0 0
vn -1 0 0
vn -1 0 0
vn -1 0 0
vn -1 0 0
vn -1 0 0
f 5/5/5 6/6/6 1/1/1
f 5/5/5 2/2/2 8/8/8
f 7/7/7 6/6/6 5/5/5
f 5/5/5 8/8/8 7/7/7
f 7/7/7 8/8/8 4/4/4
f 3/3/3 6/6/6 7/7/7
f 13/16/16 5/13/13 1/9/9
f 13/16/16 9/10/10 12/15/15
f 12/15/15 5/13/13 13/16/16
f 12/15/15 11/14/14 5/13/13
f 11/14/14 12/15/15 10/12/12
f 16/24/24 6/21/21 3/17/17
f 16/24/24 14/18/18 15/23/23
f 13/22/22 1/19/19 6/21/21
f 16/24/24 15/23/23 13/22/22
f 13/22/22 15/23/23 9/20/20
f 18/31/31 7/29/29 4/25/25
f 18/31/31 17/26/26 19/32/32
f 16/30/30 3/27/27 7/29/29
f 18/31/31 19/32/32 16/30/30
f 11/38/38 8/37/37 2/33/33
f 11/38/38 10/34/34 20/40/40
f 18/39/39 8/37/37 11/38/38
f 11/38/38 20/40/40 18/39/39
f 18/39/39 20/40/40 17/36/36
f 4/35/35 8/37/37 18/39/39
f 12/45/45 9/41/41 15/46/46
f 12/45/45 20/48/48 10/42/42
f 19/47/47 12/45/45 15/46/46
f 12/45/45 19/47/47 20/48/48
f 19/47/47 17/44/44 20/48/48
f 14/43/43 19/47/47 15/46/46
f 11/14/14 2/11/11 5/13/13
f 13/22/22 6/21/21 16/24/24
f 16/30/30 7/29/29 18/31/31
f 19/32/32 14/28/28 16/30/30
v 0 -0.30882358551025391 0.0607476606965065
v 0.5 -0.30882358551025391 0.0607476606965065
v 0 -0.19117641448974609 0.0607476606965065
v 0.5 -0.19117641448974609 0.0607476606965065
v 0.25 -0.30882358551025391 0.0607476606965065
v 0 -0.25 0.0607476606965065
v 0.25 -0.19117641448974609 0.0607476606965065
v 0.5 -0.25 0.0607476606965065
v 0.25 -0.25 0.0607476606965065
v 0.125 -0.25 0.0607476606965065
v 0.25 -0.27941131591796875 0.0607476606965065
v 0.125 -0.27941131591796875 0.0607476606965065
v 0.25 -0.22058868408203125 0.0607476606965065
v 0.125 -0.22058868408203125 0.0607476606965065
v 0.375 -0.25 0.0607476606965065
v 0.375 -0.22058868408203125 0.0607476606965065
v 0.375 -0.27941131591796875 0.0607476606965065
v 0 -0.30882358551025391 -0.02710280753672123
v 0.5 -0.30882358551025391 -0.02710280753672123
v 0.25 -0.30882358551025391 -0.02710280753672123
v 0 -0.19117641448974609 -0.02710280753672123
v 0 -0.25 -0.02710280753672123
v 0.5 -0.19117641448974609 -0.02710280753672123
v 0.25 -0.19117641448974609 -0.02710280753672123
v 0.5 -0.25 -0.02710280753672123
v 0.25 -0.25 -0.02710280753672123
v 0.125 -0.25 -0.02710280753672123
v 0.25 -0.27941131591796875 -0.02710280753672123
v 0.125 -0.27941131591796875 -0.02710280753672123
v 0.25 -0.22058868408203125 -0.02710280753672123
v 0.125 -0.22058868408203125 -0.02710280753672123
v 0.375 -0.25 -0.02710280753672123
v 0.375 -0.22058868408203125 -0.02710280753672123
v 0.375 -0.27941131591796875 -0.02710280753672123
vt 0.44509151577949524 0
vt 0.44509151577949524 0.9443545937538147
vt 0.66617244482040405 0
vt 0.66617244482040405 0.9443545937538147
vt 0.44509151577949524 0.47217729687690735
vt 0.55563199520111084 0
vt 0.66617244482040405 0.47217729687690735
vt 0.55563199520111084 0.9443545937538147
vt 0.55563199520111084 0.47217729687690735
vt 0.55563199520111084 0.23608864843845367
vt 0.50036174058914185 0.47217729687690735
vt 0.50036174058914185 0.23608864843845367
vt 0.61090219020843506 0.47217729687690735
vt 0.61090219020843506 0.23608864843845367
vt 0.55563199520111084 0.70826596021652222
vt 0.61090219020843506 0.70826596021652222
vt 0.50036174058914185 0.70826596021652222
vt 0.99853515625 0
vt 0.83381861448287964 0
vt 0.99853515625 0.9443545937538147
vt 0.83381861448287964 0.9443545937538147
vt 0.99853515625 0.47217729687690735
vt 0.83381861448287964 0.47217729687690735
vt 0 0
vt 0 0.16618137061595917
vt 0.22108091413974762 0
vt 0.22108091413974762 0.16618137061595917
vt 0.11054045706987381 0
vt 0.11054045706987381 0.16618137061595917
vt 0.83235377073287964 0
vt 0.66763728857040405 0
vt 0.83235377073287964 0.9443545937538147
vt 0.66763728857040405 0.9443545937538147
vt 0.83235377073287964 0.47217729687690735
vt 0.66763728857040405 0.47217729687690735
vt 0 0.47290971875190735
vt 0 0.63909107446670532
vt 0.22108091413974762 0.47290971875190735
vt 0.22108091413974762 0.63909107446670532
vt 0.11054045706987381 0.47290971875190735
vt 0.11054045706987381 0.63909107446670532
vt 0.22254575788974762 0
vt 0.22254575788974762 0.9443545937538147
vt 0.44362667202949524 0
vt 0.44362667202949524 0.9443545937538147
vt 0.22254575788974762 0.47217729687690735
vt 0.33308622241020203 0
vt 0.44362667202949524 0.47217729687690735
vt 0.33308622241020203 0.9443545937538147
vt 0.33308622241020203 0.47217729687690735
vt 0.33308622241020203 0.23608864843845367
vt 0.27781599760055542 0.47217729687690735
vt 0.27781599760055542 0.23608864843845367
vt 0.38835644721984863 0.47217729687690735
vt 0.38835644721984863 0.23608864843845367
vt 0.33308622241020203 0.70826596021652222
vt 0.38835644721984863 0.70826596021652222
vt 0.27781599760055542 0.70826596021652222
vn 0 0 1
vn 0 0 1
vn 0 0 1
vn 0 0 1
vn 0 0 1
vn 0 0 1
vn 0 0 1
vn 0 0 1
vn 0 0 1
vn 0 0 1
vn 0 0 1
vn 0 0 1
vn 0 0 1
vn 0 0 1
vn 0 0 1
vn 0 0 1
vn 0 0 1
vn 0 -1 0
vn 0 -1 0
vn 0 -1 0
vn 0 -1 0
vn 0 -1 0
vn 0 -1 0
vn -1 0 0
vn -1 0 0
vn -1 0 0
vn -1 0 0
vn -1 0 0
vn -1 0 0
vn 0 1 0
vn 0 1 0
vn 0 1 0
vn 0 1 0
vn 0 1 0
vn 0 1 0
vn 1 0 0
vn 1 0 0
vn 1 0 0
vn 1 0 0
vn 1 0 0
vn 1 0 0
vn 0 0 -1
vn 0 0 -1
vn 0 0 -1
vn 0 0 -1
vn 0 0 -1
vn 0 0 -1
vn 0 0 -1
vn 0 0 -1
vn 0 0 -1
vn 0 0 -1
vn 0 0 -1
vn 0 0 -1
vn 0 0 -1
vn 0 0 -1
vn 0 0 -1
vn 0 0 -1
vn 0 0 -1
f 36/64/64 33/61/61 29/57/57
f 35/63/63 29/57/57 31/59/59
f 29/57/57 30/58/58 32/60/60
f 33/61/61 34/62/62 30/58/58
f 25/53/53 31/59/59 32/60/60
f 26/54/54 21/49/49 32/60/60
f 32/60/60 30/58/58 26/54/54
f 34/62/62 26/54/54 30/58/58
f 37/65/65 25/53/53 22/50/50
f 25/53/53 37/65/65 31/59/59
f 28/56/56 37/65/65 22/50/50
f 27/55/55 34/62/62 33/61/61
f 34/62/62 27/55/55 23/51/51
f 23/51/51 26/54/54 34/62/62
f 36/64/64 27/55/55 33/61/61
f 37/65/65 28/56/56 35/63/63
f 36/64/64 35/63/63 28/56/56
f 28/56/56 24/52/52 36/64/64
f 27/55/55 36/64/64 24/52/52
f 38/67/67 40/71/71 25/70/70
f 22/68/68 25/70/70 40/71/71
f 41/73/73 42/77/77 26/76/76
f 21/74/74 26/76/76 42/77/77
f 43/79/79 44/83/83 27/82/82
f 23/80/80 27/82/82 44/83/83
f 39/85/85 45/89/89 28/88/88
f 24/86/86 28/88/88 45/89/89
f 53/105/105 52/104/104 46/98/98
f 52/104/104 54/106/106 48/100/100
f 46/98/98 48/100/100 49/101/101
f 50/102/102 46/98/98 47/99/99
f 40/94/94 38/90/90 49/101/101
f 42/95/95 49/101/101 38/90/90
f 49/101/101 42/95/95 47/99/99
f 51/103/103 47/99/99 42/95/95
f 54/106/106 39/91/91 40/94/94
f 40/94/94 48/100/100 54/106/106
f 45/97/97 39/91/91 54/106/106
f 44/96/96 50/102/102 51/103/103
f 51/103/103 41/92/92 44/96/96
f 41/92/92 51/103/103 42/95/95
f 53/105/105 50/102/102 44/96/96
f 54/106/106 52/104/104 45/97/97
f 53/105/105 45/97/97 52/104/104
f 45/97/97 53/105/105 43/93/93
f 44/96/96 43/93/93 53/105/105
f 36/64/64 29/57/57 35/63/63
f 35/63/63 31/59/59 37/65/65
f 29/57/57 32/60/60 31/59/59
f 33/61/61 30/58/58 29/57/57
f 25/53/53 32/60/60 21/49/49
f 38/67/67 25/70/70 21/66/66
f 22/68/68 40/71/71 39/69/69
f 41/73/73 26/76/76 23/72/72
f 21/74/74 42/77/77 38/75/75
f 43/79/79 27/82/82 24/78/78
f 23/80/80 44/83/83 41/81/81
f 39/85/85 28/88/88 22/84/84
f 24/86/86 45/89/89 43/87/87
f 53/105/105 46/98/98 50/102/102
f 52/104/104 48/100/100 46/98/98
f 46/98/98 49/101/101 47/99/99
f 50/102/102 47/99/99 51/103/103
f 40/94/94 49/101/101 48/100/100
v 0 -0.19117641448974609 0.0607476606965065
v -0.5 -0.19117641448974609 0.0607476606965065
v 0 -0.30882358551025391 0.0607476606965065
v -0.5 -0.30882358551025391 0.0607476606965065
v -0.25 -0.19117641448974609 0.0607476606965065
v 0 -0.25 0.0607476606965065
v -0.25 -0.30882358551025391 0.0607476606965065
v -0.5 -0.25 0.0607476606965065
v -0.25 -0.25 0.0607476606965065
v -0.125 -0.25 0.0607476606965065
v -0.25 -0.22058868408203125 0.0607476606965065
v -0.125 -0.22058868408203125 0.0607476606965065
v -0.25 -0.27941131591796875 0.0607476606965065
v -0.125 -0.27941131591796875 0.0607476606965065
v -0.375 -0.25 0.0607476606965065
v -0.375 -0.27941131591796875 0.0607476606965065
v -0.375 -0.22058868408203125 0.0607476606965065
v 0 -0.19117641448974609 -0.02710280753672123
v -0.5 -0.19117641448974609 -0.02710280753672123
v -0.25 -0.19117641448974609 -0.02710280753672123
v 0 -0.30882358551025391 -0.02710280753672123
v 0 -0.25 -0.02710280753672123
v -0.5 -0.30882358551025391 -0.02710280753672123
v -0.25 -0.30882358551025391 -0.02710280753672123
v -0.5 -0.25 -0.02710280753672123
v -0.25 -0.25 -0.02710280753672123
v -0.125 -0.25 -0.02710280753672123
v -0.25 -0.22058868408203125 -0.02710280753672123
v -0.125 -0.22058868408203125 -0.02710280753672123
v -0.25 -0.27941131591796875 -0.02710280753672123
v -0.125 -0.27941131591796875 -0.02710280753672123
v -0.375 -0.25 -0.02710280753672123
v -0.375 -0.27941131591796875 -0.02710280753672123
v -0.375 -0.22058868408203125 -0.02710280753672123
vt 0.44509151577949524 0
vt 0.44509151577949524 0.9443545937538147
vt 0.66617244482040405 0
vt 0.66617244482040405 0.9443545937538147
vt 0.44509151577949524 0.47217729687690735
vt 0.55563199520111084 0
vt 0.66617244482040405 0.47217729687690735
vt 0.55563199520111084 0.9443545937538147
vt 0.55563199520111084 0.47217729687690735
vt 0.55563199520111084 0.23608864843845367
vt 0.50036174058914185 0.47217729687690735
vt 0.50036174058914185 0.23608864843845367
vt 0.61090219020843506 0.47217729687690735
vt 0.61090219020843506 0.23608864843845367
vt 0.55563199520111084 0.70826596021652222
vt 0.61090219020843506 0.70826596021652222
vt 0.50036174058914185 0.70826596021652222
vt 0.99853515625 0
vt 0.83381861448287964 0
vt 0.99853515625 0.9443545937538147
vt 0.83381861448287964 0.9443545937538147
vt 0.99853515625 0.47217729687690735
vt 0.83381861448287964 0.47217729687690735
vt 0 0
vt 0 0.16618137061595917
vt 0.22108091413974762 0
vt 0.22108091413974762 0.16618137061595917
vt 0.11054045706987381 0
vt 0.11054045706987381 0.16618137061595917
vt 0.83235377073287964 0
vt 0.66763728857040405 0
vt 0.83235377073287964 0.9443545937538147
vt 0.66763728857040405 0.9443545937538147
vt 0.83235377073287964 0.47217729687690735
vt 0.66763728857040405 0.47217729687690735
vt 0 0.47290971875190735
vt 0 0.63909107446670532
vt 0.22108091413974762 0.47290971875190735
vt 0.22108091413974762 0.63909107446670532
vt 0.11054045706987381 0.47290971875190735
vt 0.11054045706987381 0.63909107446670532
vt 0.22254575788974762 0
vt 0.22254575788974762 0.9443545937538147
vt 0.44362667202949524 0
vt 0.44362667202949524 0.9443545937538147
vt 0.22254575788974762 0.47217729687690735
vt 0.33308622241020203 0
vt 0.44362667202949524 0.47217729687690735
vt 0.33308622241020203 0.9443545937538147
vt 0.33308622241020203 0.47217729687690735
vt 0.33308622241020203 0.23608864843845367
vt 0.27781599760055542 0.47217729687690735
vt 0.27781599760055542 0.23608864843845367
vt 0.38835644721984863 0.47217729687690735
vt 0.38835644721984863 0.23608864843845367
vt 0.33308622241020203 0.70826596021652222
vt 0.38835644721984863 0.70826596021652222
vt 0.27781599760055542 0.70826596021652222
vn 0 0 1
vn 0 0 1
vn 0 0 1
vn 0 0 1
vn 0 0 1
vn 0 0 1
vn 0 0 1
vn 0 0 1
vn 0 0 1
vn 0 0 1
vn 0 0 1
vn 0 0 1
vn 0 0 1
vn 0 0 1
vn 0 0 1
vn 0 0 1
vn 0 0 1
vn 0 1 0
vn 0 1 0
vn 0 1 0
vn 0 1 0
vn 0 1 0
vn 0 1 0
vn 1 0 0
vn 1 0 0
vn 1 0 0
vn 1 0 0
vn 1 0 0
vn 1 0 0
vn 0 -1 0
vn 0 -1 0
vn 0 -1 0
vn 0 -1 0
vn 0 -1 0
vn 0 -1 0
vn -1 0 0
vn -1 0 0
vn -1 0 0
vn -1 0 0
vn -1 0 0
vn -1 0 0
vn 0 0 -1
vn 0 0 -1
vn 0 0 -1
vn 0 0 -1
vn 0 0 -1
vn 0 0 -1
vn 0 0 -1
vn 0 0 -1
vn 0 0 -1
vn 0 0 -1
vn 0 0 -1
vn 0 0 -1
vn 0 0 -1
vn 0 0 -1
vn 0 0 -1
vn 0 0 -1
vn 0 0 -1
f 70/122/122 67/119/119 63/115/115
f 69/121/121 63/115/115 65/117/117
f 63/115/115 64/116/116 66/118/118
f 67/119/119 68/120/120 64/116/116
f 59/111/111 65/117/117 66/118/118
f 60/112/112 55/107/107 66/118/118
f 66/118/118 64/116/116 60/112/112
f 68/120/120 60/112/112 64/116/116
f 71/123/123 59/111/111 56/108/108
f 59/111/111 71/123/123 65/117/117
f 62/114/114 71/123/123 56/108/108
f 61/113/113 68/120/120 67/119/119
f 68/120/120 61/113/113 57/109/109
f 57/109/109 60/112/112 68/120/120
f 70/122/122 61/113/113 67/119/119
f 71/123/123 62/114/114 69/121/121
f 70/122/122 69/121/121 62/114/114
f 62/114/114 58/110/110 70/122/122
f 61/113/113 70/122/122 58/110/110
f 72/125/125 74/129/129 59/128/128
f 56/126/126 59/128/128 74/129/129
f 75/131/131 76/135/135 60/134/134
f 55/132/132 60/134/134 76/135/135
f 77/137/137 78/141/141 61/140/140
f 57/138/138 61/140/140 78/141/141
f 73/143/143 79/147/147 62/146/146
f 58/144/144 62/146/146 79/147/147
f 87/163/163 86/162/162 80/156/156
f 86/162/162 88/164/164 82/158/158
f 80/156/156 82/158/158 83/159/159
f 84/160/160 80/156/156 81/157/157
f 74/152/152 72/148/148 83/159/159
f 76/153/153 83/159/159 72/148/148
f 83/159/159 76/153/153 81/157/157
f 85/161/161 81/157/157 76/153/153
f 88/164/164 73/149/149 74/152/152
f 74/152/152 82/158/158 88/164/164
f 79/155/155 73/149/149 88/164/164
f 78/154/154 84/160/160 85/161/161
f 85/161/161 75/150/150 78/154/154
f 75/150/150 85/161/161 76/153/153
f 87/163/163 84/160/160 78/154/154
f 88/164/164 86/162/162 79/155/155
f 87/163/163 79/155/155 86/162/162
f 79/155/155 87/163/163 77/151/151
f 78/154/154 77/151/151 87/163/163
f 70/122/122 63/115/115 69/121/121
f 69/121/121 65/117/117 71/123/123
f 63/115/115 66/118/118 65/117/117
f 67/119/119 64/116/116 63/115/115
f 59/111/111 66/118/118 55/107/107
f 72/125/125 59/128/128 55/124/124
f 56/126/126 74/129/129 73/127/127
f 75/131/131 60/134/134 57/130/130
f 55/132/132 76/135/135 72/133/133
f 77/137/137 61/140/140 58/136/136
f 57/138/138 78/141/141 75/139/139
f 73/143/143 62/146/146 56/142/142
f 58/144/144 79/147/147 77/145/145
f 87/163/163 80/156/156 84/160/160
f 86/162/162 82/158/158 80/156/156
f 80/156/156 83/159/159 81/157/157
f 84/160/160 81/157/157 85/161/161
f 74/152/152 83/159/159 82/158/158
v -0.5 -0.19117641448974609 0.5
v -0.5 -0.19117641448974609 0.0607476606965065
v -0.5 -0.30882358551025391 0.5
v -0.5 -0.30882358551025391 0.0607476606965065
v -0.5 -0.19117641448974609 0.28037384152412415
v -0.5 -0.25 0.5
v -0.5 -0.30882358551025391 0.28037384152412415
v -0.5 -0.25 0.0607476606965065
v -0.38235282897949219 -0.19117641448974609 0.5
v -0.38235282897949219 -0.19117641448974609 0.0607476606965065
v -0.44117641448974609 -0.19117641448974609 0.0607476606965065
v -0.38235282897949219 -0.19117641448974609 0.28037384152412415
v -0.44117641448974609 -0.19117641448974609 0.5
v -0.38235282897949219 -0.30882358551025391 0.5
v -0.38235282897949219 -0.25 0.5
v -0.44117641448974609 -0.30882358551025391 0.5
v -0.38235282897949219 -0.30882358551025391 0.0607476606965065
v -0.44117641448974609 -0.30882358551025391 0.0607476606965065
v -0.38235282897949219 -0.30882358551025391 0.28037384152412415
v -0.38235282897949219 -0.25 0.0607476606965065
vt 0.21125370264053345 0.21125370264053345
vt 0.21125370264053345 0.99853515625
vt 0.42104256153106689 0.21125370264053345
vt 0.42104256153106689 0.99853515625
vt 0.21125370264053345 0.60489439964294434
vt 0.31614813208580017 0.21125370264053345
vt 0.42104256153106689 0.60489439964294434
vt 0.31614813208580017 0.99853515625
vt 0.20978885889053345 0.21125370264053345
vt 0 0.21125370264053345
vt 0.20978885889053345 0.99853515625
vt 0 0.99853515625
vt 0.20978885889053345 0.60489439964294434
vt 0.10489442944526672 0.99853515625
vt 0 0.60489439964294434
vt 0.10489442944526672 0.21125370264053345
vt 0.21125370264053345 0
vt 0.21125370264053345 0.20978885889053345
vt 0.42104256153106689 0
vt 0.42104256153106689 0.20978885889053345
vt 0.31614813208580017 0
vt 0.42104256153106689 0.10489442944526672
vt 0.31614813208580017 0.20978885889053345
vt 0.21125370264053345 0.10489442944526672
vt 0.84354996681213379 0
vt 0.63376110792160034 0
vt 0.84354996681213379 0.78874629735946655
vt 0.63376110792160034 0.78874629735946655
vt 0.84354996681213379 0.39437314867973328
vt 0.73865550756454468 0.78874629735946655
vt 0.73865550756454468 0
vt 0.63376110792160034 0.39437314867973328
vt 0 0
vt 0 0.20978885889053345
vt 0.20978885889053345 0
vt 0.20978885889053345 0.20978885889053345
vt 0.10489442944526672 0
vt 0 0.10489442944526672
vt 0.20978885889053345 0.10489442944526672
vt 0.10489442944526672 0.20978885889053345
vt 0.42250740528106689 0
vt 0.42250740528106689 0.78874629735946655
vt 0.63229626417160034 0
vt 0.63229626417160034 0.78874629735946655
vt 0.42250740528106689 0.39437314867973328
vt 0.52740180492401123 0
vt 0.63229626417160034 0.39437314867973328
vt 0.52740180492401123 0.78874629735946655
vn -1 0 0
vn -1 0 0
vn -1 0 0
vn -1 0 0
vn -1 0 0
vn -1 0 0
vn -1 0 0
vn -1 0 0
vn 0 1 0
vn 0 1 0
vn 0 1 0
vn 0 1 0
vn 0 1 0
vn 0 1 0
vn 0 1 0
vn 0 1 0
vn 0 0 1
vn 0 0 1
vn 0 0 1
vn 0 0 1
vn 0 0 1
vn 0 0 1
vn 0 0 1
vn 0 0 1
vn 0 -1 0
vn 0 -1 0
vn 0 -1 0
vn 0 -1 0
vn 0 -1 0
vn 0 -1 0
vn 0 -1 0
vn 0 -1 0
vn 0 0 -1
vn 0 0 -1
vn 0 0 -1
vn 0 0 -1
vn 0 0 -1
vn 0 0 -1
vn 0 0 -1
vn 0 0 -1
vn 1 0 0
vn 1 0 0
vn 1 0 0
vn 1 0 0
vn 1 0 0
vn 1 0 0
vn 1 0 0
vn 1 0 0
f 93/169/169 94/170/170 89/165/165
f 93/169/169 90/166/166 96/172/172
f 95/171/171 94/170/170 93/169/169
f 93/169/169 96/172/172 95/171/171
f 95/171/171 96/172/172 92/168/168
f 91/167/167 94/170/170 95/171/171
f 101/180/180 93/177/177 89/173/173
f 101/180/180 97/174/174 100/179/179
f 100/179/179 93/177/177 101/180/180
f 100/179/179 99/178/178 93/177/177
f 99/178/178 100/179/179 98/176/176
f 104/188/188 94/185/185 91/181/181
f 104/188/188 102/182/182 103/187/187
f 101/186/186 89/183/183 94/185/185
f 104/188/188 103/187/187 101/186/186
f 101/186/186 103/187/187 97/184/184
f 106/195/195 95/193/193 92/189/189
f 106/195/195 105/190/190 107/196/196
f 104/194/194 91/191/191 95/193/193
f 106/195/195 107/196/196 104/194/194
f 99/202/202 96/201/201 90/197/197
f 99/202/202 98/198/198 108/204/204
f 106/203/203 96/201/201 99/202/202
f 99/202/202 108/204/204 106/203/203
f 106/203/203 108/204/204 105/200/200
f 92/199/199 96/201/201 106/203/203
f 100/209/209 97/205/205 103/210/210
f 100/209/209 108/212/212 98/206/206
f 107/211/211 100/209/209 103/210/210
f 100/209/209 107/211/211 108/212/212
f 107/211/211 105/208/208 108/212/212
f 102/207/207 107/211/211 103/210/210
f 99/178/178 90/175/175 93/177/177
f 101/186/186 94/185/185 104/188/188
f 104/194/194 95/193/193 106/195/195
f 107/196/196 102/192/192 104/194/194
