# Rhino

v -0.5 -0.20588207244873047 0.0607476606965065
v -0.41864013671875 -0.21245384216308594 0.0607476606965065
v -0.34297943115234375 -0.23548698425292969 0.0607476606965065
v -0.2788238525390625 -0.279998779296875 0.0607476606965065
v -0.2341461181640625 -0.34591197967529297 0.0607476606965065
v -0.212646484375 -0.41755390167236328 0.0607476606965065
v -0.20587921142578125 -0.5 0.0607476606965065
v -0.14705657958984375 -0.5 0.0607476606965065
v -0.08823394775390625 -0.5 0.0607476606965065
v -0.0988922119140625 -0.38741397857666016 0.0607476606965065
v -0.1328887939453125 -0.28540802001953125 0.0607476606965065
v -0.19622039794921875 -0.19622230529785156 0.0607476606965065
v -0.2847747802734375 -0.13320541381835938 0.0607476606965065
v -0.39019012451171875 -0.098340034484863281 0.0607476606965065
v -0.5 -0.088234901428222656 0.0607476606965065
v -0.5 -0.14705848693847656 0.0607476606965065
v -0.20587921142578125 -0.5 -0.02710280753672123
v -0.212646484375 -0.41755390167236328 -0.02710280753672123
v -0.2341461181640625 -0.34591197967529297 -0.02710280753672123
v -0.2788238525390625 -0.279998779296875 -0.02710280753672123
v -0.34297943115234375 -0.23548698425292969 -0.02710280753672123
v -0.41864013671875 -0.21245384216308594 -0.02710280753672123
v -0.5 -0.20588207244873047 -0.02710280753672123
v -0.08823394775390625 -0.5 -0.02710280753672123
v -0.14705657958984375 -0.5 -0.02710280753672123
v -0.19622039794921875 -0.19622230529785156 -0.02710280753672123
v -0.1328887939453125 -0.28540802001953125 -0.02710280753672123
v -0.0988922119140625 -0.38741397857666016 -0.02710280753672123
v -0.19622039794921875 -0.19622230529785156 0.01682242751121521
v -0.5 -0.088234901428222656 -0.02710280753672123
v -0.39019012451171875 -0.098340034484863281 -0.02710280753672123
v -0.2847747802734375 -0.13320541381835938 -0.02710280753672123
v -0.5 -0.14705848693847656 -0.02710280753672123
vt 0.35578975081443787 0.5
vt 0.36374646425247192 0.59850186109542847
vt 0.39163342118263245 0.69011032581329346
vt 0.44552496075630188 0.76778066158294678
vt 0.52532732486724854 0.82187569141387939
vt 0.61206603050231934 0.84790611267089844
vt 0.71188628673553467 0.85609656572341919
vt 0.71188628673553467 0.92731583118438721
vt 0.71188628673553467 0.99853515625
vt 0.57557564973831177 0.98563361167907715
vt 0.45207378268241882 0.94446593523025513
vt 0.34409457445144653 0.86779171228408813
vt 0.26779797673225403 0.76057887077331543
vt 0.22558516263961792 0.63295149803161621
vt 0.21335113048553467 0.5
vt 0.28457042574882507 0.5
vt 0.96141898632049561 0
vt 0.85620826482772827 0
vt 0.96141898632049561 0.08790849894285202
vt 0.85620826482772827 0.08790849894285202
vt 0.96141898632049561 0.17968988418579102
vt 0.85620826482772827 0.17968988418579102
vt 0.96141898632049561 0.288667231798172
vt 0.85620826482772827 0.288667231798172
vt 0.96141898632049561 0.39574375748634338
vt 0.85620826482772827 0.39574375748634338
vt 0.96141898632049561 0.49299946427345276
vt 0.85620826482772827 0.49299946427345276
vt 0.96141898632049561 0.57964473962783813
vt 0.85620826482772827 0.57964473962783813
vt 0.71335113048553467 0.5
vt 0.71335113048553467 0.60667556524276733
vt 0.85474342107772827 0.5
vt 0.85474342107772827 0.60667556524276733
vt 0.78404730558395386 0.5
vt 0.78404730558395386 0.60667556524276733
vt 0.10521072149276733 0.5
vt 0 0.5
vt 0.10521072149276733 0.6374017596244812
vt 0 0.6374017596244812
vt 0.10521072149276733 0.76965183019638062
vt 0 0.76965183019638062
vt 0.10521072149276733 0.90190190076828003
vt 0 0.90190190076828003
vt 0.052605360746383667 0.5
vt 0.21188628673553467 0.5
vt 0.10667556524276733 0.5
vt 0.21188628673553467 0.62886267900466919
vt 0.10667556524276733 0.62886267900466919
vt 0.21188628673553467 0.76538342237472534
vt 0.10667556524276733 0.76538342237472534
vt 0.21188628673553467 0.90190416574478149
vt 0.10667556524276733 0.90190416574478149
vt 0.159280925989151 0.90190416574478149
vt 0.71335113048553467 0
vt 0.71335113048553467 0.10667556524276733
vt 0.85474342107772827 0
vt 0.85474342107772827 0.10667556524276733
vt 0.78404730558395386 0
vt 0.78404730558395386 0.10667556524276733
vt 0 0.3560965359210968
vt 0.098791316151618958 0.34813982248306274
vt 0.19066892564296722 0.32025286555290222
vt 0.26856747269630432 0.26636135578155518
vt 0.32282143831253052 0.18655897676944733
vt 0.34892839193344116 0.099820271134376526
vt 0.3571428656578064 0
vt 0.4285714328289032 0
vt 0.5 0
vt 0.48706051707267761 0.1363106369972229
vt 0.44577193260192871 0.25981250405311584
vt 0.36887240409851074 0.36779171228408813
vt 0.26134452223777771 0.44408831000328064
vt 0.13334214687347412 0.48630112409591675
vt 0 0.49853515625
vt 0 0.42731586098670959
vn 0 0 1
vn 0 0 1
vn 0 0 1
vn 0 0 1
vn 0 0 1
vn 0 0 1
vn 0 0 1
vn 0 0 1
vn 0 0 1
vn 0 0 1
vn 0 0 1
vn 0 0 1
vn 0 0 1
vn 0 0 1
vn 0 0 1
vn 0 0 1
vn -1 0 0
vn -1 0 0
vn -0.98439347743988037 -0.17598164081573486 0
vn -0.98439347743988037 -0.17598164081573486 0
vn -0.91216868162155151 -0.40981492400169373 0
vn -0.91216868162155151 -0.40981492400169373 0
vn -0.70991945266723633 -0.70428282022476196 0
vn -0.70991945266723633 -0.70428282022476196 0
vn -0.42141830921173096 -0.90686637163162231 0
vn -0.42141830921173096 -0.90686637163162231 0
vn -0.17309822142124176 -0.98490458726882935 0
vn -0.17309822142124176 -0.98490458726882935 0
vn 0 -1 0
vn 0 -1 0
vn 0 -1 0
vn 0 -1 0
vn 0 -1 0
vn 0 -1 0
vn 0 -1 0
vn 0 -1 0
vn 0.70710676908493042 0.70710676908493042 0
vn 0.70710676908493042 0.70710676908493042 0
vn 0.89742088317871094 0.44117540121078491 0
vn 0.89742088317871094 0.44117540121078491 0
vn 0.9802519679069519 0.19775249063968658 0
vn 0.9802519679069519 0.19775249063968658 0
vn 1 0 0
vn 1 0 0
vn 0.70710676908493042 0.70710676908493042 0
vn 0 1 0
vn 0 1 0
vn 0.192083939909935 0.98137849569320679 0
vn 0.192083939909935 0.98137849569320679 0
vn 0.44290900230407715 0.89656656980514526 0
vn 0.44290900230407715 0.89656656980514526 0
vn 0.70710676908493042 0.70710676908493042 0
vn 0.70710676908493042 0.70710676908493042 0
vn 0.70710676908493042 0.70710676908493042 0
vn -1 0 0
vn -1 0 0
vn -1 0 0
vn -1 0 0
vn -1 0 0
vn -1 0 0
vn 0 0 -1
vn 0 0 -1
vn 0 0 -1
vn 0 0 -1
vn 0 0 -1
vn 0 0 -1
vn 0 0 -1
vn 0 0 -1
vn 0 0 -1
vn 0 0 -1
vn 0 0 -1
vn 0 0 -1
vn 0 0 -1
vn 0 0 -1
vn 0 0 -1
vn 0 0 -1
f 16/16/16 1/1/1 2/2/2
f 13/13/13 3/3/3 4/4/4
f 14/14/14 2/2/2 3/3/3
f 14/14/14 15/15/15 16/16/16
f 2/2/2 14/14/14 16/16/16
f 14/14/14 3/3/3 13/13/13
f 13/13/13 4/4/4 12/12/12
f 8/8/8 6/6/6 7/7/7
f 10/10/10 6/6/6 8/8/8
f 9/9/9 10/10/10 8/8/8
f 5/5/5 11/11/11 4/4/4
f 12/12/12 4/4/4 11/11/11
f 5/5/5 10/10/10 11/11/11
f 10/10/10 5/5/5 6/6/6
f 6/19/19 18/20/20 17/18/18
f 5/21/21 19/22/22 18/20/20
f 4/23/23 20/24/24 19/22/22
f 2/27/27 22/28/28 21/26/26
f 1/29/29 23/30/30 22/28/28
f 3/25/25 21/26/26 20/24/24
f 24/32/32 9/31/31 8/35/35
f 7/33/33 17/34/34 25/36/36
f 29/45/45 12/37/37 11/39/39
f 29/45/45 27/40/40 26/38/38
f 27/40/40 29/45/45 11/39/39
f 9/43/43 24/44/44 28/42/42
f 10/41/41 28/42/42 27/40/40
f 14/48/48 31/49/49 30/47/47
f 31/49/49 14/48/48 13/50/50
f 29/54/54 13/50/50 12/52/52
f 26/53/53 32/51/51 29/54/54
f 13/50/50 29/54/54 32/51/51
f 23/56/56 1/55/55 16/59/59
f 15/57/57 30/58/58 33/60/60
f 33/76/76 22/62/62 23/61/61
f 32/73/73 20/64/64 21/63/63
f 31/74/74 21/63/63 22/62/62
f 31/74/74 33/76/76 30/75/75
f 22/62/62 33/76/76 31/74/74
f 31/74/74 32/73/73 21/63/63
f 32/73/73 26/72/72 20/64/64
f 25/68/68 17/67/67 18/66/66
f 28/70/70 25/68/68 18/66/66
f 24/69/69 25/68/68 28/70/70
f 19/65/65 20/64/64 27/71/71
f 26/72/72 27/71/71 20/64/64
f 19/65/65 27/71/71 28/70/70
f 28/70/70 18/66/66 19/65/65
f 6/19/19 17/18/18 7/17/17
f 5/21/21 18/20/20 6/19/19
f 4/23/23 19/22/22 5/21/21
f 2/27/27 21/26/26 3/25/25
f 1/29/29 22/28/28 2/27/27
f 3/25/25 20/24/24 4/23/23
f 24/32/32 8/35/35 25/36/36
f 7/33/33 25/36/36 8/35/35
f 9/43/43 28/42/42 10/41/41
f 10/41/41 27/40/40 11/39/39
f 14/48/48 30/47/47 15/46/46
f 31/49/49 13/50/50 32/51/51
f 23/56/56 16/59/59 33/60/60
f 15/57/57 33/60/60 16/59/59
