# Rhino

v 0.35492706298828125 -0.35492706298828125 0
v 0.35492706298828125 -0.35492706298828125 0.02710280753672123
v 0.326873779296875 -0.39758491516113281 0.02710280753672123
v 0.31360244750976563 -0.44712638854980469 0.02710280753672123
v 0.31000137329101563 -0.5 0
v 0.31000137329101563 -0.5 0.02710280753672123
v 0.34509468078613281 -0.36605453491210938 0
v 0.33629608154296875 -0.37889289855957031 0
v 0.32861709594726563 -0.39358901977539063 0
v 0.32214164733886719 -0.41028404235839844 0
v 0.31695747375488281 -0.42912864685058594 0
v 0.31315040588378906 -0.45026588439941406 0
v 0.31080245971679688 -0.47384071350097656 0
v 0.5 -0.30999946594238281 0
v 0.5 -0.30999946594238281 0.02710280753672123
v 0.44754409790039063 -0.31353950500488281 0.02710280753672123
v 0.39783477783203125 -0.32676887512207031 0.02710280753672123
v 0.47384071350097656 -0.31080055236816406 0
v 0.45026588439941406 -0.31314849853515625 0
v 0.42912864685058594 -0.31695747375488281 0
v 0.41028594970703125 -0.32214164733886719 0
v 0.39358901977539063 -0.32861518859863281 0
v 0.37889480590820313 -0.33629417419433594 0
v 0.36605453491210938 -0.3450927734375 0
v 0.5 -0.19000053405761719 0
v 0.5 -0.19000053405761719 0.02710280753672123
v 0.5 -0.25 0
v 0.5 -0.25 0.02710280753672123
v 0.27007484436035156 -0.27007293701171875 0
v 0.27007484436035156 -0.27007293701171875 0.02710280753672123
v 0.33730506896972656 -0.22276115417480469 0.02710280753672123
v 0.4163055419921875 -0.19737815856933594 0.02710280753672123
v 0.29214859008789063 -0.2506103515625 0
v 0.31641960144042969 -0.23401832580566406 0
v 0.34274101257324219 -0.22021293640136719 0
v 0.37096595764160156 -0.20910835266113281 0
v 0.40094947814941406 -0.20062065124511719 0
v 0.43254852294921875 -0.19466400146484375 0
v 0.46561241149902344 -0.19115257263183594 0
v 0.19000053405761719 -0.5 0
v 0.19000053405761719 -0.5 0.02710280753672123
v 0.19721221923828125 -0.41718864440917969 0.02710280753672123
v 0.22329330444335938 -0.33620834350585938 0.02710280753672123
v 0.19115257263183594 -0.46561241149902344 0
v 0.19466400146484375 -0.43254661560058594 0
v 0.20062065124511719 -0.40094947814941406 0
v 0.20910835266113281 -0.37096595764160156 0
v 0.22021293640136719 -0.34273910522460938 0
v 0.23401832580566406 -0.31641960144042969 0
v 0.2506103515625 -0.29214859008789063 0
v 0.25 -0.5 0
v 0.25 -0.5 0.02710280753672123
v 0.35492706298828125 -0.35492706298828125 -0.0607476606965065
v 0.326873779296875 -0.39758491516113281 -0.0607476606965065
v 0.31360244750976563 -0.44712638854980469 -0.0607476606965065
v 0.31000137329101563 -0.5 -0.0607476606965065
v 0.35492706298828125 -0.35492706298828125 -0.03037383034825325
v 0.5 -0.30999946594238281 -0.0607476606965065
v 0.44754409790039063 -0.31353950500488281 -0.0607476606965065
v 0.39783477783203125 -0.32676887512207031 -0.0607476606965065
v 0.5 -0.19000053405761719 -0.0607476606965065
v 0.5 -0.25 -0.0607476606965065
v 0.27007484436035156 -0.27007293701171875 -0.0607476606965065
v 0.33730506896972656 -0.22276115417480469 -0.0607476606965065
v 0.4163055419921875 -0.19737815856933594 -0.0607476606965065
v 0.19000053405761719 -0.5 -0.0607476606965065
v 0.19721221923828125 -0.41718864440917969 -0.0607476606965065
v 0.22329330444335938 -0.33620834350585938 -0.0607476606965065
v 0.25 -0.5 -0.0607476606965065
vt 0.16168510913848877 0
vt 0.11802082508802414 0
vt 0.11802082508802414 0.10203141719102859
vt 0.11802082508802414 0.18386276066303253
vt 0.16168510913848877 0.25107872486114502
vt 0.11802082508802414 0.25107872486114502
vt 0.16168510913848877 0.031384840607643127
vt 0.16168510913848877 0.062769681215286255
vt 0.16168510913848877 0.094154521822929382
vt 0.16168510913848877 0.12553936243057251
vt 0.16168510913848877 0.15692420303821564
vt 0.16168510913848877 0.18830904364585876
vt 0.16168510913848877 0.21969388425350189
vt 0.22069551050662994 0
vt 0.17703123390674591 0
vt 0.17703123390674591 0.066621989011764526
vt 0.17703123390674591 0.14856475591659546
vt 0.22069551050662994 0.25108152627944946
vt 0.17703123390674591 0.25108152627944946
vt 0.22069551050662994 0.031385190784931183
vt 0.22069551050662994 0.062770381569862366
vt 0.22069551050662994 0.094155579805374146
vt 0.22069551050662994 0.12554076313972473
vt 0.22069551050662994 0.15692596137523651
vt 0.22069551050662994 0.18831115961074829
vt 0.22069551050662994 0.21969634294509888
vt 0.1026746928691864 0
vt 0.05901041254401207 0
vt 0.1026746928691864 0.19332733750343323
vt 0.05901041254401207 0.19332733750343323
vt 0.1026746928691864 0.096663668751716614
vt 0.05901041254401207 0.096663668751716614
vt 0.097868196666240692 0.70616656541824341
vt 0.097868196666240692 0.74983084201812744
vt 0.23827694356441498 0.74983084201812744
vt 0.373321533203125 0.74983084201812744
vt 0.49910619854927063 0.70616656541824341
vt 0.49910619854927063 0.74983084201812744
vt 0.14802294969558716 0.70616656541824341
vt 0.19817769527435303 0.70616656541824341
vt 0.24833245575428009 0.70616656541824341
vt 0.29848718643188477 0.70616656541824341
vt 0.34864196181297302 0.70616656541824341
vt 0.39879670739173889 0.70616656541824341
vt 0.44895145297050476 0.70616656541824341
vt 0.097868196666240692 0.77517509460449219
vt 0.097868196666240692 0.81883937120437622
vt 0.22225198149681091 0.81883937120437622
vt 0.36074331402778625 0.81883937120437622
vt 0.49910619854927063 0.77517509460449219
vt 0.49910619854927063 0.81883937120437622
vt 0.14802294969558716 0.77517509460449219
vt 0.19817769527435303 0.77517509460449219
vt 0.24833245575428009 0.77517509460449219
vt 0.29848718643188477 0.77517509460449219
vt 0.34864196181297302 0.77517509460449219
vt 0.39879670739173889 0.77517509460449219
vt 0.44895145297050476 0.77517509460449219
vt 0.043664280325174332 0
vt 0 0
vt 0.043664280325174332 0.19332733750343323
vt 0 0.19332733750343323
vt 0.043664280325174332 0.096663668751716614
vt 0 0.096663668751716614
vt 0.50057107210159302 0.49942895770072937
vt 0.69333136081695557 0.49942895770072937
vt 0.69911706447601318 0.58436226844787598
vt 0.72043699026107788 0.66394186019897461
vt 0.76549828052520752 0.73246586322784424
vt 0.83442360162734985 0.77769505977630615
vt 0.91427183151245117 0.7989470362663269
vt 0.99853515625 0.80463278293609619
vt 0.99853515625 0.90101289749145508
vt 0.99853515625 0.99739307165145874
vt 0.86409306526184082 0.98554110527038574
vt 0.73719292879104614 0.94476783275604248
vt 0.62919610738754272 0.86876797676086426
vt 0.55405068397521973 0.76253199577331543
vt 0.51215660572052002 0.63245266675949097
vt 0.5969511866569519 0.49942895770072937
vt 0.33390983939170837 0
vt 0.23604165017604828 0
vt 0.23604165017604828 0.10203141719102859
vt 0.23604165017604828 0.18386276066303253
vt 0.33390983939170837 0.25107872486114502
vt 0.23604165017604828 0.25107872486114502
vt 0.33390983939170837 0.031384840607643127
vt 0.33390983939170837 0.062769681215286255
vt 0.33390983939170837 0.094154521822929382
vt 0.33390983939170837 0.12553936243057251
vt 0.33390983939170837 0.15692420303821564
vt 0.33390983939170837 0.18830904364585876
vt 0.33390983939170837 0.21969388425350189
vt 0.28497573733329773 0
vt 0.46617454290390015 0
vt 0.36830633878707886 0
vt 0.36830633878707886 0.066621989011764526
vt 0.36830633878707886 0.14856475591659546
vt 0.46617454290390015 0.25108152627944946
vt 0.36830633878707886 0.25108152627944946
vt 0.46617454290390015 0.031385190784931183
vt 0.46617454290390015 0.062770381569862366
vt 0.46617454290390015 0.094155579805374146
vt 0.46617454290390015 0.12554076313972473
vt 0.46617454290390015 0.15692596137523651
vt 0.46617454290390015 0.18831115961074829
vt 0.46617454290390015 0.21969634294509888
vt 0.4172404408454895 0.25108152627944946
vt 0.097868196666240692 0.55149227380752563
vt 0.097868196666240692 0.64936041831970215
vt 0.29119554162025452 0.55149227380752563
vt 0.29119554162025452 0.64936041831970215
vt 0.19453185796737671 0.55149227380752563
vt 0.19453185796737671 0.64936041831970215
vt 0.097868196666240692 0.39681795239448547
vt 0.097868196666240692 0.49468615651130676
vt 0.23827694356441498 0.49468615651130676
vt 0.373321533203125 0.49468615651130676
vt 0.49910619854927063 0.39681795239448547
vt 0.49910619854927063 0.49468615651130676
vt 0.14802294969558716 0.39681795239448547
vt 0.19817769527435303 0.39681795239448547
vt 0.24833245575428009 0.39681795239448547
vt 0.29848718643188477 0.39681795239448547
vt 0.34864196181297302 0.39681795239448547
vt 0.39879670739173889 0.39681795239448547
vt 0.44895145297050476 0.39681795239448547
vt 0 0.84418362379074097
vt 0 0.94205182790756226
vt 0.12483788281679153 0.94205182790756226
vt 0.26383483409881592 0.94205182790756226
vt 0.40270286798477173 0.84418362379074097
vt 0.40270286798477173 0.94205182790756226
vt 0.050337858498096466 0.84418362379074097
vt 0.10067571699619293 0.84418362379074097
vt 0.1510135680437088 0.84418362379074097
vt 0.20135143399238586 0.84418362379074097
vt 0.25168928503990173 0.84418362379074097
vt 0.3020271360874176 0.84418362379074097
vt 0.35236498713493347 0.84418362379074097
vt 0.096403352916240692 0.39681795239448547
vt 0 0.39681795239448547
vt 0.096403352916240692 0.5901452898979187
vt 0 0.5901452898979187
vt 0.096403352916240692 0.49348163604736328
vt 0 0.49348163604736328
vt 0.50057107210159302 0
vt 0.69333136081695557 0
vt 0.69911706447601318 0.084933295845985413
vt 0.72043699026107788 0.16451288759708405
vt 0.76549828052520752 0.23303692042827606
vt 0.83442360162734985 0.27826610207557678
vt 0.91427183151245117 0.29951807856559753
vt 0.99853515625 0.30520382523536682
vt 0.99853515625 0.4015839695930481
vt 0.99853515625 0.49796411395072937
vt 0.86409306526184082 0.48611214756965637
vt 0.73719292879104614 0.44533887505531311
vt 0.62919610738754272 0.36933901906013489
vt 0.55405068397521973 0.26310306787490845
vt 0.51215660572052002 0.13302373886108398
vt 0.5969511866569519 0
vn 0.70710676908493042 -0.70710676908493042 0
vn 0.70710676908493042 -0.70710676908493042 0
vn 0.92216849327087402 -0.38678836822509766 0
vn 0.98893511295318604 -0.14834877848625183 0
vn 1 0 0
vn 1 0 0
vn 0.78844517469406128 -0.6151050329208374 0
vn 0.8572845458984375 -0.51484286785125732 0
vn 0.91107743978500366 -0.41223523020744324 0
vn 0.94983333349227905 -0.31275656819343567 0
vn 0.97542035579681396 -0.22035230696201324 0
vn 0.99054884910583496 -0.13716021180152893 0
vn 0.99796128273010254 -0.063822120428085327 0
vn 0 -1 0
vn 0 -1 0
vn 0.14684069156646729 -0.98916018009185791 0
vn 0.38523247838020325 -0.92281955480575562 0
vn 0.70710676908493042 -0.70710676908493042 0
vn 0.70710676908493042 -0.70710676908493042 0
vn 0.063822120428085327 -0.99796128273010254 0
vn 0.13716021180152893 -0.99054884910583496 0
vn 0.22035230696201324 -0.97542035579681396 0
vn 0.31275656819343567 -0.94983333349227905 0
vn 0.41223523020744324 -0.91107743978500366 0
vn 0.51484286785125732 -0.8572845458984375 0
vn 0.6151050329208374 -0.78844517469406128 0
vn 1 0 0
vn 1 0 0
vn 1 0 0
vn 1 0 0
vn 1 0 0
vn 1 0 0
vn -0.70710676908493042 0.70710676908493042 0
vn -0.70710676908493042 0.70710676908493042 0
vn -0.43451669812202454 0.90066379308700562 0
vn -0.18578942120075226 0.98258960247039795 0
vn 0 1 0
vn 0 1 0
vn -0.61333870887756348 0.78982001543045044 0
vn -0.51430726051330566 0.85760599374771118 0
vn -0.41470131278038025 0.90995758771896362 0
vn -0.31833627820014954 0.94797784090042114 0
vn -0.22777216136455536 0.97371447086334229 0
vn -0.14435780048370361 0.98952555656433105 0
vn -0.068503193557262421 0.99765092134475708 0
vn -1 0 0
vn -1 0 0
vn -0.98302710056304932 0.18346039950847626 0
vn -0.8987007737159729 0.43856239318847656 0
vn -0.70710676908493042 0.70710676908493042 0
vn -0.70710676908493042 0.70710676908493042 0
vn -0.99765092134475708 0.068503193557262421 0
vn -0.98952555656433105 0.14435780048370361 0
vn -0.97371447086334229 0.22777216136455536 0
vn -0.94797784090042114 0.31833627820014954 0
vn -0.90995758771896362 0.41470131278038025 0
vn -0.85760599374771118 0.51430726051330566 0
vn -0.78982001543045044 0.61333870887756348 0
vn 0 -1 0
vn 0 -1 0
vn 0 -1 0
vn 0 -1 0
vn 0 -1 0
vn 0 -1 0
vn 0 0 1
vn 0 0 1
vn 0 0 1
vn 0 0 1
vn 0 0 1
vn 0 0 1
vn 0 0 1
vn 0 0 1
vn 0 0 1
vn 0 0 1
vn 0 0 1
vn 0 0 1
vn 0 0 1
vn 0 0 1
vn 0 0 1
vn 0 0 1
vn 0.70710676908493042 -0.70710676908493042 0
vn 0.70710676908493042 -0.70710676908493042 0
vn 0.92216849327087402 -0.38678836822509766 0
vn 0.98893511295318604 -0.14834877848625183 0
vn 1 0 0
vn 1 0 0
vn 0.78844517469406128 -0.6151050329208374 0
vn 0.8572845458984375 -0.51484286785125732 0
vn 0.91107743978500366 -0.41223523020744324 0
vn 0.94983333349227905 -0.31275656819343567 0
vn 0.97542035579681396 -0.22035230696201324 0
vn 0.99054884910583496 -0.13716021180152893 0
vn 0.99796128273010254 -0.063822120428085327 0
vn 0.70710676908493042 -0.70710676908493042 0
vn 0 -1 0
vn 0 -1 0
vn 0.14684069156646729 -0.98916018009185791 0
vn 0.38523247838020325 -0.92281955480575562 0
vn 0.70710676908493042 -0.70710676908493042 0
vn 0.70710676908493042 -0.70710676908493042 0
vn 0.063822120428085327 -0.99796128273010254 0
vn 0.13716021180152893 -0.99054884910583496 0
vn 0.22035230696201324 -0.97542035579681396 0
vn 0.31275656819343567 -0.94983333349227905 0
vn 0.41223523020744324 -0.91107743978500366 0
vn 0.51484286785125732 -0.8572845458984375 0
vn 0.6151050329208374 -0.78844517469406128 0
vn 0.70710676908493042 -0.70710676908493042 0
vn 1 0 0
vn 1 0 0
vn 1 0 0
vn 1 0 0
vn 1 0 0
vn 1 0 0
vn -0.70710676908493042 0.70710676908493042 0
vn -0.70710676908493042 0.70710676908493042 0
vn -0.43451669812202454 0.90066379308700562 0
vn -0.18578942120075226 0.98258960247039795 0
vn 0 1 0
vn 0 1 0
vn -0.61333870887756348 0.78982001543045044 0
vn -0.51430726051330566 0.85760599374771118 0
vn -0.41470131278038025 0.90995758771896362 0
vn -0.31833627820014954 0.94797784090042114 0
vn -0.22777216136455536 0.97371447086334229 0
vn -0.14435780048370361 0.98952555656433105 0
vn -0.068503193557262421 0.99765092134475708 0
vn -1 0 0
vn -1 0 0
vn -0.98302710056304932 0.18346039950847626 0
vn -0.8987007737159729 0.43856239318847656 0
vn -0.70710676908493042 0.70710676908493042 0
vn -0.70710676908493042 0.70710676908493042 0
vn -0.99765092134475708 0.068503193557262421 0
vn -0.98952555656433105 0.14435780048370361 0
vn -0.97371447086334229 0.22777216136455536 0
vn -0.94797784090042114 0.31833627820014954 0
vn -0.90995758771896362 0.41470131278038025 0
vn -0.85760599374771118 0.51430726051330566 0
vn -0.78982001543045044 0.61333870887756348 0
vn 0 -1 0
vn 0 -1 0
vn 0 -1 0
vn 0 -1 0
vn 0 -1 0
vn 0 -1 0
vn 0 0 -1
vn 0 0 -1
vn 0 0 -1
vn 0 0 -1
vn 0 0 -1
vn 0 0 -1
vn 0 0 -1
vn 0 0 -1
vn 0 0 -1
vn 0 0 -1
vn 0 0 -1
vn 0 0 -1
vn 0 0 -1
vn 0 0 -1
vn 0 0 -1
vn 0 0 -1
f 2/2/2 7/7/7 1/1/1
f 2/2/2 8/8/8 7/7/7
f 2/2/2 3/3/3 8/8/8
f 9/9/9 8/8/8 3/3/3
f 10/10/10 9/9/9 3/3/3
f 4/4/4 11/11/11 3/3/3
f 4/4/4 12/12/12 11/11/11
f 6/6/6 13/13/13 4/4/4
f 13/13/13 6/6/6 5/5/5
f 15/15/15 18/20/20 14/14/14
f 16/16/16 19/21/21 18/20/20
f 15/15/15 16/16/16 18/20/20
f 20/22/22 19/21/21 16/16/16
f 17/17/17 21/23/23 20/22/22
f 17/17/17 22/24/24 21/23/23
f 17/17/17 23/25/25 22/24/24
f 2/19/19 24/26/26 23/25/25
f 24/26/26 2/19/19 1/18/18
f 26/28/28 28/32/32 27/31/31
f 14/29/29 27/31/31 28/32/32
f 30/34/34 33/39/39 29/33/33
f 31/35/35 34/40/40 33/39/39
f 30/34/34 31/35/35 33/39/39
f 35/41/41 34/40/40 31/35/35
f 36/42/42 35/41/41 31/35/35
f 32/36/36 37/43/43 36/42/42
f 32/36/36 38/44/44 37/43/43
f 26/38/38 39/45/45 32/36/36
f 39/45/45 26/38/38 25/37/37
f 31/35/35 32/36/36 36/42/42
f 41/47/47 44/52/52 40/46/46
f 42/48/48 45/53/53 44/52/52
f 41/47/47 42/48/48 44/52/52
f 46/54/54 45/53/53 42/48/48
f 47/55/55 46/54/54 42/48/48
f 43/49/49 48/56/56 47/55/55
f 43/49/49 49/57/57 48/56/56
f 30/51/51 50/58/58 43/49/49
f 50/58/58 30/51/51 29/50/50
f 42/48/48 43/49/49 47/55/55
f 52/64/64 51/63/63 5/59/59
f 51/63/63 52/64/64 41/62/62
f 52/80/80 42/79/79 41/65/65
f 52/80/80 6/66/66 4/67/67
f 4/67/67 42/79/79 52/80/80
f 3/68/68 43/78/78 42/79/79
f 3/68/68 2/69/69 43/78/78
f 30/77/77 43/78/78 2/69/69
f 3/68/68 42/79/79 4/67/67
f 31/76/76 2/69/69 17/70/70
f 28/73/73 16/71/71 15/72/72
f 32/75/75 17/70/70 16/71/71
f 32/75/75 31/76/76 17/70/70
f 32/75/75 28/73/73 26/74/74
f 32/75/75 16/71/71 28/73/73
f 30/77/77 2/69/69 31/76/76
f 57/94/94 1/81/81 7/87/87
f 57/94/94 7/87/87 8/88/88
f 54/83/83 53/82/82 57/94/94
f 8/88/88 54/83/83 57/94/94
f 10/90/90 54/83/83 9/89/89
f 54/83/83 8/88/88 9/89/89
f 55/84/84 54/83/83 11/91/91
f 55/84/84 11/91/91 12/92/92
f 56/86/86 55/84/84 13/93/93
f 13/93/93 5/85/85 56/86/86
f 58/96/96 14/95/95 18/101/101
f 59/97/97 18/101/101 19/102/102
f 59/97/97 58/96/96 18/101/101
f 60/98/98 59/97/97 20/103/103
f 59/97/97 19/102/102 20/103/103
f 60/98/98 22/105/105 23/106/106
f 57/108/108 23/106/106 24/107/107
f 60/98/98 23/106/106 57/108/108
f 1/99/99 57/108/108 24/107/107
f 60/98/98 57/108/108 53/100/100
f 21/104/104 22/105/105 60/98/98
f 61/110/110 25/109/109 27/113/113
f 14/111/111 58/112/112 62/114/114
f 63/116/116 29/115/115 33/121/121
f 64/117/117 33/121/121 34/122/122
f 63/116/116 33/121/121 64/117/117
f 35/123/123 64/117/117 34/122/122
f 36/124/124 64/117/117 35/123/123
f 65/118/118 36/124/124 37/125/125
f 65/118/118 37/125/125 38/126/126
f 61/120/120 65/118/118 39/127/127
f 39/127/127 25/119/119 61/120/120
f 64/117/117 36/124/124 65/118/118
f 66/129/129 40/128/128 44/134/134
f 67/130/130 44/134/134 45/135/135
f 66/129/129 44/134/134 67/130/130
f 46/136/136 67/130/130 45/135/135
f 47/137/137 67/130/130 46/136/136
f 68/131/131 47/137/137 48/138/138
f 68/131/131 48/138/138 49/139/139
f 63/133/133 68/131/131 50/140/140
f 50/140/140 29/132/132 63/133/133
f 67/130/130 47/137/137 68/131/131
f 5/141/141 51/145/145 56/142/142
f 66/144/144 69/146/146 40/143/143
f 69/162/162 66/147/147 67/161/161
f 69/162/162 55/149/149 56/148/148
f 55/149/149 69/162/162 67/161/161
f 54/150/150 67/161/161 68/160/160
f 54/150/150 68/160/160 53/151/151
f 63/159/159 53/151/151 68/160/160
f 54/150/150 55/149/149 67/161/161
f 64/158/158 60/152/152 53/151/151
f 62/155/155 58/154/154 59/153/153
f 65/157/157 59/153/153 60/152/152
f 65/157/157 60/152/152 64/158/158
f 65/157/157 61/156/156 62/155/155
f 65/157/157 62/155/155 59/153/153
f 63/159/159 64/158/158 53/151/151
f 11/11/11 10/10/10 3/3/3
f 13/13/13 12/12/12 4/4/4
f 17/17/17 20/22/22 16/16/16
f 2/19/19 23/25/25 17/17/17
f 26/28/28 27/31/31 25/27/27
f 14/29/29 28/32/32 15/30/30
f 39/45/45 38/44/44 32/36/36
f 50/58/58 49/57/57 43/49/49
f 52/64/64 5/59/59 6/60/60
f 51/63/63 41/62/62 40/61/61
f 54/83/83 10/90/90 11/91/91
f 55/84/84 12/92/92 13/93/93
f 60/98/98 20/103/103 21/104/104
f 61/110/110 27/113/113 62/114/114
f 14/111/111 62/114/114 27/113/113
f 65/118/118 38/126/126 39/127/127
f 68/131/131 49/139/139 50/140/140
f 51/145/145 69/146/146 56/142/142
f 69/146/146 51/145/145 40/143/143
