# Rhino

v 0.0011768341064453125 0.5 0
v 0.31000137329101563 0.5 0
v 0 0 0
v 0.31000137329101563 0 0
v 0.0005893707275390625 0.25 0
v 0.15500068664550781 0 0
v 0.31000137329101563 0.25 0
v 0.15558815002441406 0.5 0
v 0 0 -0.20000000298023224
v 0.0011768341064453125 0.5 -0.20000000298023224
v 0.0005893707275390625 0.25 -0.20000000298023224
v 0.31000137329101563 0 -0.20000000298023224
v 0.15500068664550781 0 -0.20000000298023224
v 0.31000137329101563 0.5 -0.20000000298023224
v 0.31000137329101563 0.25 -0.20000000298023224
v 0.15558815002441406 0.5 -0.20000000298023224
v 0 -0.30999946594238281 0
v 0.31000137329101563 0 0
v 0.30262184143066406 -0.0836944580078125 0
v 0.27723884582519531 -0.16269493103027344 0
v 0.22992706298828125 -0.22992706298828125 0
v 0.16379165649414063 -0.27670669555664063 0
v 0.082813262939453125 -0.30278778076171875 0
v 0 -0.15500068664550781 0
v 0 0 0
v 0.15500068664550781 0 0
v 0.22992706298828125 -0.22992706298828125 0
v 0.22992706298828125 -0.22992706298828125 -0.20000000298023224
v 0.27723884582519531 -0.16269493103027344 -0.20000000298023224
v 0.30262184143066406 -0.0836944580078125 -0.20000000298023224
v 0.22992706298828125 -0.22992706298828125 -0.10000000149011612
v 0 -0.30999946594238281 0
v 0 -0.30999946594238281 -0.20000000298023224
v 0.082813262939453125 -0.30278778076171875 -0.20000000298023224
v 0.16379165649414063 -0.27670669555664063 -0.20000000298023224
v 0 -0.15500068664550781 -0.20000000298023224
v -0.5 -0.0011768341064453125 0
v -0.5 -0.30999946594238281 0
v -0.25 -0.00058746337890625 0
v 0 -0.15500068664550781 0
v -0.25 -0.30999946594238281 0
v -0.5 -0.15558815002441406 0
v -0.5 -0.0011768341064453125 -0.20000000298023224
v -0.25 -0.00058746337890625 -0.20000000298023224
v -0.5 -0.30999946594238281 -0.20000000298023224
v -0.25 -0.30999946594238281 -0.20000000298023224
v -0.5 -0.15558815002441406 -0.20000000298023224
vt 0.99853515625 0
vt 0.66666668653488159 0
vt 0.99853515625 0.5376359224319458
vt 0.66666668653488159 0.5376359224319458
vt 0.99853515625 0.2688179612159729
vt 0.83260089159011841 0.5376359224319458
vt 0.66666668653488159 0.2688179612159729
vt 0.83260089159011841 0
vt 0 0.21505376696586609
vt 0 0.42864269018173218
vt 0.5376359224319458 0.21505376696586609
vt 0.5376359224319458 0.42864269018173218
vt 0.2688179612159729 0.21505376696586609
vt 0.2688179612159729 0.42864269018173218
vt 0 0.69892549514770508
vt 0 0.91397923231124878
vt 0.3318684995174408 0.69892549514770508
vt 0.3318684995174408 0.91397923231124878
vt 0.1659342497587204 0.69892549514770508
vt 0.1659342497587204 0.91397923231124878
vt 0 0
vt 0 0.21358892321586609
vt 0.53763443231582642 0
vt 0.53763443231582642 0.21358892321586609
vt 0.26881721615791321 0
vt 0.26881721615791321 0.21358892321586609
vt 0 0.43010753393173218
vt 0 0.64516127109527588
vt 0.3318684995174408 0.43010753393173218
vt 0.3318684995174408 0.64516127109527588
vt 0.1659342497587204 0.43010753393173218
vt 0.1659342497587204 0.64516127109527588
vt 0.66520184278488159 0.43010753393173218
vt 0.3333333432674408 0.43010753393173218
vt 0.66520184278488159 0.9662785530090332
vt 0.3333333432674408 0.9662785530090332
vt 0.66520184278488159 0.69819307327270508
vt 0.499267578125 0.9662785530090332
vt 0.3333333432674408 0.69819307327270508
vt 0.499267578125 0.43010753393173218
vt 0 0.43661972880363464
vt 0.43515488505363464 0.87177461385726929
vt 0.31767022609710693 0.86141753196716309
vt 0.20677629113197327 0.82578706741333008
vt 0.1124013364315033 0.7593732476234436
vt 0.046734116971492767 0.66653704643249512
vt 0.010124221444129944 0.55286490917205811
vt 0.21757744252681732 0.43661972880363464
vt 0.43515488505363464 0.43661972880363464
vt 0.43515488505363464 0.65419715642929077
vt 0.71684503555297852 0
vt 0.43661972880363464 0
vt 0.71684503555297852 0.12319799512624741
vt 0.43661972880363464 0.12319799512624741
vt 0.71684503555297852 0.24168935418128967
vt 0.43661972880363464 0.24168935418128967
vt 0.71684503555297852 0.35205581784248352
vt 0.43661972880363464 0.35205581784248352
vt 0.576732337474823 0
vt 0.99853515625 0
vt 0.71830987930297852 0
vt 0.99853515625 0.10913801193237305
vt 0.71830987930297852 0.10913801193237305
vt 0.99853515625 0.23065440356731415
vt 0.71830987930297852 0.23065440356731415
vt 0.99853515625 0.35205808281898499
vt 0.71830987930297852 0.35205808281898499
vt 0.85842251777648926 0.35205808281898499
vt 0.71684503555297852 0.38980558514595032
vt 0.43661972880363464 0.38980558514595032
vt 0.71684503555297852 0.82642531394958496
vt 0.43661972880363464 0.82642531394958496
vt 0.71684503555297852 0.60811543464660645
vt 0.43661972880363464 0.60811543464660645
vt 0.99853515625 0.38980558514595032
vt 0.71830987930297852 0.38980558514595032
vt 0.99853515625 0.82642531394958496
vt 0.71830987930297852 0.82642531394958496
vt 0.99853515625 0.60811543464660645
vt 0.71830987930297852 0.60811543464660645
vt 0 0
vt 0.43515488505363464 0.43515488505363464
vt 0.31767022609710693 0.42479783296585083
vt 0.20677629113197327 0.38916736841201782
vt 0.1124013364315033 0.32275354862213135
vt 0.046734116971492767 0.22991734743118286
vt 0.010124221444129944 0.11624518781900406
vt 0.21757744252681732 0
vt 0.43515488505363464 0
vt 0.43515488505363464 0.21757744252681732
vt 0.99853515625 0
vt 0.66666668653488159 0
vt 0.99853515625 0.5376359224319458
vt 0.66666668653488159 0.5376359224319458
vt 0.99853515625 0.2688179612159729
vt 0.83260089159011841 0.5376359224319458
vt 0.66666668653488159 0.2688179612159729
vt 0.83260089159011841 0
vt 0 0.21505376696586609
vt 0 0.42864269018173218
vt 0.5376359224319458 0.21505376696586609
vt 0.5376359224319458 0.42864269018173218
vt 0.2688179612159729 0.21505376696586609
vt 0.2688179612159729 0.42864269018173218
vt 0 0.69892549514770508
vt 0 0.91397923231124878
vt 0.3318684995174408 0.69892549514770508
vt 0.3318684995174408 0.91397923231124878
vt 0.1659342497587204 0.69892549514770508
vt 0.1659342497587204 0.91397923231124878
vt 0 0
vt 0 0.21358892321586609
vt 0.53763443231582642 0
vt 0.53763443231582642 0.21358892321586609
vt 0.26881721615791321 0
vt 0.26881721615791321 0.21358892321586609
vt 0 0.43010753393173218
vt 0 0.64516127109527588
vt 0.3318684995174408 0.43010753393173218
vt 0.3318684995174408 0.64516127109527588
vt 0.1659342497587204 0.43010753393173218
vt 0.1659342497587204 0.64516127109527588
vt 0.66520184278488159 0.43010753393173218
vt 0.3333333432674408 0.43010753393173218
vt 0.66520184278488159 0.9662785530090332
vt 0.3333333432674408 0.9662785530090332
vt 0.66520184278488159 0.69819307327270508
vt 0.499267578125 0.9662785530090332
vt 0.3333333432674408 0.69819307327270508
vt 0.499267578125 0.43010753393173218
vn 0 0 1
vn 0 0 1
vn 0 0 1
vn 0 0 1
vn 0 0 1
vn 0 0 1
vn 0 0 1
vn 0 0 1
vn -0.99999725818634033 0.0023529345635324717 0
vn -0.99999725818634033 0.0023529345635324717 0
vn -0.99999725818634033 0.0023529345635324717 0
vn -0.99999725818634033 0.0023529345635324717 0
vn -0.99999725818634033 0.0023529345635324717 0
vn -0.99999725818634033 0.0023529345635324717 0
vn 0 -1 0
vn 0 -1 0
vn 0 -1 0
vn 0 -1 0
vn 0 -1 0
vn 0 -1 0
vn 1 0 0
vn 1 0 0
vn 1 0 0
vn 1 0 0
vn 1 0 0
vn 1 0 0
vn 0 1 0
vn 0 1 0
vn 0 1 0
vn 0 1 0
vn 0 1 0
vn 0 1 0
vn 0 0 -1
vn 0 0 -1
vn 0 0 -1
vn 0 0 -1
vn 0 0 -1
vn 0 0 -1
vn 0 0 -1
vn 0 0 -1
vn 0 0 1
vn 0 0 1
vn 0 0 1
vn 0 0 1
vn 0 0 1
vn 0 0 1
vn 0 0 1
vn 0 0 1
vn 0 0 1
vn 0 0 1
vn 0.70710676908493042 -0.70710676908493042 0
vn 0.70710676908493042 -0.70710676908493042 0
vn 0.90066379308700562 -0.43451669812202454 0
vn 0.90066379308700562 -0.43451669812202454 0
vn 0.98258960247039795 -0.18578942120075226 0
vn 0.98258960247039795 -0.18578942120075226 0
vn 1 0 0
vn 1 0 0
vn 0.70710676908493042 -0.70710676908493042 0
vn 0 -1 0
vn 0 -1 0
vn 0.18346039950847626 -0.98302710056304932 0
vn 0.18346039950847626 -0.98302710056304932 0
vn 0.43856239318847656 -0.8987007737159729 0
vn 0.43856239318847656 -0.8987007737159729 0
vn 0.70710676908493042 -0.70710676908493042 0
vn 0.70710676908493042 -0.70710676908493042 0
vn 0.70710676908493042 -0.70710676908493042 0
vn -1 0 0
vn -1 0 0
vn -1 0 0
vn -1 0 0
vn -1 0 0
vn -1 0 0
vn 0 1 0
vn 0 1 0
vn 0 1 0
vn 0 1 0
vn 0 1 0
vn 0 1 0
vn 0 0 -1
vn 0 0 -1
vn 0 0 -1
vn 0 0 -1
vn 0 0 -1
vn 0 0 -1
vn 0 0 -1
vn 0 0 -1
vn 0 0 -1
vn 0 0 -1
vn 0 0 1
vn 0 0 1
vn 0 0 1
vn 0 0 1
vn 0 0 1
vn 0 0 1
vn 0 0 1
vn 0 0 1
vn -0.0023529345635324717 0.99999725818634033 0
vn -0.0023529345635324717 0.99999725818634033 0
vn -0.0023529345635324717 0.99999725818634033 0
vn -0.0023529345635324717 0.99999725818634033 0
vn -0.0023529345635324717 0.99999725818634033 0
vn -0.0023529345635324717 0.99999725818634033 0
vn 1 0 0
vn 1 0 0
vn 1 0 0
vn 1 0 0
vn 1 0 0
vn 1 0 0
vn 0 -1 0
vn 0 -1 0
vn 0 -1 0
vn 0 -1 0
vn 0 -1 0
vn 0 -1 0
vn -1 0 0
vn -1 0 0
vn -1 0 0
vn -1 0 0
vn -1 0 0
vn -1 0 0
vn 0 0 -1
vn 0 0 -1
vn 0 0 -1
vn 0 0 -1
vn 0 0 -1
vn 0 0 -1
vn 0 0 -1
vn 0 0 -1
f 5/5/5 7/7/7 8/8/8
f 8/8/8 7/7/7 2/2/2
f 5/5/5 8/8/8 1/1/1
f 6/6/6 5/5/5 3/3/3
f 6/6/6 4/4/4 7/7/7
f 5/5/5 6/6/6 7/7/7
f 11/14/14 9/10/10 3/9/9
f 5/13/13 1/11/11 10/12/12
f 13/20/20 12/16/16 6/19/19
f 6/19/19 3/17/17 13/20/20
f 14/22/22 2/21/21 7/25/25
f 4/23/23 12/24/24 15/26/26
f 10/28/28 1/27/27 8/31/31
f 2/29/29 14/30/30 8/31/31
f 11/37/37 16/40/40 15/39/39
f 16/40/40 14/34/34 15/39/39
f 11/37/37 10/33/33 16/40/40
f 13/38/38 9/35/35 11/37/37
f 13/38/38 15/39/39 12/36/36
f 11/37/37 15/39/39 13/38/38
f 23/47/47 22/46/46 24/48/48
f 20/44/44 26/50/50 21/45/45
f 21/45/45 24/48/48 22/46/46
f 24/48/48 17/41/41 23/47/47
f 26/50/50 25/49/49 24/48/48
f 18/42/42 26/50/50 19/43/43
f 26/50/50 20/44/44 19/43/43
f 24/48/48 21/45/45 26/50/50
f 31/59/59 20/53/53 27/51/51
f 31/59/59 28/52/52 29/54/54
f 29/54/54 20/53/53 31/59/59
f 18/57/57 19/55/55 30/56/56
f 19/55/55 20/53/53 29/54/54
f 23/62/62 32/60/60 33/61/61
f 34/63/63 35/65/65 22/64/64
f 31/68/68 27/66/66 22/64/64
f 28/67/67 31/68/68 35/65/65
f 22/64/64 35/65/65 31/68/68
f 25/69/69 9/70/70 24/73/73
f 33/72/72 32/71/71 36/74/74
f 13/80/80 26/79/79 18/75/75
f 26/79/79 13/80/80 9/78/78
f 34/87/87 36/88/88 35/86/86
f 29/84/84 28/85/85 13/90/90
f 28/85/85 35/86/86 36/88/88
f 36/88/88 34/87/87 33/81/81
f 13/90/90 36/88/88 9/89/89
f 12/82/82 30/83/83 13/90/90
f 13/90/90 30/83/83 29/84/84
f 36/88/88 13/90/90 28/85/85
f 39/95/95 42/98/98 41/97/97
f 42/98/98 38/92/92 41/97/97
f 39/95/95 37/91/91 42/98/98
f 40/96/96 3/93/93 39/95/95
f 40/96/96 41/97/97 17/94/94
f 39/95/95 41/97/97 40/96/96
f 44/104/104 39/103/103 3/99/99
f 39/103/103 44/104/104 43/102/102
f 17/105/105 33/106/106 40/109/109
f 9/108/108 3/107/107 36/110/110
f 45/112/112 46/116/116 41/115/115
f 17/113/113 41/115/115 46/116/116
f 47/122/122 42/121/121 37/117/117
f 42/121/121 47/122/122 45/120/120
f 44/127/127 46/129/129 47/130/130
f 47/130/130 46/129/129 45/124/124
f 44/127/127 47/130/130 43/123/123
f 36/128/128 44/127/127 9/125/125
f 36/128/128 33/126/126 46/129/129
f 44/127/127 36/128/128 46/129/129
f 11/14/14 3/9/9 5/13/13
f 5/13/13 10/12/12 11/14/14
f 12/16/16 4/15/15 6/19/19
f 3/17/17 9/18/18 13/20/20
f 14/22/22 7/25/25 15/26/26
f 4/23/23 15/26/26 7/25/25
f 10/28/28 8/31/31 16/32/32
f 14/30/30 16/32/32 8/31/31
f 18/57/57 30/56/56 12/58/58
f 19/55/55 29/54/54 30/56/56
f 23/62/62 33/61/61 34/63/63
f 34/63/63 22/64/64 23/62/62
f 9/70/70 36/74/74 24/73/73
f 32/71/71 24/73/73 36/74/74
f 13/80/80 18/75/75 12/76/76
f 26/79/79 9/78/78 25/77/77
f 44/104/104 3/99/99 9/100/100
f 39/103/103 43/102/102 37/101/101
f 33/106/106 36/110/110 40/109/109
f 3/107/107 40/109/109 36/110/110
f 45/112/112 41/115/115 38/111/111
f 17/113/113 46/116/116 33/114/114
f 47/122/122 37/117/117 43/118/118
f 42/121/121 45/120/120 38/119/119
