# Rhino

v 0.0011768341064453125 0.5 0
v 0.30999946594238281 0.5 0
v 0 0 0
v 0.30999946594238281 0 0
v 0.00058746337890625 0.25 0
v 0.15500068664550781 0 0
v 0.30999946594238281 0.25 0
v 0.15558815002441406 0.5 0
v 0 0 -0.20000000298023224
v 0.0011768341064453125 0.5 -0.20000000298023224
v 0.00058746337890625 0.25 -0.20000000298023224
v 0.30999946594238281 0 -0.20000000298023224
v 0.15500068664550781 0 -0.20000000298023224
v 0.30999946594238281 0.5 -0.20000000298023224
v 0.30999946594238281 0.25 -0.20000000298023224
v 0.15558815002441406 0.5 -0.20000000298023224
v 0.0011768341064453125 -0.5 0
v 0.30999946594238281 -0.5 0
v 0.00058746337890625 -0.25 0
v 0.30999946594238281 -0.25 0
v 0.15558815002441406 -0.5 0
v 0.0011768341064453125 -0.5 -0.20000000298023224
v 0.00058746337890625 -0.25 -0.20000000298023224
v 0.30999946594238281 -0.5 -0.20000000298023224
v 0.30999946594238281 -0.25 -0.20000000298023224
v 0.15558815002441406 -0.5 -0.20000000298023224
vt 0.99853515625 0
vt 0.66666668653488159 0
vt 0.99853515625 0.5376359224319458
vt 0.66666668653488159 0.5376359224319458
vt 0.99853515625 0.2688179612159729
vt 0.83260089159011841 0.5376359224319458
vt 0.66666668653488159 0.2688179612159729
vt 0.83260089159011841 0
vt 0 0.21505376696586609
vt 0 0.42864269018173218
vt 0.5376359224319458 0.21505376696586609
vt 0.5376359224319458 0.42864269018173218
vt 0.2688179612159729 0.21505376696586609
vt 0.2688179612159729 0.42864269018173218
vt 0 0.69892549514770508
vt 0 0.91397923231124878
vt 0.3318684995174408 0.69892549514770508
vt 0.3318684995174408 0.91397923231124878
vt 0.1659342497587204 0.69892549514770508
vt 0.1659342497587204 0.91397923231124878
vt 0 0
vt 0 0.21358892321586609
vt 0.53763443231582642 0
vt 0.53763443231582642 0.21358892321586609
vt 0.26881721615791321 0
vt 0.26881721615791321 0.21358892321586609
vt 0 0.43010753393173218
vt 0 0.64516127109527588
vt 0.3318684995174408 0.43010753393173218
vt 0.3318684995174408 0.64516127109527588
vt 0.1659342497587204 0.43010753393173218
vt 0.1659342497587204 0.64516127109527588
vt 0.66520184278488159 0.43010753393173218
vt 0.3333333432674408 0.43010753393173218
vt 0.66520184278488159 0.9662785530090332
vt 0.3333333432674408 0.9662785530090332
vt 0.66520184278488159 0.69819307327270508
vt 0.499267578125 0.9662785530090332
vt 0.3333333432674408 0.69819307327270508
vt 0.499267578125 0.43010753393173218
vt 0.99853515625 0
vt 0.66666668653488159 0
vt 0.99853515625 0.5376359224319458
vt 0.66666668653488159 0.5376359224319458
vt 0.99853515625 0.2688179612159729
vt 0.83260089159011841 0.5376359224319458
vt 0.66666668653488159 0.2688179612159729
vt 0.83260089159011841 0
vt 0 0.21505376696586609
vt 0 0.42864269018173218
vt 0.5376359224319458 0.21505376696586609
vt 0.5376359224319458 0.42864269018173218
vt 0.2688179612159729 0.21505376696586609
vt 0.2688179612159729 0.42864269018173218
vt 0 0.69892549514770508
vt 0 0.91397923231124878
vt 0.3318684995174408 0.69892549514770508
vt 0.3318684995174408 0.91397923231124878
vt 0.1659342497587204 0.69892549514770508
vt 0.1659342497587204 0.91397923231124878
vt 0 0
vt 0 0.21358892321586609
vt 0.53763443231582642 0
vt 0.53763443231582642 0.21358892321586609
vt 0.26881721615791321 0
vt 0.26881721615791321 0.21358892321586609
vt 0 0.43010753393173218
vt 0 0.64516127109527588
vt 0.3318684995174408 0.43010753393173218
vt 0.3318684995174408 0.64516127109527588
vt 0.1659342497587204 0.43010753393173218
vt 0.1659342497587204 0.64516127109527588
vt 0.66520184278488159 0.43010753393173218
vt 0.3333333432674408 0.43010753393173218
vt 0.66520184278488159 0.9662785530090332
vt 0.3333333432674408 0.9662785530090332
vt 0.66520184278488159 0.69819307327270508
vt 0.499267578125 0.9662785530090332
vt 0.3333333432674408 0.69819307327270508
vt 0.499267578125 0.43010753393173218
vn 0 0 1
vn 0 0 1
vn 0 0 1
vn 0 0 1
vn 0 0 1
vn 0 0 1
vn 0 0 1
vn 0 0 1
vn -0.99999725818634033 0.0023529345635324717 0
vn -0.99999725818634033 0.0023529345635324717 0
vn -0.99999725818634033 0.0023529345635324717 0
vn -0.99999725818634033 0.0023529345635324717 0
vn -0.99999725818634033 0.0023529345635324717 0
vn -0.99999725818634033 0.0023529345635324717 0
vn 0 -1 0
vn 0 -1 0
vn 0 -1 0
vn 0 -1 0
vn 0 -1 0
vn 0 -1 0
vn 1 0 0
vn 1 0 0
vn 1 0 0
vn 1 0 0
vn 1 0 0
vn 1 0 0
vn 0 1 0
vn 0 1 0
vn 0 1 0
vn 0 1 0
vn 0 1 0
vn 0 1 0
vn 0 0 -1
vn 0 0 -1
vn 0 0 -1
vn 0 0 -1
vn 0 0 -1
vn 0 0 -1
vn 0 0 -1
vn 0 0 -1
vn 0 0 1
vn 0 0 1
vn 0 0 1
vn 0 0 1
vn 0 0 1
vn 0 0 1
vn 0 0 1
vn 0 0 1
vn -0.99999725818634033 -0.0023529345635324717 0
vn -0.99999725818634033 -0.0023529345635324717 0
vn -0.99999725818634033 -0.0023529345635324717 0
vn -0.99999725818634033 -0.0023529345635324717 0
vn -0.99999725818634033 -0.0023529345635324717 0
vn -0.99999725818634033 -0.0023529345635324717 0
vn 0 1 0
vn 0 1 0
vn 0 1 0
vn 0 1 0
vn 0 1 0
vn 0 1 0
vn 1 0 0
vn 1 0 0
vn 1 0 0
vn 1 0 0
vn 1 0 0
vn 1 0 0
vn 0 -1 0
vn 0 -1 0
vn 0 -1 0
vn 0 -1 0
vn 0 -1 0
vn 0 -1 0
vn 0 0 -1
vn 0 0 -1
vn 0 0 -1
vn 0 0 -1
vn 0 0 -1
vn 0 0 -1
vn 0 0 -1
vn 0 0 -1
f 5/5/5 7/7/7 8/8/8
f 8/8/8 7/7/7 2/2/2
f 5/5/5 8/8/8 1/1/1
f 6/6/6 5/5/5 3/3/3
f 6/6/6 4/4/4 7/7/7
f 5/5/5 6/6/6 7/7/7
f 3/9/9 5/13/13 11/14/14
f 10/12/12 11/14/14 5/13/13
f 4/15/15 6/19/19 12/16/16
f 9/18/18 13/20/20 3/17/17
f 14/22/22 2/21/21 7/25/25
f 4/23/23 12/24/24 15/26/26
f 16/32/32 10/28/28 1/27/27
f 8/31/31 2/29/29 14/30/30
f 11/37/37 16/40/40 15/39/39
f 16/40/40 14/34/34 15/39/39
f 11/37/37 10/33/33 16/40/40
f 13/38/38 9/35/35 11/37/37
f 13/38/38 15/39/39 12/36/36
f 11/37/37 15/39/39 13/38/38
f 19/45/45 21/48/48 20/47/47
f 21/48/48 18/42/42 20/47/47
f 19/45/45 17/41/41 21/48/48
f 6/46/46 3/43/43 19/45/45
f 6/46/46 20/47/47 4/44/44
f 19/45/45 20/47/47 6/46/46
f 23/54/54 19/53/53 3/49/49
f 19/53/53 23/54/54 22/52/52
f 4/55/55 12/56/56 6/59/59
f 9/58/58 3/57/57 13/60/60
f 24/62/62 25/66/66 20/65/65
f 4/63/63 20/65/65 25/66/66
f 26/72/72 21/71/71 17/67/67
f 21/71/71 26/72/72 24/70/70
f 23/77/77 25/79/79 26/80/80
f 26/80/80 25/79/79 24/74/74
f 23/77/77 26/80/80 22/73/73
f 13/78/78 23/77/77 9/75/75
f 13/78/78 12/76/76 25/79/79
f 23/77/77 13/78/78 25/79/79
f 3/9/9 11/14/14 9/10/10
f 10/12/12 5/13/13 1/11/11
f 6/19/19 13/20/20 12/16/16
f 13/20/20 6/19/19 3/17/17
f 14/22/22 7/25/25 15/26/26
f 4/23/23 15/26/26 7/25/25
f 16/32/32 1/27/27 8/31/31
f 8/31/31 14/30/30 16/32/32
f 23/54/54 3/49/49 9/50/50
f 19/53/53 22/52/52 17/51/51
f 12/56/56 13/60/60 6/59/59
f 3/57/57 6/59/59 13/60/60
f 24/62/62 20/65/65 18/61/61
f 4/63/63 25/66/66 12/64/64
f 26/72/72 17/67/67 22/68/68
f 21/71/71 24/70/70 18/69/69
