# Rhino

v 24.569999694824219 35.639999389648438 3.497999906539917
v 24.569999694824219 35.639999389648438 6.630000114440918
v 20.25 35.639999389648438 3.497999906539917
v 20.25 35.639999389648438 6.630000114440918
v 22.409999847412109 35.639999389648438 3.497999906539917
v 22.409999847412109 35.639999389648438 6.630000114440918
v 24.569999694824219 31.319999694824219 3.497999906539917
v 24.569999694824219 31.319999694824219 6.630000114440918
v 24.569999694824219 33.479999542236328 3.497999906539917
v 24.569999694824219 33.479999542236328 6.630000114440918
v 20.25 31.319999694824219 3.497999906539917
v 20.25 31.319999694824219 6.630000114440918
v 22.409999847412109 31.319999694824219 3.497999906539917
v 22.409999847412109 31.319999694824219 6.630000114440918
v 20.25 33.479999542236328 3.497999906539917
v 20.25 33.479999542236328 6.630000114440918
v 20.25 31.319999694824219 0.36599999666213989
v 20.25 27 0.36599999666213989
v 24.569999694824219 31.319999694824219 0.36599999666213989
v 24.569999694824219 27 0.36599999666213989
v 22.409999847412109 31.319999694824219 0.36599999666213989
v 24.569999694824219 29.159999847412109 0.36599999666213989
v 22.409999847412109 27 0.36599999666213989
v 20.25 29.159999847412109 0.36599999666213989
v 24.569999694824219 27 3.497999906539917
v 24.569999694824219 29.159999847412109 3.497999906539917
v 20.25 27 3.497999906539917
v 22.409999847412109 27 3.497999906539917
v 20.25 29.159999847412109 3.497999906539917
v 20.25 35.639999389648438 0.36599999666213989
v 24.569999694824219 35.639999389648438 0.36599999666213989
v 22.409999847412109 35.639999389648438 0.36599999666213989
v 24.569999694824219 33.479999542236328 0.36599999666213989
v 20.25 33.479999542236328 0.36599999666213989
vt 0 0.25
vt 0 0.43125000596046448
vt 0.25 0.25
vt 0.25 0.43125000596046448
vt 0.125 0.25
vt 0.125 0.43125000596046448
vt 0.36103516817092896 0.75
vt 0.18125000596046448 0.75
vt 0.36103516817092896 0.99853515625
vt 0.18125000596046448 0.99853515625
vt 0.36103516817092896 0.874267578125
vt 0.18125000596046448 0.874267578125
vt 0 0
vt 0 0.18125000596046448
vt 0.25 0
vt 0.25 0.18125000596046448
vt 0.125 0
vt 0.125 0.18125000596046448
vt 0.17978516221046448 0.75
vt 0 0.75
vt 0.17978516221046448 0.99853515625
vt 0 0.99853515625
vt 0.17978516221046448 0.874267578125
vt 0 0.874267578125
vt 0.55624997615814209 0.25
vt 0.30625000596046448 0.25
vt 0.55624997615814209 0.49853515625
vt 0.30625000596046448 0.49853515625
vt 0.55624997615814209 0.374267578125
vt 0.43125000596046448 0.49853515625
vt 0.30625000596046448 0.374267578125
vt 0.43125000596046448 0.25
vt 0.55624997615814209 0
vt 0.30625000596046448 0
vt 0.55624997615814209 0.24853515625
vt 0.30625000596046448 0.24853515625
vt 0.55624997615814209 0.124267578125
vt 0.43125000596046448 0.24853515625
vt 0.30625000596046448 0.124267578125
vt 0.43125000596046448 0
vt 0.97353518009185791 0
vt 0.79374998807907104 0
vt 0.97353518009185791 0.25
vt 0.79374998807907104 0.25
vt 0.97353518009185791 0.125
vt 0.79374998807907104 0.125
vt 0.79228514432907104 0
vt 0.61250001192092896 0
vt 0.79228514432907104 0.25
vt 0.61250001192092896 0.25
vt 0.79228514432907104 0.125
vt 0.61250001192092896 0.125
vt 0.97353518009185791 0.5
vt 0.79374998807907104 0.5
vt 0.97353518009185791 0.75
vt 0.79374998807907104 0.75
vt 0.97353518009185791 0.625
vt 0.79374998807907104 0.625
vt 0.61103516817092896 0.75
vt 0.36250001192092896 0.75
vt 0.61103516817092896 0.99853515625
vt 0.36250001192092896 0.99853515625
vt 0.61103516817092896 0.874267578125
vt 0.48676759004592896 0.99853515625
vt 0.36250001192092896 0.874267578125
vt 0.48676759004592896 0.75
vt 0.61103516817092896 0.5
vt 0.36250001192092896 0.5
vt 0.61103516817092896 0.74853515625
vt 0.36250001192092896 0.74853515625
vt 0.36250001192092896 0.624267578125
vt 0.61103516817092896 0.624267578125
vt 0.48676759004592896 0.74853515625
vt 0.48676759004592896 0.5
vt 0.79228514432907104 0.5
vt 0.61250001192092896 0.5
vt 0.79228514432907104 0.75
vt 0.61250001192092896 0.75
vt 0.61250001192092896 0.625
vt 0.79228514432907104 0.625
vt 0.36103516817092896 0.5
vt 0.18125000596046448 0.5
vt 0.36103516817092896 0.74853515625
vt 0.18125000596046448 0.74853515625
vt 0.18125000596046448 0.624267578125
vt 0.36103516817092896 0.624267578125
vt 0.17978516221046448 0.5
vt 0 0.5
vt 0.17978516221046448 0.74853515625
vt 0 0.74853515625
vt 0 0.624267578125
vt 0.17978516221046448 0.624267578125
vn 0 1 0
vn 0 1 0
vn 0 1 0
vn 0 1 0
vn 0 1 0
vn 0 1 0
vn 1 0 0
vn 1 0 0
vn 1 0 0
vn 1 0 0
vn 1 0 0
vn 1 0 0
vn 0 -1 0
vn 0 -1 0
vn 0 -1 0
vn 0 -1 0
vn 0 -1 0
vn 0 -1 0
vn -1 0 0
vn -1 0 0
vn -1 0 0
vn -1 0 0
vn -1 0 0
vn -1 0 0
vn 0 0 1
vn 0 0 1
vn 0 0 1
vn 0 0 1
vn 0 0 1
vn 0 0 1
vn 0 0 1
vn 0 0 1
vn 0 0 -1
vn 0 0 -1
vn 0 0 -1
vn 0 0 -1
vn 0 0 -1
vn 0 0 -1
vn 0 0 -1
vn 0 0 -1
vn 1 0 0
vn 1 0 0
vn 1 0 0
vn 1 0 0
vn 1 0 0
vn 1 0 0
vn 0 -1 0
vn 0 -1 0
vn 0 -1 0
vn 0 -1 0
vn 0 -1 0
vn 0 -1 0
vn -1 0 0
vn -1 0 0
vn -1 0 0
vn -1 0 0
vn -1 0 0
vn -1 0 0
vn 0 0 1
vn 0 0 1
vn 0 0 1
vn 0 0 1
vn 0 0 1
vn 0 0 1
vn 0 0 1
vn 0 0 1
vn 0 0 -1
vn 0 0 -1
vn 0 0 -1
vn 0 0 -1
vn 0 0 -1
vn 0 0 -1
vn 0 0 -1
vn 0 0 -1
vn 0 1 0
vn 0 1 0
vn 0 1 0
vn 0 1 0
vn 0 1 0
vn 0 1 0
vn 1 0 0
vn 1 0 0
vn 1 0 0
vn 1 0 0
vn 1 0 0
vn 1 0 0
vn -1 0 0
vn -1 0 0
vn -1 0 0
vn -1 0 0
vn -1 0 0
vn -1 0 0
f 2/2/2 1/1/1 5/5/5
f 3/3/3 4/4/4 6/6/6
f 8/8/8 7/7/7 9/11/11
f 1/9/9 2/10/10 10/12/12
f 12/14/14 11/13/13 13/17/17
f 7/15/15 8/16/16 14/18/18
f 4/20/20 3/19/19 15/23/23
f 11/21/21 12/22/22 16/24/24
f 16/32/32 6/29/29 4/25/25
f 16/32/32 12/26/26 14/31/31
f 10/30/30 6/29/29 16/32/32
f 16/32/32 14/31/31 10/30/30
f 10/30/30 14/31/31 8/28/28
f 2/27/27 6/29/29 10/30/30
f 24/40/40 17/33/33 21/37/37
f 24/40/40 23/39/39 18/34/34
f 22/38/38 24/40/40 21/37/37
f 24/40/40 22/38/38 23/39/39
f 22/38/38 20/36/36 23/39/39
f 19/35/35 22/38/38 21/37/37
f 25/42/42 20/41/41 22/45/45
f 19/43/43 7/44/44 26/46/46
f 27/48/48 18/47/47 23/51/51
f 20/49/49 25/50/50 28/52/52
f 11/54/54 17/53/53 24/57/57
f 18/55/55 27/56/56 29/58/58
f 29/66/66 13/63/63 11/59/59
f 29/66/66 27/60/60 28/65/65
f 26/64/64 13/63/63 29/66/66
f 29/66/66 28/65/65 26/64/64
f 26/64/64 28/65/65 25/62/62
f 7/61/61 13/63/63 26/64/64
f 34/74/74 30/67/67 32/72/72
f 34/74/74 21/71/71 17/68/68
f 21/71/71 34/74/74 32/72/72
f 21/71/71 32/72/72 33/73/73
f 31/69/69 33/73/73 32/72/72
f 1/76/76 31/75/75 32/80/80
f 30/77/77 3/78/78 5/79/79
f 7/82/82 19/81/81 33/86/86
f 31/83/83 1/84/84 9/85/85
f 3/88/88 30/87/87 34/92/92
f 17/89/89 11/90/90 15/91/91
f 2/2/2 5/5/5 6/6/6
f 3/3/3 6/6/6 5/5/5
f 8/8/8 9/11/11 10/12/12
f 1/9/9 10/12/12 9/11/11
f 12/14/14 13/17/17 14/18/18
f 7/15/15 14/18/18 13/17/17
f 4/20/20 15/23/23 16/24/24
f 11/21/21 16/24/24 15/23/23
f 25/42/42 22/45/45 26/46/46
f 19/43/43 26/46/46 22/45/45
f 27/48/48 23/51/51 28/52/52
f 20/49/49 28/52/52 23/51/51
f 11/54/54 24/57/57 29/58/58
f 18/55/55 29/58/58 24/57/57
f 21/71/71 33/73/73 19/70/70
f 1/76/76 32/80/80 5/79/79
f 30/77/77 5/79/79 32/80/80
f 7/82/82 33/86/86 9/85/85
f 31/83/83 9/85/85 33/86/86
f 3/88/88 34/92/92 15/91/91
f 17/89/89 15/91/91 34/92/92
