# Rhino

v 0.5 -0.10000038146972656 -0.5
v 0.5 0.10000038146972656 -0.5
v 0 -0.10000038146972656 -0.5
v 0 0.10000038146972656 -0.5
v 0.25 -0.10000038146972656 -0.5
v 0.25 0.10000038146972656 -0.5
v 0.049999237060546875 -0.10000038146972656 -0.44999998807907104
v 0.049999237060546875 0.10000038146972656 -0.44999998807907104
v 0.45000076293945313 -0.10000038146972656 -0.44999998807907104
v 0.45000076293945313 0.10000038146972656 -0.44999998807907104
v 0.25 -0.10000038146972656 -0.44999998807907104
v 0.25 0.10000038146972656 -0.44999998807907104
v 0.5 -0.10000038146972656 0
v 0.45000076293945313 -0.10000038146972656 0.5
v 0.45000076293945313 -0.10000038146972656 0.02500000037252903
v 0.049999237060546875 -0.10000038146972656 0.5
v 0.5 -0.10000038146972656 0.5
v 0 -0.10000038146972656 0.5
v 0 -0.10000038146972656 0
v 0.049999237060546875 -0.10000038146972656 0.02500000037252903
v 0.5 0.10000038146972656 0.5
v 0.5 0 0
v 0.5 0.10000038146972656 0
v 0.5 0 0.5
v 0.5 0.050001144409179688 0
v 0.5 0 0.25
v 0.5 0.050001144409179688 0.25
v 0.5 -0.049999237060546875 0
v 0.5 -0.049999237060546875 0.25
v 0 0.10000038146972656 0.5
v 0 0.10000038146972656 0
v 0 0 0
v 0 0 0.5
v 0 0 0.25
v 0 -0.049999237060546875 0
v 0 -0.049999237060546875 0.25
v 0 0.050001144409179688 0
v 0 0.050001144409179688 0.25
v 0.049999237060546875 0.10000038146972656 0.5
v 0.049999237060546875 0 0.02500000037252903
v 0.049999237060546875 0.10000038146972656 0.02500000037252903
v 0.049999237060546875 0 0.5
v 0.049999237060546875 0.050001144409179688 0.02500000037252903
v 0.049999237060546875 0 0.26249998807907104
v 0.049999237060546875 0.050001144409179688 0.26249998807907104
v 0.049999237060546875 -0.049999237060546875 0.02500000037252903
v 0.049999237060546875 -0.049999237060546875 0.26249998807907104
v 0.45000076293945313 0.10000038146972656 0.5
v 0.45000076293945313 0 0.02500000037252903
v 0.45000076293945313 0 0.5
v 0.45000076293945313 0 0.26249998807907104
v 0.45000076293945313 -0.049999237060546875 0.02500000037252903
v 0.45000076293945313 -0.049999237060546875 0.26249998807907104
v 0.45000076293945313 0.050001144409179688 0.02500000037252903
v 0.45000076293945313 0.050001144409179688 0.26249998807907104
v 0.45000076293945313 0.10000038146972656 0.02500000037252903
vt 0 0.11764705926179886
vt 0 0.23382927477359772
vt 0.29411765933036804 0.11764705926179886
vt 0.29411765933036804 0.23382927477359772
vt 0.14705882966518402 0.11764705926179886
vt 0.14705882966518402 0.23382927477359772
vt 0 0
vt 0 0.11618221551179886
vt 0.23529411852359772 0
vt 0.23529411852359772 0.11618221551179886
vt 0.11764705926179886 0
vt 0.11764705926179886 0.11618221551179886
vt 0.4117647111415863 0.93971163034439087
vt 0.70441752672195435 0.93971163034439087
vt 0.4117647111415863 0.64632642269134521
vt 0.55809110403060913 0.93971163034439087
vt 0.44102999567985535 0.35294118523597717
vt 0.44102999567985535 0.63165712356567383
vt 0.44102999567985535 0.91037309169769287
vt 0.55809110403060913 0.91037309169769287
vt 0.6751522421836853 0.91037309169769287
vt 0.6751522421836853 0.35294118523597717
vt 0.4117647111415863 0.35294118523597717
vt 0.70441752672195435 0.35294118523597717
vt 0.70441752672195435 0.64632642269134521
vt 0.6751522421836853 0.63165712356567383
vt 0.058823529630899429 0.35294118523597717
vt 0.17500574886798859 0.93971163034439087
vt 0.058823529630899429 0.93971163034439087
vt 0.17500574886798859 0.35294118523597717
vt 0.17500574886798859 0.64632642269134521
vt 0.11691463738679886 0.64632642269134521
vt 0.058823529630899429 0.64632642269134521
vt 0.11691463738679886 0.35294118523597717
vt 0.087869085371494293 0.64632642269134521
vt 0.11691463738679886 0.4996337890625
vt 0.087869085371494293 0.4996337890625
vt 0.14596019685268402 0.64632642269134521
vt 0.14596019685268402 0.4996337890625
vt 0 0.23529411852359772
vt 0 0.35147634148597717
vt 0.58823531866073608 0.35147634148597717
vt 0.29411765933036804 0.35147634148597717
vt 0.29411765933036804 0.29338523745536804
vt 0.58823531866073608 0.23529411852359772
vt 0.58823531866073608 0.29338523745536804
vt 0.44117647409439087 0.29338523745536804
vt 0.29411765933036804 0.26433968544006348
vt 0.44117647409439087 0.26433968544006348
vt 0.29411765933036804 0.32243078947067261
vt 0.44117647409439087 0.32243078947067261
vt 0.29411765933036804 0.23529411852359772
vt 0.29411765933036804 0.35294118523597717
vt 0.4102998673915863 0.91176468133926392
vt 0.29411765933036804 0.91176468133926392
vt 0.35220876336097717 0.63235294818878174
vt 0.29411765933036804 0.63235294818878174
vt 0.35220876336097717 0.35294118523597717
vt 0.32316321134567261 0.63235294818878174
vt 0.35220876336097717 0.49264705181121826
vt 0.32316321134567261 0.49264705181121826
vt 0.38125431537628174 0.63235294818878174
vt 0.38125431537628174 0.49264705181121826
vt 0.4102998673915863 0.35294118523597717
vt 0.4102998673915863 0.63235294818878174
vt 0.29265281558036804 0.35294118523597717
vt 0.17647059261798859 0.35294118523597717
vt 0.17647059261798859 0.91176468133926392
vt 0.29265281558036804 0.63235294818878174
vt 0.23456169664859772 0.63235294818878174
vt 0.29265281558036804 0.91176468133926392
vt 0.23456169664859772 0.91176468133926392
vt 0.23456169664859772 0.77205884456634521
vt 0.26360726356506348 0.63235294818878174
vt 0.26360726356506348 0.77205884456634521
vt 0.20551614463329315 0.63235294818878174
vt 0.20551614463329315 0.77205884456634521
vt 0.17647059261798859 0.63235294818878174
vt 0.70588237047195435 0
vt 0.70588237047195435 0.58823531866073608
vt 0.99853515625 0.58823531866073608
vt 0.70588237047195435 0.29411765933036804
vt 0.85220873355865479 0.58823531866073608
vt 0.73514765501022339 0.55882352590560913
vt 0.85220873355865479 0.55882352590560913
vt 0.96926987171173096 0.55882352590560913
vt 0.96926987171173096 0.27941176295280457
vt 0.96926987171173096 0
vt 0.99853515625 0
vt 0.99853515625 0.29411765933036804
vt 0.73514765501022339 0
vt 0.73514765501022339 0.27941176295280457
vt 0 0.35294118523597717
vt 0 0.47058823704719543
vt 0.027946921065449715 0.35294118523597717
vt 0.027946921065449715 0.47058823704719543
vt 0.027946921065449715 0.4117647111415863
vt 0 0.4117647111415863
vt 0.029411764815449715 0.35294118523597717
vt 0.029411764815449715 0.47058823704719543
vt 0.057358685880899429 0.35294118523597717
vt 0.057358685880899429 0.47058823704719543
vt 0.029411764815449715 0.4117647111415863
vt 0.057358685880899429 0.4117647111415863
vn 0 0 -1
vn 0 0 -1
vn 0 0 -1
vn 0 0 -1
vn 0 0 -1
vn 0 0 -1
vn 0 0 1
vn 0 0 1
vn 0 0 1
vn 0 0 1
vn 0 0 1
vn 0 0 1
vn 0 -1 0
vn 0 -1 0
vn 0 -1 0
vn 0 -1 0
vn 0 -1 0
vn 0 -1 0
vn 0 -1 0
vn 0 -1 0
vn 0 -1 0
vn 0 -1 0
vn 0 -1 0
vn 0 -1 0
vn 0 -1 0
vn 0 -1 0
vn 1 0 0
vn 1 0 0
vn 1 0 0
vn 1 0 0
vn 1 0 0
vn 1 0 0
vn 1 0 0
vn 1 0 0
vn 1 0 0
vn 1 0 0
vn 1 0 0
vn 1 0 0
vn 1 0 0
vn -1 0 0
vn -1 0 0
vn -1 0 0
vn -1 0 0
vn -1 0 0
vn -1 0 0
vn -1 0 0
vn -1 0 0
vn -1 0 0
vn -1 0 0
vn -1 0 0
vn -1 0 0
vn -1 0 0
vn 1 0 0
vn 1 0 0
vn 1 0 0
vn 1 0 0
vn 1 0 0
vn 1 0 0
vn 1 0 0
vn 1 0 0
vn 1 0 0
vn 1 0 0
vn 1 0 0
vn 1 0 0
vn 1 0 0
vn -1 0 0
vn -1 0 0
vn -1 0 0
vn -1 0 0
vn -1 0 0
vn -1 0 0
vn -1 0 0
vn -1 0 0
vn -1 0 0
vn -1 0 0
vn -1 0 0
vn -1 0 0
vn -1 0 0
vn 0 1 0
vn 0 1 0
vn 0 1 0
vn 0 1 0
vn 0 1 0
vn 0 1 0
vn 0 1 0
vn 0 1 0
vn 0 1 0
vn 0 1 0
vn 0 1 0
vn 0 1 0
vn 0 1 0
vn 0 1 0
vn 0 0 1
vn 0 0 1
vn 0 0 1
vn 0 0 1
vn 0 0 1
vn 0 0 1
vn 0 0 1
vn 0 0 1
vn 0 0 1
vn 0 0 1
vn 0 0 1
vn 0 0 1
f 2/2/2 1/1/1 5/5/5
f 3/3/3 4/4/4 6/6/6
f 8/8/8 7/7/7 11/11/11
f 9/9/9 10/10/10 12/12/12
f 14/17/17 15/18/18 17/23/23
f 1/13/13 13/15/15 9/19/19
f 1/13/13 9/19/19 5/16/16
f 5/16/16 9/19/19 11/20/20
f 20/26/26 16/22/22 18/24/24
f 5/16/16 7/21/21 3/14/14
f 19/25/25 3/14/14 7/21/21
f 11/20/20 7/21/21 5/16/16
f 25/35/35 27/37/37 26/36/36
f 22/32/32 26/36/36 29/39/39
f 24/34/34 17/30/30 29/39/39
f 13/31/31 29/39/39 17/30/30
f 26/36/36 24/34/34 29/39/39
f 21/27/27 24/34/34 27/37/37
f 26/36/36 27/37/37 24/34/34
f 23/33/33 21/27/27 27/37/37
f 28/38/38 13/31/31 1/28/28
f 22/32/32 28/38/38 1/28/28
f 2/29/29 25/35/35 22/32/32
f 25/35/35 2/29/29 23/33/33
f 2/29/29 22/32/32 1/28/28
f 28/38/38 29/39/39 13/31/31
f 38/51/51 37/50/50 32/44/44
f 34/47/47 32/44/44 35/48/48
f 35/48/48 3/40/40 19/52/52
f 36/49/49 35/48/48 19/52/52
f 32/44/44 3/40/40 35/48/48
f 37/50/50 4/41/41 32/44/44
f 3/40/40 32/44/44 4/41/41
f 31/43/43 4/41/41 37/50/50
f 33/46/46 34/47/47 36/49/49
f 19/52/52 18/45/45 36/49/49
f 18/45/45 33/46/46 36/49/49
f 30/42/42 31/43/43 38/51/51
f 31/43/43 37/50/50 38/51/51
f 38/51/51 33/46/46 30/42/42
f 38/51/51 34/47/47 33/46/46
f 43/59/59 45/61/61 44/60/60
f 40/56/56 44/60/60 47/63/63
f 42/58/58 16/64/64 47/63/63
f 20/65/65 47/63/63 16/64/64
f 44/60/60 42/58/58 47/63/63
f 39/53/53 42/58/58 45/61/61
f 44/60/60 45/61/61 42/58/58
f 41/57/57 39/53/53 45/61/61
f 46/62/62 20/65/65 7/54/54
f 40/56/56 46/62/62 7/54/54
f 41/57/57 45/61/61 43/59/59
f 41/57/57 43/59/59 8/55/55
f 40/56/56 8/55/55 43/59/59
f 8/55/55 40/56/56 7/54/54
f 46/62/62 47/63/63 20/65/65
f 55/77/77 54/76/76 49/70/70
f 51/73/73 49/70/70 52/74/74
f 52/74/74 9/66/66 15/69/69
f 53/75/75 52/74/74 15/69/69
f 49/70/70 9/66/66 52/74/74
f 54/76/76 56/78/78 10/67/67
f 9/66/66 49/70/70 10/67/67
f 49/70/70 54/76/76 10/67/67
f 50/72/72 51/73/73 53/75/75
f 15/69/69 14/71/71 53/75/75
f 14/71/71 50/72/72 53/75/75
f 48/68/68 56/78/78 55/77/77
f 50/72/72 48/68/68 55/77/77
f 48/91/91 21/79/79 56/92/92
f 2/80/80 10/84/84 23/82/82
f 2/80/80 6/83/83 10/84/84
f 6/83/83 12/85/85 10/84/84
f 41/87/87 31/90/90 30/89/89
f 6/83/83 4/81/81 8/86/86
f 31/90/90 41/87/87 8/86/86
f 12/85/85 6/83/83 8/86/86
f 42/98/98 39/93/93 30/95/95
f 16/94/94 42/98/98 33/97/97
f 24/103/103 21/99/99 48/101/101
f 17/100/100 24/103/103 50/104/104
f 2/2/2 5/5/5 6/6/6
f 3/3/3 6/6/6 5/5/5
f 8/8/8 11/11/11 12/12/12
f 9/9/9 12/12/12 11/11/11
f 15/18/18 13/15/15 17/23/23
f 13/15/15 15/18/18 9/19/19
f 20/26/26 18/24/24 19/25/25
f 19/25/25 7/21/21 20/26/26
f 25/35/35 26/36/36 22/32/32
f 22/32/32 29/39/39 28/38/38
f 23/33/33 27/37/37 25/35/35
f 38/51/51 32/44/44 34/47/47
f 34/47/47 35/48/48 36/49/49
f 43/59/59 44/60/60 40/56/56
f 40/56/56 47/63/63 46/62/62
f 55/77/77 49/70/70 51/73/73
f 51/73/73 52/74/74 53/75/75
f 56/78/78 54/76/76 55/77/77
f 50/72/72 55/77/77 51/73/73
f 21/79/79 23/82/82 56/92/92
f 10/84/84 56/92/92 23/82/82
f 41/87/87 30/89/89 39/88/88
f 31/90/90 8/86/86 4/81/81
f 42/98/98 30/95/95 33/97/97
f 16/94/94 33/97/97 18/96/96
f 24/103/103 48/101/101 50/104/104
f 17/100/100 50/104/104 14/102/102
v 0 -0.10000038146972656 -0.5
v 0 0.10000038146972656 -0.5
v -0.5 -0.10000038146972656 -0.5
v -0.5 0.10000038146972656 -0.5
v -0.25 -0.10000038146972656 -0.5
v -0.25 0.10000038146972656 -0.5
v -0.45000076293945313 -0.10000038146972656 -0.44999998807907104
v -0.45000076293945313 0.10000038146972656 -0.44999998807907104
v -0.049999237060546875 -0.10000038146972656 -0.44999998807907104
v -0.049999237060546875 0.10000038146972656 -0.44999998807907104
v -0.25 -0.10000038146972656 -0.44999998807907104
v -0.25 0.10000038146972656 -0.44999998807907104
v 0 -0.10000038146972656 0
v -0.049999237060546875 -0.10000038146972656 0.5
v -0.049999237060546875 -0.10000038146972656 0.02500000037252903
v -0.45000076293945313 -0.10000038146972656 0.5
v 0 -0.10000038146972656 0.5
v -0.5 -0.10000038146972656 0.5
v -0.5 -0.10000038146972656 0
v -0.45000076293945313 -0.10000038146972656 0.02500000037252903
v 0 0.10000038146972656 0.5
v 0 0 0
v 0 0.10000038146972656 0
v 0 0 0.5
v 0 0.050001144409179688 0
v 0 0 0.25
v 0 0.050001144409179688 0.25
v 0 -0.049999237060546875 0
v 0 -0.049999237060546875 0.25
v -0.5 0.10000038146972656 0.5
v -0.5 0.10000038146972656 0
v -0.5 0 0
v -0.5 0 0.5
v -0.5 0 0.25
v -0.5 -0.049999237060546875 0
v -0.5 -0.049999237060546875 0.25
v -0.5 0.050001144409179688 0
v -0.5 0.050001144409179688 0.25
v -0.45000076293945313 0.10000038146972656 0.5
v -0.45000076293945313 0 0.02500000037252903
v -0.45000076293945313 0.10000038146972656 0.02500000037252903
v -0.45000076293945313 0 0.5
v -0.45000076293945313 0.050001144409179688 0.02500000037252903
v -0.45000076293945313 0 0.26249998807907104
v -0.45000076293945313 0.050001144409179688 0.26249998807907104
v -0.45000076293945313 -0.049999237060546875 0.02500000037252903
v -0.45000076293945313 -0.049999237060546875 0.26249998807907104
v -0.049999237060546875 0.10000038146972656 0.5
v -0.049999237060546875 0 0.02500000037252903
v -0.049999237060546875 0 0.5
v -0.049999237060546875 0 0.26249998807907104
v -0.049999237060546875 -0.049999237060546875 0.02500000037252903
v -0.049999237060546875 -0.049999237060546875 0.26249998807907104
v -0.049999237060546875 0.050001144409179688 0.02500000037252903
v -0.049999237060546875 0.050001144409179688 0.26249998807907104
v -0.049999237060546875 0.10000038146972656 0.02500000037252903
vt 0 0.11764705926179886
vt 0 0.23382927477359772
vt 0.29411765933036804 0.11764705926179886
vt 0.29411765933036804 0.23382927477359772
vt 0.14705882966518402 0.11764705926179886
vt 0.14705882966518402 0.23382927477359772
vt 0 0
vt 0 0.11618221551179886
vt 0.23529411852359772 0
vt 0.23529411852359772 0.11618221551179886
vt 0.11764705926179886 0
vt 0.11764705926179886 0.11618221551179886
vt 0.4117647111415863 0.93971163034439087
vt 0.70441752672195435 0.93971163034439087
vt 0.4117647111415863 0.64632642269134521
vt 0.55809110403060913 0.93971163034439087
vt 0.44102999567985535 0.35294118523597717
vt 0.44102999567985535 0.63165712356567383
vt 0.44102999567985535 0.91037309169769287
vt 0.55809110403060913 0.91037309169769287
vt 0.6751522421836853 0.91037309169769287
vt 0.6751522421836853 0.35294118523597717
vt 0.4117647111415863 0.35294118523597717
vt 0.70441752672195435 0.35294118523597717
vt 0.70441752672195435 0.64632642269134521
vt 0.6751522421836853 0.63165712356567383
vt 0.058823529630899429 0.35294118523597717
vt 0.17500574886798859 0.93971163034439087
vt 0.058823529630899429 0.93971163034439087
vt 0.17500574886798859 0.35294118523597717
vt 0.17500574886798859 0.64632642269134521
vt 0.11691463738679886 0.64632642269134521
vt 0.058823529630899429 0.64632642269134521
vt 0.11691463738679886 0.35294118523597717
vt 0.087869085371494293 0.64632642269134521
vt 0.11691463738679886 0.4996337890625
vt 0.087869085371494293 0.4996337890625
vt 0.14596019685268402 0.64632642269134521
vt 0.14596019685268402 0.4996337890625
vt 0 0.23529411852359772
vt 0 0.35147634148597717
vt 0.58823531866073608 0.35147634148597717
vt 0.29411765933036804 0.35147634148597717
vt 0.29411765933036804 0.29338523745536804
vt 0.58823531866073608 0.23529411852359772
vt 0.58823531866073608 0.29338523745536804
vt 0.44117647409439087 0.29338523745536804
vt 0.29411765933036804 0.26433968544006348
vt 0.44117647409439087 0.26433968544006348
vt 0.29411765933036804 0.32243078947067261
vt 0.44117647409439087 0.32243078947067261
vt 0.29411765933036804 0.23529411852359772
vt 0.29411765933036804 0.35294118523597717
vt 0.4102998673915863 0.91176468133926392
vt 0.29411765933036804 0.91176468133926392
vt 0.35220876336097717 0.63235294818878174
vt 0.29411765933036804 0.63235294818878174
vt 0.35220876336097717 0.35294118523597717
vt 0.32316321134567261 0.63235294818878174
vt 0.35220876336097717 0.49264705181121826
vt 0.32316321134567261 0.49264705181121826
vt 0.38125431537628174 0.63235294818878174
vt 0.38125431537628174 0.49264705181121826
vt 0.4102998673915863 0.35294118523597717
vt 0.4102998673915863 0.63235294818878174
vt 0.29265281558036804 0.35294118523597717
vt 0.17647059261798859 0.35294118523597717
vt 0.17647059261798859 0.91176468133926392
vt 0.29265281558036804 0.63235294818878174
vt 0.23456169664859772 0.63235294818878174
vt 0.29265281558036804 0.91176468133926392
vt 0.23456169664859772 0.91176468133926392
vt 0.23456169664859772 0.77205884456634521
vt 0.26360726356506348 0.63235294818878174
vt 0.26360726356506348 0.77205884456634521
vt 0.20551614463329315 0.63235294818878174
vt 0.20551614463329315 0.77205884456634521
vt 0.17647059261798859 0.63235294818878174
vt 0.70588237047195435 0
vt 0.70588237047195435 0.58823531866073608
vt 0.99853515625 0.58823531866073608
vt 0.70588237047195435 0.29411765933036804
vt 0.85220873355865479 0.58823531866073608
vt 0.73514765501022339 0.55882352590560913
vt 0.85220873355865479 0.55882352590560913
vt 0.96926987171173096 0.55882352590560913
vt 0.96926987171173096 0.27941176295280457
vt 0.96926987171173096 0
vt 0.99853515625 0
vt 0.99853515625 0.29411765933036804
vt 0.73514765501022339 0
vt 0.73514765501022339 0.27941176295280457
vt 0 0.35294118523597717
vt 0 0.47058823704719543
vt 0.027946921065449715 0.35294118523597717
vt 0.027946921065449715 0.47058823704719543
vt 0.027946921065449715 0.4117647111415863
vt 0 0.4117647111415863
vt 0.029411764815449715 0.35294118523597717
vt 0.029411764815449715 0.47058823704719543
vt 0.057358685880899429 0.35294118523597717
vt 0.057358685880899429 0.47058823704719543
vt 0.029411764815449715 0.4117647111415863
vt 0.057358685880899429 0.4117647111415863
vn 0 0 -1
vn 0 0 -1
vn 0 0 -1
vn 0 0 -1
vn 0 0 -1
vn 0 0 -1
vn 0 0 1
vn 0 0 1
vn 0 0 1
vn 0 0 1
vn 0 0 1
vn 0 0 1
vn 0 -1 0
vn 0 -1 0
vn 0 -1 0
vn 0 -1 0
vn 0 -1 0
vn 0 -1 0
vn 0 -1 0
vn 0 -1 0
vn 0 -1 0
vn 0 -1 0
vn 0 -1 0
vn 0 -1 0
vn 0 -1 0
vn 0 -1 0
vn 1 0 0
vn 1 0 0
vn 1 0 0
vn 1 0 0
vn 1 0 0
vn 1 0 0
vn 1 0 0
vn 1 0 0
vn 1 0 0
vn 1 0 0
vn 1 0 0
vn 1 0 0
vn 1 0 0
vn -1 0 0
vn -1 0 0
vn -1 0 0
vn -1 0 0
vn -1 0 0
vn -1 0 0
vn -1 0 0
vn -1 0 0
vn -1 0 0
vn -1 0 0
vn -1 0 0
vn -1 0 0
vn -1 0 0
vn 1 0 0
vn 1 0 0
vn 1 0 0
vn 1 0 0
vn 1 0 0
vn 1 0 0
vn 1 0 0
vn 1 0 0
vn 1 0 0
vn 1 0 0
vn 1 0 0
vn 1 0 0
vn 1 0 0
vn -1 0 0
vn -1 0 0
vn -1 0 0
vn -1 0 0
vn -1 0 0
vn -1 0 0
vn -1 0 0
vn -1 0 0
vn -1 0 0
vn -1 0 0
vn -1 0 0
vn -1 0 0
vn -1 0 0
vn 0 1 0
vn 0 1 0
vn 0 1 0
vn 0 1 0
vn 0 1 0
vn 0 1 0
vn 0 1 0
vn 0 1 0
vn 0 1 0
vn 0 1 0
vn 0 1 0
vn 0 1 0
vn 0 1 0
vn 0 1 0
vn 0 0 1
vn 0 0 1
vn 0 0 1
vn 0 0 1
vn 0 0 1
vn 0 0 1
vn 0 0 1
vn 0 0 1
vn 0 0 1
vn 0 0 1
vn 0 0 1
vn 0 0 1
f 58/106/106 57/105/105 61/109/109
f 59/107/107 60/108/108 62/110/110
f 64/112/112 63/111/111 67/115/115
f 65/113/113 66/114/114 68/116/116
f 70/121/121 71/122/122 73/127/127
f 57/117/117 69/119/119 65/123/123
f 57/117/117 65/123/123 61/120/120
f 61/120/120 65/123/123 67/124/124
f 76/130/130 72/126/126 74/128/128
f 61/120/120 63/125/125 59/118/118
f 75/129/129 59/118/118 63/125/125
f 67/124/124 63/125/125 61/120/120
f 81/139/139 83/141/141 82/140/140
f 78/136/136 82/140/140 84/142/142
f 80/138/138 73/134/134 85/143/143
f 69/135/135 85/143/143 73/134/134
f 82/140/140 80/138/138 85/143/143
f 77/131/131 80/138/138 83/141/141
f 82/140/140 83/141/141 80/138/138
f 79/137/137 77/131/131 83/141/141
f 84/142/142 69/135/135 57/132/132
f 78/136/136 84/142/142 57/132/132
f 58/133/133 81/139/139 78/136/136
f 81/139/139 58/133/133 79/137/137
f 58/133/133 78/136/136 57/132/132
f 84/142/142 85/143/143 69/135/135
f 94/155/155 93/154/154 90/151/151
f 90/151/151 88/148/148 91/152/152
f 91/152/152 59/144/144 75/156/156
f 92/153/153 91/152/152 75/156/156
f 88/148/148 59/144/144 91/152/152
f 93/154/154 60/145/145 88/148/148
f 59/144/144 88/148/148 60/145/145
f 87/147/147 60/145/145 93/154/154
f 89/150/150 90/151/151 92/153/153
f 75/156/156 74/149/149 92/153/153
f 74/149/149 89/150/150 92/153/153
f 86/146/146 87/147/147 94/155/155
f 87/147/147 93/154/154 94/155/155
f 94/155/155 89/150/150 86/146/146
f 94/155/155 90/151/151 89/150/150
f 99/163/163 101/165/165 100/164/164
f 96/160/160 100/164/164 103/167/167
f 98/162/162 72/168/168 103/167/167
f 76/169/169 103/167/167 72/168/168
f 100/164/164 98/162/162 103/167/167
f 95/157/157 98/162/162 101/165/165
f 100/164/164 101/165/165 98/162/162
f 97/161/161 95/157/157 101/165/165
f 102/166/166 76/169/169 63/158/158
f 96/160/160 102/166/166 63/158/158
f 97/161/161 101/165/165 99/163/163
f 97/161/161 99/163/163 64/159/159
f 96/160/160 64/159/159 99/163/163
f 64/159/159 96/160/160 63/158/158
f 102/166/166 103/167/167 76/169/169
f 111/181/181 110/180/180 105/174/174
f 107/177/177 105/174/174 108/178/178
f 108/178/178 65/170/170 71/173/173
f 109/179/179 108/178/178 71/173/173
f 105/174/174 65/170/170 108/178/178
f 110/180/180 112/182/182 66/171/171
f 65/170/170 105/174/174 66/171/171
f 105/174/174 110/180/180 66/171/171
f 106/176/176 107/177/177 109/179/179
f 71/173/173 70/175/175 109/179/179
f 70/175/175 106/176/176 109/179/179
f 104/172/172 112/182/182 111/181/181
f 111/181/181 106/176/176 104/172/172
f 111/181/181 107/177/177 106/176/176
f 104/195/195 77/183/183 112/196/196
f 58/184/184 66/188/188 79/186/186
f 58/184/184 62/187/187 66/188/188
f 62/187/187 68/189/189 66/188/188
f 97/191/191 87/194/194 86/193/193
f 62/187/187 60/185/185 64/190/190
f 87/194/194 97/191/191 64/190/190
f 68/189/189 62/187/187 64/190/190
f 98/202/202 95/197/197 86/199/199
f 72/198/198 98/202/202 89/201/201
f 80/207/207 77/203/203 104/205/205
f 73/204/204 80/207/207 106/208/208
f 58/106/106 61/109/109 62/110/110
f 59/107/107 62/110/110 61/109/109
f 64/112/112 67/115/115 68/116/116
f 65/113/113 68/116/116 67/115/115
f 71/122/122 69/119/119 73/127/127
f 69/119/119 71/122/122 65/123/123
f 76/130/130 74/128/128 75/129/129
f 75/129/129 63/125/125 76/130/130
f 81/139/139 82/140/140 78/136/136
f 82/140/140 85/143/143 84/142/142
f 79/137/137 83/141/141 81/139/139
f 93/154/154 88/148/148 90/151/151
f 90/151/151 91/152/152 92/153/153
f 99/163/163 100/164/164 96/160/160
f 96/160/160 103/167/167 102/166/166
f 111/181/181 105/174/174 107/177/177
f 107/177/177 108/178/178 109/179/179
f 112/182/182 110/180/180 111/181/181
f 77/183/183 79/186/186 112/196/196
f 66/188/188 112/196/196 79/186/186
f 97/191/191 86/193/193 95/192/192
f 87/194/194 64/190/190 60/185/185
f 98/202/202 86/199/199 89/201/201
f 72/198/198 89/201/201 74/200/200
f 80/207/207 104/205/205 106/208/208
f 73/204/204 106/208/208 70/206/206
