# Rhino

v 0.5 0.099999904632568359 0.5
v 0.5 0.099999904632568359 0.43999999761581421
v -0.5 0.099999904632568359 0.5
v -0.5 0.099999904632568359 0.43999999761581421
v 0.25 0.099999904632568359 0.5
v 0 0.099999904632568359 0.5
v -0.25 0.099999904632568359 0.5
v -0.25 0.099999904632568359 0.43999999761581421
v 0 0.099999904632568359 0.43999999761581421
v 0.25 0.099999904632568359 0.43999999761581421
v -0.5 0.20000004768371582 0.5
v 0 0.20000004768371582 0.5
v 0.5 0.20000004768371582 0.5
v 0.5 0.15000009536743164 0.5
v 0.25 0.20000004768371582 0.5
v 0.25 0.15000009536743164 0.5
v 0.375 0.15000009536743164 0.5
v 0.25 0.125 0.5
v 0.375 0.125 0.5
v 0.25 0.17499995231628418 0.5
v 0.375 0.17499995231628418 0.5
v -0.25 0.20000004768371582 0.5
v -0.5 0.15000009536743164 0.5
v -0.25 0.15000009536743164 0.5
v -0.25 0.17499995231628418 0.5
v -0.375 0.15000009536743164 0.5
v -0.375 0.17499995231628418 0.5
v -0.25 0.125 0.5
v -0.375 0.125 0.5
v -0.5 0.20000004768371582 0.43999999761581421
v -0.5 0.15000009536743164 0.43999999761581421
v 0.5 0.20000004768371582 0.43999999761581421
v 0 0.20000004768371582 0.43999999761581421
v -0.25 0.20000004768371582 0.43999999761581421
v -0.25 0.15000009536743164 0.43999999761581421
v -0.375 0.15000009536743164 0.43999999761581421
v -0.25 0.125 0.43999999761581421
v -0.375 0.125 0.43999999761581421
v -0.25 0.17499995231628418 0.43999999761581421
v -0.375 0.17499995231628418 0.43999999761581421
v 0.25 0.20000004768371582 0.43999999761581421
v 0.5 0.15000009536743164 0.43999999761581421
v 0.25 0.15000009536743164 0.43999999761581421
v 0.25 0.17499995231628418 0.43999999761581421
v 0.375 0.15000009536743164 0.43999999761581421
v 0.375 0.17499995231628418 0.43999999761581421
v 0.25 0.125 0.43999999761581421
v 0.375 0.125 0.43999999761581421
vt 0.090909093618392944 0.45454546809196472
vt 0.090909093618392944 0.50909090042114258
vt 0.99853515625 0.45454546809196472
vt 0.99853515625 0.50909090042114258
vt 0.31781560182571411 0.45454546809196472
vt 0.54472213983535767 0.45454546809196472
vt 0.77162861824035645 0.45454546809196472
vt 0.77162861824035645 0.50909090042114258
vt 0.54472213983535767 0.50909090042114258
vt 0.31781560182571411 0.50909090042114258
vt 0.090909093618392944 0.625
vt 0.090909093618392944 0.71590906381607056
vt 0.54472213983535767 0.625
vt 0.54472213983535767 0.71590906381607056
vt 0.99853515625 0.625
vt 0.99853515625 0.71590906381607056
vt 0.31781560182571411 0.625
vt 0.77162861824035645 0.625
vt 0.99853515625 0.67045456171035767
vt 0.77162861824035645 0.71590906381607056
vt 0.77162861824035645 0.67045456171035767
vt 0.88508188724517822 0.67045456171035767
vt 0.77162861824035645 0.64772725105285645
vt 0.88508188724517822 0.64772725105285645
vt 0.77162861824035645 0.69318181276321411
vt 0.88508188724517822 0.69318181276321411
vt 0.31781560182571411 0.71590906381607056
vt 0.090909093618392944 0.67045456171035767
vt 0.31781560182571411 0.67045456171035767
vt 0.31781560182571411 0.69318181276321411
vt 0.20436234772205353 0.67045456171035767
vt 0.20436234772205353 0.69318181276321411
vt 0.31781560182571411 0.64772725105285645
vt 0.20436234772205353 0.64772725105285645
vt 0.54545456171035767 0
vt 0.54545456171035767 0.090909093618392944
vt 0.60000002384185791 0
vt 0.60000002384185791 0.090909093618392944
vt 0.60000002384185791 0.045454546809196472
vt 0.54545456171035767 0.045454546809196472
vt 0.089444249868392944 0
vt 0 0
vt 0.089444249868392944 0.45381304621696472
vt 0 0.45381304621696472
vt 0.089444249868392944 0.90762609243392944
vt 0 0.90762609243392944
vt 0.089444249868392944 0.22690652310848236
vt 0.089444249868392944 0.68071955442428589
vt 0.044722124934196472 0.90762609243392944
vt 0 0.68071955442428589
vt 0.044722124934196472 0.68071955442428589
vt 0.044722124934196472 0.79417282342910767
vt 0.067083187401294708 0.68071955442428589
vt 0.067083187401294708 0.79417282342910767
vt 0.022361062467098236 0.68071955442428589
vt 0.022361062467098236 0.79417282342910767
vt 0 0.22690652310848236
vt 0.044722124934196472 0
vt 0.044722124934196472 0.22690652310848236
vt 0.022361062467098236 0.22690652310848236
vt 0.044722124934196472 0.11345326155424118
vt 0.022361062467098236 0.11345326155424118
vt 0.067083187401294708 0.22690652310848236
vt 0.067083187401294708 0.11345326155424118
vt 0.090909093618392944 0
vt 0.090909093618392944 0.090909093618392944
vt 0.14545454084873199 0
vt 0.14545454084873199 0.090909093618392944
vt 0.090909093618392944 0.045454546809196472
vt 0.14545454084873199 0.045454546809196472
vt 0.090909093618392944 0.28409090638160706
vt 0.090909093618392944 0.3386363685131073
vt 0.99853515625 0.28409090638160706
vt 0.99853515625 0.3386363685131073
vt 0.31781560182571411 0.28409090638160706
vt 0.54472213983535767 0.28409090638160706
vt 0.77162861824035645 0.28409090638160706
vt 0.77162861824035645 0.3386363685131073
vt 0.54472213983535767 0.3386363685131073
vt 0.31781560182571411 0.3386363685131073
vn 0 -1 0
vn 0 -1 0
vn 0 -1 0
vn 0 -1 0
vn 0 -1 0
vn 0 -1 0
vn 0 -1 0
vn 0 -1 0
vn 0 -1 0
vn 0 -1 0
vn 0 0 1
vn 0 0 1
vn 0 0 1
vn 0 0 1
vn 0 0 1
vn 0 0 1
vn 0 0 1
vn 0 0 1
vn 0 0 1
vn 0 0 1
vn 0 0 1
vn 0 0 1
vn 0 0 1
vn 0 0 1
vn 0 0 1
vn 0 0 1
vn 0 0 1
vn 0 0 1
vn 0 0 1
vn 0 0 1
vn 0 0 1
vn 0 0 1
vn 0 0 1
vn 0 0 1
vn -1 0 0
vn -1 0 0
vn -1 0 0
vn -1 0 0
vn -1 0 0
vn -1 0 0
vn 0 0 -1
vn 0 0 -1
vn 0 0 -1
vn 0 0 -1
vn 0 0 -1
vn 0 0 -1
vn 0 0 -1
vn 0 0 -1
vn 0 0 -1
vn 0 0 -1
vn 0 0 -1
vn 0 0 -1
vn 0 0 -1
vn 0 0 -1
vn 0 0 -1
vn 0 0 -1
vn 0 0 -1
vn 0 0 -1
vn 0 0 -1
vn 0 0 -1
vn 0 0 -1
vn 0 0 -1
vn 0 0 -1
vn 0 0 -1
vn 1 0 0
vn 1 0 0
vn 1 0 0
vn 1 0 0
vn 1 0 0
vn 1 0 0
vn 0 1 0
vn 0 1 0
vn 0 1 0
vn 0 1 0
vn 0 1 0
vn 0 1 0
vn 0 1 0
vn 0 1 0
vn 0 1 0
vn 0 1 0
f 5/5/5 10/10/10 2/2/2
f 10/10/10 5/5/5 6/6/6
f 3/3/3 4/4/4 8/8/8
f 7/7/7 8/8/8 9/9/9
f 25/30/30 27/32/32 26/31/31
f 24/29/29 26/31/31 29/34/34
f 21/26/26 20/25/25 16/21/21
f 17/22/22 16/21/21 18/23/23
f 23/28/28 3/11/11 29/34/34
f 7/17/17 29/34/34 3/11/11
f 29/34/34 26/31/31 23/28/28
f 28/33/33 7/17/17 6/13/13
f 24/29/29 28/33/33 6/13/13
f 29/34/34 7/17/17 28/33/33
f 11/12/12 23/28/28 27/32/32
f 26/31/31 27/32/32 23/28/28
f 22/27/27 11/12/12 27/32/32
f 24/29/29 12/14/14 25/30/30
f 25/30/30 12/14/14 22/27/27
f 27/32/32 25/30/30 22/27/27
f 6/13/13 16/21/21 24/29/29
f 18/23/23 16/21/21 6/13/13
f 19/24/24 18/23/23 5/18/18
f 24/29/29 16/21/21 12/14/14
f 14/19/19 17/22/22 19/24/24
f 5/18/18 1/15/15 19/24/24
f 1/15/15 14/19/19 19/24/24
f 15/20/20 12/14/14 20/25/25
f 16/21/21 20/25/25 12/14/14
f 21/26/26 15/20/20 20/25/25
f 13/16/16 21/26/26 14/19/19
f 15/20/20 21/26/26 13/16/16
f 21/26/26 17/22/22 14/19/19
f 5/18/18 18/23/23 6/13/13
f 31/40/40 4/35/35 3/37/37
f 30/36/36 31/40/40 23/39/39
f 44/60/60 46/62/62 45/61/61
f 43/59/59 45/61/61 48/64/64
f 40/56/56 39/55/55 35/51/51
f 36/52/52 35/51/51 37/53/53
f 42/58/58 2/41/41 48/64/64
f 10/47/47 48/64/64 2/41/41
f 48/64/64 45/61/61 42/58/58
f 47/63/63 10/47/47 9/43/43
f 43/59/59 47/63/63 9/43/43
f 48/64/64 10/47/47 47/63/63
f 32/42/42 42/58/58 46/62/62
f 45/61/61 46/62/62 42/58/58
f 41/57/57 32/42/42 46/62/62
f 43/59/59 33/44/44 44/60/60
f 44/60/60 33/44/44 41/57/57
f 46/62/62 44/60/60 41/57/57
f 9/43/43 35/51/51 43/59/59
f 37/53/53 35/51/51 9/43/43
f 38/54/54 37/53/53 8/48/48
f 43/59/59 35/51/51 33/44/44
f 31/49/49 36/52/52 38/54/54
f 8/48/48 4/45/45 38/54/54
f 4/45/45 31/49/49 38/54/54
f 34/50/50 33/44/44 39/55/55
f 35/51/51 39/55/55 33/44/44
f 40/56/56 34/50/50 39/55/55
f 30/46/46 40/56/56 31/49/49
f 34/50/50 40/56/56 30/46/46
f 40/56/56 36/52/52 31/49/49
f 8/48/48 37/53/53 9/43/43
f 14/69/69 1/65/65 2/67/67
f 13/66/66 14/69/69 42/70/70
f 15/75/75 13/71/71 32/72/72
f 41/80/80 33/79/79 12/76/76
f 11/73/73 22/77/77 34/78/78
f 22/77/77 12/76/76 33/79/79
f 5/5/5 2/2/2 1/1/1
f 10/10/10 6/6/6 9/9/9
f 3/3/3 8/8/8 7/7/7
f 7/7/7 9/9/9 6/6/6
f 25/30/30 26/31/31 24/29/29
f 24/29/29 29/34/34 28/33/33
f 21/26/26 16/21/21 17/22/22
f 17/22/22 18/23/23 19/24/24
f 31/40/40 3/37/37 23/39/39
f 30/36/36 23/39/39 11/38/38
f 44/60/60 45/61/61 43/59/59
f 43/59/59 48/64/64 47/63/63
f 40/56/56 35/51/51 36/52/52
f 36/52/52 37/53/53 38/54/54
f 14/69/69 2/67/67 42/70/70
f 13/66/66 42/70/70 32/68/68
f 15/75/75 32/72/72 41/80/80
f 41/80/80 12/76/76 15/75/75
f 11/73/73 34/78/78 30/74/74
f 22/77/77 33/79/79 34/78/78
v 0.5 0.04999995231628418 0.5
v 0.16666698455810547 0.04999995231628418 0.5
v -0.16666698455810547 0.04999995231628418 0.5
v -0.5 0.04999995231628418 0.5
v -0.5 0.04999995231628418 0.1666666716337204
v -0.5 0.04999995231628418 -0.1666666716337204
v -0.5 0.04999995231628418 -0.5
v -0.43999958038330078 0.04999995231628418 -0.5
v -0.43999958038330078 0.04999995231628418 -0.18666666746139526
v -0.43999958038330078 0.04999995231628418 0.12666666507720947
v -0.43999958038330078 0.04999995231628418 0.43999999761581421
v -0.12666702270507813 0.04999995231628418 0.43999999761581421
v 0.18666648864746094 0.04999995231628418 0.43999999761581421
v 0.5 0.04999995231628418 0.43999999761581421
v -0.5 -0.04999995231628418 0.5
v 0.5 -0.04999995231628418 0.5
v 0.5 0 0.5
v 0.25 0 0.5
v 0.375 0 0.5
v 0.25 0.025000095367431641 0.5
v 0.375 0.025000095367431641 0.5
v 0.25 -0.025000095367431641 0.5
v 0.375 -0.025000095367431641 0.5
v 0.16666698455810547 -0.04999995231628418 0.5
v -0.16666698455810547 -0.04999995231628418 0.5
v -0.5 -0.04999995231628418 -0.5
v -0.5 -0.04999995231628418 0.1666666716337204
v -0.5 -0.04999995231628418 -0.1666666716337204
v -0.5 0 -0.5
v -0.5 0 -0.25
v -0.5 -0.025000095367431641 -0.25
v -0.5 0 -0.375
v -0.5 -0.025000095367431641 -0.375
v -0.5 0.025000095367431641 -0.25
v -0.5 0.025000095367431641 -0.375
v -0.43999958038330078 -0.04999995231628418 -0.5
v -0.43999958038330078 0 -0.5
v -0.43999958038330078 -0.04999995231628418 0.43999999761581421
v -0.43999958038330078 0 -0.26499998569488525
v -0.43999958038330078 0 -0.38249999284744263
v -0.43999958038330078 0.025000095367431641 -0.26499998569488525
v -0.43999958038330078 0.025000095367431641 -0.38249999284744263
v -0.43999958038330078 -0.025000095367431641 -0.26499998569488525
v -0.43999958038330078 -0.025000095367431641 -0.38249999284744263
v -0.43999958038330078 -0.04999995231628418 -0.18666666746139526
v -0.43999958038330078 -0.04999995231628418 0.12666666507720947
v 0.5 -0.04999995231628418 0.43999999761581421
v -0.12666702270507813 -0.04999995231628418 0.43999999761581421
v 0.18666648864746094 -0.04999995231628418 0.43999999761581421
v 0.5 0 0.43999999761581421
v 0.26500034332275391 0 0.43999999761581421
v 0.26500034332275391 -0.025000095367431641 0.43999999761581421
v 0.38249969482421875 0 0.43999999761581421
v 0.38249969482421875 -0.025000095367431641 0.43999999761581421
v 0.26500034332275391 0.025000095367431641 0.43999999761581421
v 0.38249969482421875 0.025000095367431641 0.43999999761581421
vt 0.50488764047622681 0.73874557018280029
vt 0.50488764047622681 0.57582563161849976
vt 0.50488764047622681 0.41290563344955444
vt 0.50488764047622681 0.24998563528060913
vt 0.66780757904052734 0.24998563528060913
vt 0.83072757720947266 0.24998563528060913
vt 0.99364757537841797 0.24998563528060913
vt 0.99364757537841797 0.27931123971939087
vt 0.84050273895263672 0.27931123971939087
vt 0.68735796213150024 0.27931123971939087
vt 0.53421318531036377 0.27931123971939087
vt 0.53421318531036377 0.43245601654052734
vt 0.53421318531036377 0.58560079336166382
vt 0.53421318531036377 0.73874557018280029
vt 0.5 0.19607843458652496
vt 0.5 0.24363319575786591
vt 0.99019604921340942 0.19607843458652496
vt 0.99019604921340942 0.24363319575786591
vt 0.66339868307113647 0.19607843458652496
vt 0.82679736614227295 0.19607843458652496
vt 0.99019604921340942 0.21985581517219543
vt 0.86764705181121826 0.21985581517219543
vt 0.92892158031463623 0.21985581517219543
vt 0.86764705181121826 0.2079671174287796
vt 0.92892158031463623 0.2079671174287796
vt 0.86764705181121826 0.23174449801445007
vt 0.92892158031463623 0.23174449801445007
vt 0.82679736614227295 0.24363319575786591
vt 0.66339868307113647 0.24363319575786591
vt 0.5 0.14705882966518402
vt 0.5 0.19461359083652496
vt 0.99019604921340942 0.14705882966518402
vt 0.99019604921340942 0.19461359083652496
vt 0.66339868307113647 0.14705882966518402
vt 0.82679736614227295 0.14705882966518402
vt 0.82679736614227295 0.19461359083652496
vt 0.66339868307113647 0.19461359083652496
vt 0.5 0.17083621025085449
vt 0.62254899740219116 0.17083621025085449
vt 0.62254899740219116 0.18272489309310913
vt 0.56127452850341797 0.17083621025085449
vt 0.56127452850341797 0.18272489309310913
vt 0.62254899740219116 0.15894751250743866
vt 0.56127452850341797 0.15894751250743866
vt 0.75 0
vt 0.75 0.047554764896631241
vt 0.77941179275512695 0
vt 0.77941179275512695 0.047554764896631241
vt 0.77941179275512695 0.02377738244831562
vt 0.75 0.02377738244831562
vt 0.5 0.098039217293262482
vt 0.5 0.14559398591518402
vt 0.96078431606292725 0.098039217293262482
vt 0.96078431606292725 0.14559398591518402
vt 0.65359479188919067 0.098039217293262482
vt 0.80718952417373657 0.098039217293262482
vt 0.96078431606292725 0.12181659787893295
vt 0.84558820724487305 0.12181659787893295
vt 0.90318626165390015 0.12181659787893295
vt 0.84558820724487305 0.10992790758609772
vt 0.90318626165390015 0.10992790758609772
vt 0.84558820724487305 0.13370528817176819
vt 0.90318626165390015 0.13370528817176819
vt 0.80718952417373657 0.14559398591518402
vt 0.65359479188919067 0.14559398591518402
vt 0.5 0.049019608646631241
vt 0.5 0.096574373543262482
vt 0.96078431606292725 0.049019608646631241
vt 0.96078431606292725 0.096574373543262482
vt 0.65359479188919067 0.049019608646631241
vt 0.80718952417373657 0.049019608646631241
vt 0.80718952417373657 0.096574373543262482
vt 0.65359479188919067 0.096574373543262482
vt 0.5 0.07279699295759201
vt 0.61519604921340942 0.07279699295759201
vt 0.61519604921340942 0.084685683250427246
vt 0.5575980544090271 0.07279699295759201
vt 0.5575980544090271 0.084685683250427246
vt 0.61519604921340942 0.060908298939466476
vt 0.5575980544090271 0.060908298939466476
vt 0.5 0
vt 0.5 0.047554764896631241
vt 0.52941179275512695 0
vt 0.52941179275512695 0.047554764896631241
vt 0.5 0.02377738244831562
vt 0.52941179275512695 0.02377738244831562
vt 0.49364754557609558 0.49509802460670471
vt 0.33072757720947266 0.49509802460670471
vt 0.16780759394168854 0.49509802460670471
vt 0.0048875999636948109 0.49509802460670471
vt 0.0048875999636948109 0.33169934153556824
vt 0.0048875999636948109 0.16830065846443176
vt 0.0048875999636948109 0.0049019609577953815
vt 0.034213200211524963 0.0049019609577953815
vt 0.034213200211524963 0.15849673748016357
vt 0.034213200211524963 0.31209149956703186
vt 0.034213200211524963 0.46568626165390015
vt 0.18735799193382263 0.46568626165390015
vt 0.34050276875495911 0.46568626165390015
vt 0.49364754557609558 0.46568626165390015
vn 0 1 0
vn 0 1 0
vn 0 1 0
vn 0 1 0
vn 0 1 0
vn 0 1 0
vn 0 1 0
vn 0 1 0
vn 0 1 0
vn 0 1 0
vn 0 1 0
vn 0 1 0
vn 0 1 0
vn 0 1 0
vn 0 0 1
vn 0 0 1
vn 0 0 1
vn 0 0 1
vn 0 0 1
vn 0 0 1
vn 0 0 1
vn 0 0 1
vn 0 0 1
vn 0 0 1
vn 0 0 1
vn 0 0 1
vn 0 0 1
vn 0 0 1
vn 0 0 1
vn -1 0 0
vn -1 0 0
vn -1 0 0
vn -1 0 0
vn -1 0 0
vn -1 0 0
vn -1 0 0
vn -1 0 0
vn -1 0 0
vn -1 0 0
vn -1 0 0
vn -1 0 0
vn -1 0 0
vn -1 0 0
vn -1 0 0
vn 0 0 -1
vn 0 0 -1
vn 0 0 -1
vn 0 0 -1
vn 0 0 -1
vn 0 0 -1
vn 1 0 0
vn 1 0 0
vn 1 0 0
vn 1 0 0
vn 1 0 0
vn 1 0 0
vn 1 0 0
vn 1 0 0
vn 1 0 0
vn 1 0 0
vn 1 0 0
vn 1 0 0
vn 1 0 0
vn 1 0 0
vn 1 0 0
vn 0 0 -1
vn 0 0 -1
vn 0 0 -1
vn 0 0 -1
vn 0 0 -1
vn 0 0 -1
vn 0 0 -1
vn 0 0 -1
vn 0 0 -1
vn 0 0 -1
vn 0 0 -1
vn 0 0 -1
vn 0 0 -1
vn 0 0 -1
vn 0 0 -1
vn 1 0 0
vn 1 0 0
vn 1 0 0
vn 1 0 0
vn 1 0 0
vn 1 0 0
vn 0 -1 0
vn 0 -1 0
vn 0 -1 0
vn 0 -1 0
vn 0 -1 0
vn 0 -1 0
vn 0 -1 0
vn 0 -1 0
vn 0 -1 0
vn 0 -1 0
vn 0 -1 0
vn 0 -1 0
vn 0 -1 0
vn 0 -1 0
f 56/88/88 55/87/87 57/89/89
f 53/85/85 58/90/90 54/86/86
f 58/90/90 53/85/85 59/91/91
f 60/92/92 59/91/91 51/83/83
f 61/93/93 60/92/92 50/82/82
f 50/82/82 60/92/92 51/83/83
f 61/93/93 50/82/82 49/81/81
f 61/93/93 49/81/81 62/94/94
f 52/84/84 51/83/83 59/91/91
f 71/107/107 67/103/103 66/102/102
f 67/103/103 69/105/105 68/104/104
f 51/99/99 52/95/95 63/96/96
f 50/100/100 51/99/99 66/102/102
f 66/102/102 68/104/104 50/100/100
f 72/108/108 66/102/102 73/109/109
f 66/102/102 51/99/99 73/109/109
f 68/104/104 69/105/105 50/100/100
f 69/105/105 65/101/101 49/97/97
f 49/97/97 50/100/100 69/105/105
f 65/101/101 69/105/105 67/103/103
f 64/98/98 71/107/107 72/108/108
f 65/101/101 67/103/103 71/107/107
f 71/107/107 64/98/98 65/101/101
f 72/108/108 70/106/106 66/102/102
f 79/120/120 78/119/119 80/121/121
f 78/119/119 82/123/123 83/124/124
f 82/123/123 54/114/114 83/124/124
f 55/110/110 83/124/124 54/114/114
f 77/118/118 83/124/124 55/110/110
f 74/111/111 81/122/122 77/118/118
f 80/121/121 83/124/124 77/118/118
f 76/117/117 79/120/120 81/122/122
f 53/115/115 54/114/114 78/119/119
f 82/123/123 78/119/119 54/114/114
f 75/116/116 53/115/115 78/119/119
f 52/112/112 53/115/115 75/116/116
f 76/117/117 78/119/119 79/120/120
f 75/116/116 78/119/119 76/117/117
f 85/130/130 77/129/129 55/127/127
f 84/126/126 74/128/128 77/129/129
f 92/143/143 88/139/139 87/138/138
f 88/139/139 90/141/141 89/140/140
f 58/135/135 59/131/131 86/132/132
f 57/136/136 58/135/135 87/138/138
f 87/138/138 89/140/140 57/136/136
f 93/144/144 87/138/138 94/145/145
f 87/138/138 58/135/135 94/145/145
f 89/140/140 90/141/141 57/136/136
f 90/141/141 85/137/137 56/133/133
f 56/133/133 57/136/136 90/141/141
f 85/137/137 90/141/141 88/139/139
f 84/134/134 92/143/143 93/144/144
f 85/137/137 88/139/139 92/143/143
f 92/143/143 84/134/134 85/137/137
f 93/144/144 91/142/142 87/138/138
f 100/156/156 99/155/155 101/157/157
f 99/155/155 103/159/159 104/160/160
f 103/159/159 61/150/150 104/160/160
f 62/146/146 104/160/160 61/150/150
f 98/154/154 104/160/160 62/146/146
f 95/147/147 102/158/158 98/154/154
f 101/157/157 104/160/160 98/154/154
f 97/153/153 100/156/156 102/158/158
f 60/151/151 61/150/150 99/155/155
f 103/159/159 99/155/155 61/150/150
f 96/152/152 60/151/151 99/155/155
f 60/151/151 96/152/152 86/149/149
f 97/153/153 99/155/155 100/156/156
f 96/152/152 99/155/155 97/153/153
f 65/165/165 98/166/166 62/163/163
f 64/162/162 95/164/164 98/166/166
f 84/174/174 93/175/175 74/173/173
f 75/171/171 76/172/172 94/176/176
f 94/176/176 86/177/177 75/171/171
f 96/178/178 73/169/169 86/177/177
f 97/179/179 72/168/168 96/178/178
f 72/168/168 73/169/169 96/178/178
f 97/179/179 64/167/167 72/168/168
f 97/179/179 95/180/180 64/167/167
f 63/170/170 86/177/177 73/169/169
f 55/87/87 54/86/86 57/89/89
f 58/90/90 57/89/89 54/86/86
f 53/85/85 52/84/84 59/91/91
f 71/107/107 66/102/102 70/106/106
f 67/103/103 68/104/104 66/102/102
f 51/99/99 63/96/96 73/109/109
f 71/107/107 70/106/106 72/108/108
f 79/120/120 80/121/121 81/122/122
f 78/119/119 83/124/124 80/121/121
f 81/122/122 80/121/121 77/118/118
f 76/117/117 81/122/122 74/111/111
f 52/112/112 75/116/116 63/113/113
f 85/130/130 55/127/127 56/125/125
f 84/126/126 77/129/129 85/130/130
f 92/143/143 87/138/138 91/142/142
f 88/139/139 89/140/140 87/138/138
f 58/135/135 86/132/132 94/145/145
f 92/143/143 91/142/142 93/144/144
f 100/156/156 101/157/157 102/158/158
f 99/155/155 104/160/160 101/157/157
f 102/158/158 101/157/157 98/154/154
f 97/153/153 102/158/158 95/147/147
f 60/151/151 86/149/149 59/148/148
f 65/165/165 62/163/163 49/161/161
f 64/162/162 98/166/166 65/165/165
f 93/175/175 76/172/172 74/173/173
f 76/172/172 93/175/175 94/176/176
f 86/177/177 63/170/170 75/171/171
