# Rhino

v -0.025000095367431641 0.5 0.5
v -0.025000095367431641 0.16666650772094727 0.5
v -0.025000095367431641 -0.16666650772094727 0.5
v -0.025000095367431641 -0.5 0.5
v -0.025000095367431641 -0.5 0.1666666716337204
v -0.025000095367431641 -0.5 -0.1666666716337204
v -0.025000095367431641 -0.5 -0.5
v -0.025000095367431641 -0.44000005722045898 -0.5
v -0.025000095367431641 -0.44000005722045898 -0.18666666746139526
v -0.025000095367431641 -0.44000005722045898 0.12666666507720947
v -0.025000095367431641 -0.44000005722045898 0.43999999761581421
v -0.025000095367431641 -0.12666654586791992 0.43999999761581421
v -0.025000095367431641 0.18666648864746094 0.43999999761581421
v -0.025000095367431641 0.5 0.43999999761581421
v -0.125 -0.5 0.5
v -0.125 0.5 0.5
v -0.074999809265136719 0.5 0.5
v -0.074999809265136719 0.25 0.5
v -0.074999809265136719 0.375 0.5
v -0.050000190734863281 0.25 0.5
v -0.050000190734863281 0.375 0.5
v -0.099999904632568359 0.25 0.5
v -0.099999904632568359 0.375 0.5
v -0.125 0.16666650772094727 0.5
v -0.125 -0.16666650772094727 0.5
v -0.125 -0.5 -0.5
v -0.125 -0.5 0.1666666716337204
v -0.125 -0.5 -0.1666666716337204
v -0.074999809265136719 -0.5 -0.5
v -0.074999809265136719 -0.5 -0.25
v -0.099999904632568359 -0.5 -0.25
v -0.074999809265136719 -0.5 -0.375
v -0.099999904632568359 -0.5 -0.375
v -0.050000190734863281 -0.5 -0.25
v -0.050000190734863281 -0.5 -0.375
v -0.125 -0.44000005722045898 -0.5
v -0.074999809265136719 -0.44000005722045898 -0.5
v -0.125 -0.44000005722045898 0.43999999761581421
v -0.074999809265136719 -0.44000005722045898 -0.26499998569488525
v -0.074999809265136719 -0.44000005722045898 -0.38249999284744263
v -0.050000190734863281 -0.44000005722045898 -0.26499998569488525
v -0.050000190734863281 -0.44000005722045898 -0.38249999284744263
v -0.099999904632568359 -0.44000005722045898 -0.26499998569488525
v -0.099999904632568359 -0.44000005722045898 -0.38249999284744263
v -0.125 -0.44000005722045898 -0.18666666746139526
v -0.125 -0.44000005722045898 0.12666666507720947
v -0.125 0.5 0.43999999761581421
v -0.125 -0.12666654586791992 0.43999999761581421
v -0.125 0.18666648864746094 0.43999999761581421
v -0.074999809265136719 0.5 0.43999999761581421
v -0.074999809265136719 0.2649998664855957 0.43999999761581421
v -0.099999904632568359 0.2649998664855957 0.43999999761581421
v -0.074999809265136719 0.38250017166137695 0.43999999761581421
v -0.099999904632568359 0.38250017166137695 0.43999999761581421
v -0.050000190734863281 0.2649998664855957 0.43999999761581421
v -0.050000190734863281 0.38250017166137695 0.43999999761581421
vt 0.50488764047622681 0.73874557018280029
vt 0.50488764047622681 0.57582563161849976
vt 0.50488764047622681 0.41290563344955444
vt 0.50488764047622681 0.24998563528060913
vt 0.66780757904052734 0.24998563528060913
vt 0.83072757720947266 0.24998563528060913
vt 0.99364757537841797 0.24998563528060913
vt 0.99364757537841797 0.27931123971939087
vt 0.84050273895263672 0.27931123971939087
vt 0.68735796213150024 0.27931123971939087
vt 0.53421318531036377 0.27931123971939087
vt 0.53421318531036377 0.43245601654052734
vt 0.53421318531036377 0.58560079336166382
vt 0.53421318531036377 0.73874557018280029
vt 0.5 0.19607843458652496
vt 0.5 0.24363319575786591
vt 0.99019604921340942 0.19607843458652496
vt 0.99019604921340942 0.24363319575786591
vt 0.66339868307113647 0.19607843458652496
vt 0.82679736614227295 0.19607843458652496
vt 0.99019604921340942 0.21985581517219543
vt 0.86764705181121826 0.21985581517219543
vt 0.92892158031463623 0.21985581517219543
vt 0.86764705181121826 0.2079671174287796
vt 0.92892158031463623 0.2079671174287796
vt 0.86764705181121826 0.23174449801445007
vt 0.92892158031463623 0.23174449801445007
vt 0.82679736614227295 0.24363319575786591
vt 0.66339868307113647 0.24363319575786591
vt 0.5 0.14705882966518402
vt 0.5 0.19461359083652496
vt 0.99019604921340942 0.14705882966518402
vt 0.99019604921340942 0.19461359083652496
vt 0.66339868307113647 0.14705882966518402
vt 0.82679736614227295 0.14705882966518402
vt 0.82679736614227295 0.19461359083652496
vt 0.66339868307113647 0.19461359083652496
vt 0.5 0.17083621025085449
vt 0.62254899740219116 0.17083621025085449
vt 0.62254899740219116 0.18272489309310913
vt 0.56127452850341797 0.17083621025085449
vt 0.56127452850341797 0.18272489309310913
vt 0.62254899740219116 0.15894751250743866
vt 0.56127452850341797 0.15894751250743866
vt 0.75 0
vt 0.75 0.047554764896631241
vt 0.77941179275512695 0
vt 0.77941179275512695 0.047554764896631241
vt 0.77941179275512695 0.02377738244831562
vt 0.75 0.02377738244831562
vt 0.5 0.098039217293262482
vt 0.5 0.14559398591518402
vt 0.96078431606292725 0.098039217293262482
vt 0.96078431606292725 0.14559398591518402
vt 0.65359479188919067 0.098039217293262482
vt 0.80718952417373657 0.098039217293262482
vt 0.96078431606292725 0.12181659787893295
vt 0.84558820724487305 0.12181659787893295
vt 0.90318626165390015 0.12181659787893295
vt 0.84558820724487305 0.10992790758609772
vt 0.90318626165390015 0.10992790758609772
vt 0.84558820724487305 0.13370528817176819
vt 0.90318626165390015 0.13370528817176819
vt 0.80718952417373657 0.14559398591518402
vt 0.65359479188919067 0.14559398591518402
vt 0.5 0.049019608646631241
vt 0.5 0.096574373543262482
vt 0.96078431606292725 0.049019608646631241
vt 0.96078431606292725 0.096574373543262482
vt 0.65359479188919067 0.049019608646631241
vt 0.80718952417373657 0.049019608646631241
vt 0.80718952417373657 0.096574373543262482
vt 0.65359479188919067 0.096574373543262482
vt 0.5 0.07279699295759201
vt 0.61519604921340942 0.07279699295759201
vt 0.61519604921340942 0.084685683250427246
vt 0.5575980544090271 0.07279699295759201
vt 0.5575980544090271 0.084685683250427246
vt 0.61519604921340942 0.060908298939466476
vt 0.5575980544090271 0.060908298939466476
vt 0.5 0
vt 0.5 0.047554764896631241
vt 0.52941179275512695 0
vt 0.52941179275512695 0.047554764896631241
vt 0.5 0.02377738244831562
vt 0.52941179275512695 0.02377738244831562
vt 0.49364754557609558 0.49509802460670471
vt 0.33072757720947266 0.49509802460670471
vt 0.16780759394168854 0.49509802460670471
vt 0.0048875999636948109 0.49509802460670471
vt 0.0048875999636948109 0.33169934153556824
vt 0.0048875999636948109 0.16830065846443176
vt 0.0048875999636948109 0.0049019609577953815
vt 0.034213200211524963 0.0049019609577953815
vt 0.034213200211524963 0.15849673748016357
vt 0.034213200211524963 0.31209149956703186
vt 0.034213200211524963 0.46568626165390015
vt 0.18735799193382263 0.46568626165390015
vt 0.34050276875495911 0.46568626165390015
vt 0.49364754557609558 0.46568626165390015
vn 1 0 0
vn 1 0 0
vn 1 0 0
vn 1 0 0
vn 1 0 0
vn 1 0 0
vn 1 0 0
vn 1 0 0
vn 1 0 0
vn 1 0 0
vn 1 0 0
vn 1 0 0
vn 1 0 0
vn 1 0 0
vn 0 0 1
vn 0 0 1
vn 0 0 1
vn 0 0 1
vn 0 0 1
vn 0 0 1
vn 0 0 1
vn 0 0 1
vn 0 0 1
vn 0 0 1
vn 0 0 1
vn 0 0 1
vn 0 0 1
vn 0 0 1
vn 0 0 1
vn 0 -1 0
vn 0 -1 0
vn 0 -1 0
vn 0 -1 0
vn 0 -1 0
vn 0 -1 0
vn 0 -1 0
vn 0 -1 0
vn 0 -1 0
vn 0 -1 0
vn 0 -1 0
vn 0 -1 0
vn 0 -1 0
vn 0 -1 0
vn 0 -1 0
vn 0 0 -1
vn 0 0 -1
vn 0 0 -1
vn 0 0 -1
vn 0 0 -1
vn 0 0 -1
vn 0 1 0
vn 0 1 0
vn 0 1 0
vn 0 1 0
vn 0 1 0
vn 0 1 0
vn 0 1 0
vn 0 1 0
vn 0 1 0
vn 0 1 0
vn 0 1 0
vn 0 1 0
vn 0 1 0
vn 0 1 0
vn 0 1 0
vn 0 0 -1
vn 0 0 -1
vn 0 0 -1
vn 0 0 -1
vn 0 0 -1
vn 0 0 -1
vn 0 0 -1
vn 0 0 -1
vn 0 0 -1
vn 0 0 -1
vn 0 0 -1
vn 0 0 -1
vn 0 0 -1
vn 0 0 -1
vn 0 0 -1
vn 0 1 0
vn 0 1 0
vn 0 1 0
vn 0 1 0
vn 0 1 0
vn 0 1 0
vn -1 0 0
vn -1 0 0
vn -1 0 0
vn -1 0 0
vn -1 0 0
vn -1 0 0
vn -1 0 0
vn -1 0 0
vn -1 0 0
vn -1 0 0
vn -1 0 0
vn -1 0 0
vn -1 0 0
vn -1 0 0
f 8/8/8 9/9/9 7/7/7
f 5/5/5 6/6/6 10/10/10
f 10/10/10 11/11/11 5/5/5
f 2/2/2 12/12/12 13/13/13
f 3/3/3 11/11/11 12/12/12
f 2/2/2 3/3/3 12/12/12
f 13/13/13 1/1/1 2/2/2
f 13/13/13 14/14/14 1/1/1
f 4/4/4 11/11/11 3/3/3
f 23/27/27 22/26/26 18/22/22
f 19/23/23 18/22/22 20/24/24
f 4/15/15 3/19/19 25/29/29
f 2/20/20 18/22/22 3/19/19
f 18/22/22 2/20/20 20/24/24
f 24/28/28 25/29/29 18/22/22
f 18/22/22 25/29/29 3/19/19
f 20/24/24 2/20/20 21/25/25
f 1/17/17 17/21/21 21/25/25
f 1/17/17 21/25/25 2/20/20
f 16/18/18 24/28/28 23/27/27
f 23/27/27 17/21/21 16/18/18
f 23/27/27 19/23/23 17/21/21
f 24/28/28 18/22/22 22/26/26
f 31/40/40 33/42/42 32/41/41
f 30/39/39 32/41/41 35/44/44
f 34/43/43 35/44/44 6/34/34
f 7/30/30 6/34/34 35/44/44
f 29/38/38 7/30/30 35/44/44
f 33/42/42 26/31/31 29/38/38
f 29/38/38 32/41/41 33/42/42
f 28/37/37 26/31/31 33/42/42
f 5/35/35 30/39/39 6/34/34
f 34/43/43 6/34/34 30/39/39
f 27/36/36 30/39/39 5/35/35
f 4/32/32 15/33/33 27/36/36
f 28/37/37 31/40/40 30/39/39
f 27/36/36 28/37/37 30/39/39
f 37/50/50 8/45/45 7/47/47
f 36/46/46 37/50/50 29/49/49
f 44/63/63 43/62/62 39/58/58
f 40/59/59 39/58/58 41/60/60
f 10/55/55 46/65/65 38/52/52
f 9/56/56 39/58/58 10/55/55
f 39/58/58 9/56/56 41/60/60
f 45/64/64 46/65/65 39/58/58
f 39/58/58 46/65/65 10/55/55
f 41/60/60 9/56/56 42/61/61
f 8/53/53 37/57/57 42/61/61
f 8/53/53 42/61/61 9/56/56
f 36/54/54 45/64/64 44/63/63
f 44/63/63 37/57/57 36/54/54
f 44/63/63 40/59/59 37/57/57
f 45/64/64 39/58/58 43/62/62
f 52/76/76 54/78/78 53/77/77
f 51/75/75 53/77/77 56/80/80
f 55/79/79 56/80/80 13/70/70
f 14/66/66 13/70/70 56/80/80
f 50/74/74 14/66/66 56/80/80
f 54/78/78 47/67/67 50/74/74
f 50/74/74 53/77/77 54/78/78
f 49/73/73 47/67/67 54/78/78
f 12/71/71 51/75/75 13/70/70
f 55/79/79 13/70/70 51/75/75
f 48/72/72 51/75/75 12/71/71
f 12/71/71 11/68/68 38/69/69
f 49/73/73 52/76/76 51/75/75
f 48/72/72 49/73/73 51/75/75
f 17/85/85 1/81/81 14/83/83
f 16/82/82 17/85/85 50/86/86
f 36/94/94 26/93/93 45/95/95
f 27/91/91 46/96/96 28/92/92
f 46/96/96 27/91/91 38/97/97
f 24/88/88 49/99/99 48/98/98
f 25/89/89 48/98/98 38/97/97
f 24/88/88 48/98/98 25/89/89
f 49/99/99 24/88/88 16/87/87
f 49/99/99 16/87/87 47/100/100
f 15/90/90 25/89/89 38/97/97
f 9/9/9 6/6/6 7/7/7
f 6/6/6 9/9/9 10/10/10
f 11/11/11 4/4/4 5/5/5
f 23/27/27 18/22/22 19/23/23
f 19/23/23 20/24/24 21/25/25
f 4/15/15 25/29/29 15/16/16
f 17/21/21 19/23/23 21/25/25
f 24/28/28 22/26/26 23/27/27
f 31/40/40 32/41/41 30/39/39
f 30/39/39 35/44/44 34/43/43
f 29/38/38 35/44/44 32/41/41
f 28/37/37 33/42/42 31/40/40
f 4/32/32 27/36/36 5/35/35
f 37/50/50 7/47/47 29/49/49
f 36/46/46 29/49/49 26/48/48
f 44/63/63 39/58/58 40/59/59
f 40/59/59 41/60/60 42/61/61
f 10/55/55 38/52/52 11/51/51
f 37/57/57 40/59/59 42/61/61
f 45/64/64 43/62/62 44/63/63
f 52/76/76 53/77/77 51/75/75
f 51/75/75 56/80/80 55/79/79
f 50/74/74 56/80/80 53/77/77
f 49/73/73 54/78/78 52/76/76
f 12/71/71 38/69/69 48/72/72
f 17/85/85 14/83/83 50/86/86
f 16/82/82 50/86/86 47/84/84
f 26/93/93 28/92/92 45/95/95
f 46/96/96 45/95/95 28/92/92
f 27/91/91 15/90/90 38/97/97
v 0.025000095367431641 0.5 0.5
v 0.025000095367431641 0.5 0.43999999761581421
v 0.025000095367431641 -0.5 0.5
v 0.025000095367431641 -0.5 0.43999999761581421
v 0.025000095367431641 0.25 0.5
v 0.025000095367431641 0 0.5
v 0.025000095367431641 -0.25 0.5
v 0.025000095367431641 -0.25 0.43999999761581421
v 0.025000095367431641 0 0.43999999761581421
v 0.025000095367431641 0.25 0.43999999761581421
v 0.125 -0.5 0.5
v 0.125 0.5 0.5
v 0.074999809265136719 0.5 0.5
v 0.125 0.25 0.5
v 0.074999809265136719 0.25 0.5
v 0.074999809265136719 0.375 0.5
v 0.050000190734863281 0.25 0.5
v 0.050000190734863281 0.375 0.5
v 0.099999904632568359 0.25 0.5
v 0.099999904632568359 0.375 0.5
v 0.125 0 0.5
v 0.125 -0.25 0.5
v 0.074999809265136719 -0.5 0.5
v 0.074999809265136719 -0.25 0.5
v 0.099999904632568359 -0.25 0.5
v 0.074999809265136719 -0.375 0.5
v 0.099999904632568359 -0.375 0.5
v 0.050000190734863281 -0.25 0.5
v 0.050000190734863281 -0.375 0.5
v 0.125 -0.5 0.43999999761581421
v 0.074999809265136719 -0.5 0.43999999761581421
v 0.125 0.5 0.43999999761581421
v 0.074999809265136719 -0.25 0.43999999761581421
v 0.074999809265136719 -0.375 0.43999999761581421
v 0.050000190734863281 -0.25 0.43999999761581421
v 0.050000190734863281 -0.375 0.43999999761581421
v 0.099999904632568359 -0.25 0.43999999761581421
v 0.099999904632568359 -0.375 0.43999999761581421
v 0.125 -0.25 0.43999999761581421
v 0.125 0 0.43999999761581421
v 0.125 0.25 0.43999999761581421
v 0.074999809265136719 0.5 0.43999999761581421
v 0.074999809265136719 0.25 0.43999999761581421
v 0.099999904632568359 0.25 0.43999999761581421
v 0.074999809265136719 0.375 0.43999999761581421
v 0.099999904632568359 0.375 0.43999999761581421
v 0.050000190734863281 0.25 0.43999999761581421
v 0.050000190734863281 0.375 0.43999999761581421
vt 0.090909093618392944 0.45454546809196472
vt 0.090909093618392944 0.50909090042114258
vt 0.99853515625 0.45454546809196472
vt 0.99853515625 0.50909090042114258
vt 0.31781560182571411 0.45454546809196472
vt 0.54472213983535767 0.45454546809196472
vt 0.77162861824035645 0.45454546809196472
vt 0.77162861824035645 0.50909090042114258
vt 0.54472213983535767 0.50909090042114258
vt 0.31781560182571411 0.50909090042114258
vt 0.090909093618392944 0.625
vt 0.090909093618392944 0.71590906381607056
vt 0.54472213983535767 0.625
vt 0.99853515625 0.625
vt 0.99853515625 0.71590906381607056
vt 0.31781560182571411 0.625
vt 0.77162861824035645 0.625
vt 0.99853515625 0.67045456171035767
vt 0.77162861824035645 0.71590906381607056
vt 0.77162861824035645 0.67045456171035767
vt 0.88508188724517822 0.67045456171035767
vt 0.77162861824035645 0.64772725105285645
vt 0.88508188724517822 0.64772725105285645
vt 0.77162861824035645 0.69318181276321411
vt 0.88508188724517822 0.69318181276321411
vt 0.54472213983535767 0.71590906381607056
vt 0.31781560182571411 0.71590906381607056
vt 0.090909093618392944 0.67045456171035767
vt 0.31781560182571411 0.67045456171035767
vt 0.31781560182571411 0.69318181276321411
vt 0.20436234772205353 0.67045456171035767
vt 0.20436234772205353 0.69318181276321411
vt 0.31781560182571411 0.64772725105285645
vt 0.20436234772205353 0.64772725105285645
vt 0.090909093618392944 0
vt 0.090909093618392944 0.090909093618392944
vt 0.14545454084873199 0
vt 0.14545454084873199 0.090909093618392944
vt 0.14545454084873199 0.045454546809196472
vt 0.090909093618392944 0.045454546809196472
vt 0.089444249868392944 0
vt 0 0
vt 0.089444249868392944 0.45381304621696472
vt 0.089444249868392944 0.90762609243392944
vt 0 0.90762609243392944
vt 0.089444249868392944 0.22690652310848236
vt 0.089444249868392944 0.68071955442428589
vt 0.044722124934196472 0.90762609243392944
vt 0.044722124934196472 0.68071955442428589
vt 0.044722124934196472 0.79417282342910767
vt 0.067083187401294708 0.68071955442428589
vt 0.067083187401294708 0.79417282342910767
vt 0.022361062467098236 0.68071955442428589
vt 0.022361062467098236 0.79417282342910767
vt 0 0.68071955442428589
vt 0 0.45381304621696472
vt 0 0.22690652310848236
vt 0.044722124934196472 0
vt 0.044722124934196472 0.22690652310848236
vt 0.022361062467098236 0.22690652310848236
vt 0.044722124934196472 0.11345326155424118
vt 0.022361062467098236 0.11345326155424118
vt 0.067083187401294708 0.22690652310848236
vt 0.067083187401294708 0.11345326155424118
vt 0.54545456171035767 0
vt 0.54545456171035767 0.090909093618392944
vt 0.60000002384185791 0
vt 0.60000002384185791 0.090909093618392944
vt 0.54545456171035767 0.045454546809196472
vt 0.60000002384185791 0.045454546809196472
vt 0.090909093618392944 0.28409090638160706
vt 0.090909093618392944 0.3386363685131073
vt 0.99853515625 0.28409090638160706
vt 0.99853515625 0.3386363685131073
vt 0.31781560182571411 0.28409090638160706
vt 0.54472213983535767 0.28409090638160706
vt 0.77162861824035645 0.28409090638160706
vt 0.77162861824035645 0.3386363685131073
vt 0.54472213983535767 0.3386363685131073
vt 0.31781560182571411 0.3386363685131073
vn -1 0 0
vn -1 0 0
vn -1 0 0
vn -1 0 0
vn -1 0 0
vn -1 0 0
vn -1 0 0
vn -1 0 0
vn -1 0 0
vn -1 0 0
vn 0 0 1
vn 0 0 1
vn 0 0 1
vn 0 0 1
vn 0 0 1
vn 0 0 1
vn 0 0 1
vn 0 0 1
vn 0 0 1
vn 0 0 1
vn 0 0 1
vn 0 0 1
vn 0 0 1
vn 0 0 1
vn 0 0 1
vn 0 0 1
vn 0 0 1
vn 0 0 1
vn 0 0 1
vn 0 0 1
vn 0 0 1
vn 0 0 1
vn 0 0 1
vn 0 0 1
vn 0 -1 0
vn 0 -1 0
vn 0 -1 0
vn 0 -1 0
vn 0 -1 0
vn 0 -1 0
vn 0 0 -1
vn 0 0 -1
vn 0 0 -1
vn 0 0 -1
vn 0 0 -1
vn 0 0 -1
vn 0 0 -1
vn 0 0 -1
vn 0 0 -1
vn 0 0 -1
vn 0 0 -1
vn 0 0 -1
vn 0 0 -1
vn 0 0 -1
vn 0 0 -1
vn 0 0 -1
vn 0 0 -1
vn 0 0 -1
vn 0 0 -1
vn 0 0 -1
vn 0 0 -1
vn 0 0 -1
vn 0 0 -1
vn 0 0 -1
vn 0 1 0
vn 0 1 0
vn 0 1 0
vn 0 1 0
vn 0 1 0
vn 0 1 0
vn 1 0 0
vn 1 0 0
vn 1 0 0
vn 1 0 0
vn 1 0 0
vn 1 0 0
vn 1 0 0
vn 1 0 0
vn 1 0 0
vn 1 0 0
f 61/105/105 57/101/101 58/102/102
f 66/110/110 65/109/109 62/106/106
f 59/103/103 63/107/107 64/108/108
f 63/107/107 62/106/106 65/109/109
f 81/130/130 80/129/129 82/131/131
f 80/129/129 84/133/133 85/134/134
f 76/125/125 72/121/121 71/120/120
f 72/121/121 74/123/123 73/122/122
f 79/128/128 85/134/134 59/111/111
f 63/116/116 59/111/111 85/134/134
f 82/131/131 85/134/134 79/128/128
f 63/116/116 85/134/134 84/133/133
f 84/133/133 80/129/129 62/113/113
f 83/132/132 82/131/131 79/128/128
f 78/127/127 83/132/132 67/112/112
f 79/128/128 67/112/112 83/132/132
f 81/130/130 83/132/132 78/127/127
f 81/130/130 77/126/126 80/129/129
f 80/129/129 77/126/126 71/120/120
f 78/127/127 77/126/126 81/130/130
f 62/113/113 63/116/116 84/133/133
f 73/122/122 61/117/117 62/113/113
f 74/123/123 61/117/117 73/122/122
f 71/120/120 73/122/122 62/113/113
f 61/117/117 74/123/123 57/114/114
f 69/118/118 57/114/114 74/123/123
f 77/126/126 75/124/124 71/120/120
f 76/125/125 75/124/124 70/119/119
f 75/124/124 77/126/126 70/119/119
f 68/115/115 69/118/118 76/125/125
f 72/121/121 76/125/125 69/118/118
f 70/119/119 68/115/115 76/125/125
f 69/118/118 74/123/123 72/121/121
f 71/120/120 62/113/113 80/129/129
f 87/140/140 79/139/139 59/137/137
f 86/136/136 67/138/138 79/139/139
f 100/160/160 99/159/159 101/161/161
f 99/159/159 103/163/163 104/164/164
f 94/154/154 90/150/150 89/149/149
f 90/150/150 92/152/152 91/151/151
f 98/158/158 104/164/164 58/141/141
f 66/146/146 58/141/141 104/164/164
f 104/164/164 98/158/158 101/161/161
f 103/163/163 65/143/143 66/146/146
f 99/159/159 65/143/143 103/163/163
f 104/164/164 103/163/163 66/146/146
f 88/142/142 102/162/162 98/158/158
f 101/161/161 98/158/158 102/162/162
f 97/157/157 102/162/162 88/142/142
f 99/159/159 100/160/160 96/156/156
f 100/160/160 97/157/157 96/156/156
f 102/162/162 97/157/157 100/160/160
f 65/143/143 99/159/159 89/149/149
f 91/151/151 65/143/143 89/149/149
f 92/152/152 64/147/147 91/151/151
f 99/159/159 96/156/156 89/149/149
f 87/148/148 92/152/152 90/150/150
f 64/147/147 92/152/152 60/144/144
f 60/144/144 92/152/152 87/148/148
f 95/155/155 93/153/153 96/156/156
f 89/149/149 96/156/156 93/153/153
f 94/154/154 93/153/153 95/155/155
f 86/145/145 87/148/148 94/154/154
f 95/155/155 86/145/145 94/154/154
f 94/154/154 87/148/148 90/150/150
f 64/147/147 65/143/143 91/151/151
f 69/169/169 98/170/170 58/167/167
f 68/166/166 88/168/168 98/170/170
f 70/175/175 97/180/180 88/172/172
f 97/180/180 70/175/175 77/176/176
f 67/173/173 86/174/174 95/178/178
f 78/177/177 95/178/178 96/179/179
f 61/105/105 58/102/102 66/110/110
f 66/110/110 62/106/106 61/105/105
f 59/103/103 64/108/108 60/104/104
f 63/107/107 65/109/109 64/108/108
f 81/130/130 82/131/131 83/132/132
f 80/129/129 85/134/134 82/131/131
f 76/125/125 71/120/120 75/124/124
f 72/121/121 73/122/122 71/120/120
f 87/140/140 59/137/137 60/135/135
f 86/136/136 79/139/139 87/140/140
f 100/160/160 101/161/161 102/162/162
f 99/159/159 104/164/164 101/161/161
f 94/154/154 89/149/149 93/153/153
f 90/150/150 91/151/151 89/149/149
f 69/169/169 58/167/167 57/165/165
f 68/166/166 98/170/170 69/169/169
f 70/175/175 88/172/172 68/171/171
f 97/180/180 77/176/176 96/179/179
f 67/173/173 95/178/178 78/177/177
f 78/177/177 96/179/179 77/176/176
