# Rhino

v -0.05000000074505806 -0.5 0.5
v -0.05000000074505806 -0.5 -0.5
v 0.05000000074505806 -0.5 0.5
v 0.05000000074505806 -0.5 -0.5
v 0.05000000074505806 -0.47499999403953552 0.5
v -0.05000000074505806 -0.47499999403953552 0.5
v 0.05000000074505806 -0.47499999403953552 -0.5
v -0.05000000074505806 -0.47499999403953552 -0.5
vt 0.99853515625 0.57142859697341919
vt 0.0476190485060215 0.57142859697341919
vt 0.99853515625 0.66666668653488159
vt 0.0476190485060215 0.66666668653488159
vt 0.0476190485060215 0.095238097012042999
vt 0.0476190485060215 0.1190476194024086
vt 0.1428571492433548 0.095238097012042999
vt 0.1428571492433548 0.1190476194024086
vt 0.0461542047560215 0
vt 0.02380952425301075 0
vt 0.0461542047560215 0.9509161114692688
vt 0.02380952425301075 0.9509161114692688
vt 0.0476190485060215 0
vt 0.0476190485060215 0.02380952425301075
vt 0.1428571492433548 0
vt 0.1428571492433548 0.02380952425301075
vt 0.02234468050301075 0
vt 0 0
vt 0.02234468050301075 0.9509161114692688
vt 0 0.9509161114692688
vt 0.99853515625 0.190476194024086
vt 0.0476190485060215 0.190476194024086
vt 0.99853515625 0.28571429848670959
vt 0.0476190485060215 0.28571429848670959
vn 0 -1 0
vn 0 -1 0
vn 0 -1 0
vn 0 -1 0
vn 0 0 1
vn 0 0 1
vn 0 0 1
vn 0 0 1
vn 1 0 0
vn 1 0 0
vn 1 0 0
vn 1 0 0
vn 0 0 -1
vn 0 0 -1
vn 0 0 -1
vn 0 0 -1
vn -1 0 0
vn -1 0 0
vn -1 0 0
vn -1 0 0
vn 0 1 0
vn 0 1 0
vn 0 1 0
vn 0 1 0
f 2/2/2 4/4/4 3/3/3
f 5/6/6 6/8/8 1/7/7
f 7/10/10 5/12/12 3/11/11
f 8/14/14 7/16/16 4/15/15
f 6/18/18 8/20/20 2/19/19
f 8/22/22 6/21/21 5/23/23
f 2/2/2 3/3/3 1/1/1
f 5/6/6 1/7/7 3/5/5
f 7/10/10 3/11/11 4/9/9
f 8/14/14 4/15/15 2/13/13
f 6/18/18 2/19/19 1/17/17
f 8/22/22 5/23/23 7/24/24
v 0.05000000074505806 0.5 -0.52499997615814209
v 0.05000000074505806 -0.5 -0.52499997615814209
v -0.05000000074505806 0.5 -0.52499997615814209
v -0.05000000074505806 -0.5 -0.52499997615814209
v -0.05000000074505806 0.5 -0.5
v 0.05000000074505806 0.5 -0.5
v -0.05000000074505806 -0.5 -0.5
v 0.05000000074505806 -0.5 -0.5
vt 0.99853515625 0.57142859697341919
vt 0.0476190485060215 0.57142859697341919
vt 0.99853515625 0.66666668653488159
vt 0.0476190485060215 0.66666668653488159
vt 0.0476190485060215 0.095238097012042999
vt 0.0476190485060215 0.1190476194024086
vt 0.1428571492433548 0.095238097012042999
vt 0.1428571492433548 0.1190476194024086
vt 0.0461542047560215 0
vt 0.02380952425301075 0
vt 0.0461542047560215 0.9509161114692688
vt 0.02380952425301075 0.9509161114692688
vt 0.0476190485060215 0
vt 0.0476190485060215 0.02380952425301075
vt 0.1428571492433548 0
vt 0.1428571492433548 0.02380952425301075
vt 0.02234468050301075 0
vt 0 0
vt 0.02234468050301075 0.9509161114692688
vt 0 0.9509161114692688
vt 0.99853515625 0.190476194024086
vt 0.0476190485060215 0.190476194024086
vt 0.99853515625 0.28571429848670959
vt 0.0476190485060215 0.28571429848670959
vn 0 0 -1
vn 0 0 -1
vn 0 0 -1
vn 0 0 -1
vn 0 1 0
vn 0 1 0
vn 0 1 0
vn 0 1 0
vn -1 0 0
vn -1 0 0
vn -1 0 0
vn -1 0 0
vn 0 -1 0
vn 0 -1 0
vn 0 -1 0
vn 0 -1 0
vn 1 0 0
vn 1 0 0
vn 1 0 0
vn 1 0 0
vn 0 0 1
vn 0 0 1
vn 0 0 1
vn 0 0 1
f 10/26/26 12/28/28 11/27/27
f 13/30/30 14/32/32 9/31/31
f 15/34/34 13/36/36 11/35/35
f 16/38/38 15/40/40 12/39/39
f 14/42/42 16/44/44 10/43/43
f 16/46/46 14/45/45 13/47/47
f 10/26/26 11/27/27 9/25/25
f 13/30/30 9/31/31 11/29/29
f 15/34/34 11/35/35 12/33/33
f 16/38/38 12/39/39 10/37/37
f 14/42/42 10/43/43 9/41/41
f 16/46/46 13/47/47 15/48/48
