# Rhino

v 0.5 0.10000038146972656 -0.5
v 0.5 0.10000038146972656 0.5
v -0.5 0.10000038146972656 -0.5
v -0.45000076293945313 0.10000038146972656 -0.44999998807907104
v 0.45000076293945313 0.10000038146972656 -0.44999998807907104
v -0.45000076293945313 0.10000038146972656 0.5
v -0.5 0.10000038146972656 0.5
v 0.45000076293945313 0.10000038146972656 0.5
v 0.5 -0.10000038146972656 -0.5
v -0.5 -0.10000038146972656 -0.5
v -0.5 -0.10000038146972656 0.5
v -0.45000076293945313 -0.10000038146972656 -0.44999998807907104
v 0.45000076293945313 -0.10000038146972656 -0.44999998807907104
v -0.45000076293945313 -0.10000038146972656 0.5
v 0.45000076293945313 -0.10000038146972656 0.5
v 0.5 -0.10000038146972656 0.5
vt 0 0
vt 0 0.43331775069236755
vt 0.43478259444236755 0
vt 0.41304346919059753 0.021665887907147408
vt 0.021739130839705467 0.021665887907147408
vt 0.41304346919059753 0.43331775069236755
vt 0.43478259444236755 0.43331775069236755
vt 0.021739130839705467 0.43331775069236755
vt 0.56521737575531006 0
vt 0.99853515625 0
vt 0.99853515625 0.43478259444236755
vt 0.97686928510665894 0.021739130839705467
vt 0.5868833065032959 0.021739130839705467
vt 0.97686928510665894 0.43478259444236755
vt 0.5868833065032959 0.43478259444236755
vt 0.56521737575531006 0.43478259444236755
vt 0.38983950018882751 0.43478259444236755
vt 0.30434781312942505 0.43478259444236755
vt 0.38983950018882751 0.86810034513473511
vt 0.30434781312942505 0.86810034513473511
vt 0.1289699375629425 0.43478259444236755
vt 0.043478261679410934 0.43478259444236755
vt 0.043478261679410934 0.86810034513473511
vt 0.1289699375629425 0.86810034513473511
vt 0.30288296937942505 0.43478259444236755
vt 0.30288296937942505 0.86810034513473511
vt 0.21739129722118378 0.86810034513473511
vt 0.21739129722118378 0.43478259444236755
vt 0.21592645347118378 0.43478259444236755
vt 0.1304347813129425 0.43478259444236755
vt 0.21592645347118378 0.84782606363296509
vt 0.1304347813129425 0.84782606363296509
vt 0.47826087474822998 0.43478259444236755
vt 0.56375253200531006 0.84782606363296509
vt 0.47826087474822998 0.84782606363296509
vt 0.56375253200531006 0.43478259444236755
vt 0.47679603099822998 0.43478259444236755
vt 0.39130434393882751 0.43478259444236755
vt 0.47679603099822998 0.82608693838119507
vt 0.39130434393882751 0.82608693838119507
vt 0.021739130839705467 0.43478259444236755
vt 0.021739130839705467 0.52173912525177002
vt 0.042013417929410934 0.43478259444236755
vt 0.042013417929410934 0.52173912525177002
vt 0 0.43478259444236755
vt 0 0.52173912525177002
vt 0.020274287089705467 0.43478259444236755
vt 0.020274287089705467 0.52173912525177002
vn 0 1 0
vn 0 1 0
vn 0 1 0
vn 0 1 0
vn 0 1 0
vn 0 1 0
vn 0 1 0
vn 0 1 0
vn 0 -1 0
vn 0 -1 0
vn 0 -1 0
vn 0 -1 0
vn 0 -1 0
vn 0 -1 0
vn 0 -1 0
vn 0 -1 0
vn 0 0 -1
vn 0 0 -1
vn 0 0 -1
vn 0 0 -1
vn -1 0 0
vn -1 0 0
vn -1 0 0
vn -1 0 0
vn 1 0 0
vn 1 0 0
vn 1 0 0
vn 1 0 0
vn -1 0 0
vn -1 0 0
vn -1 0 0
vn -1 0 0
vn 1 0 0
vn 1 0 0
vn 1 0 0
vn 1 0 0
vn 0 0 1
vn 0 0 1
vn 0 0 1
vn 0 0 1
vn 0 0 1
vn 0 0 1
vn 0 0 1
vn 0 0 1
vn 0 0 1
vn 0 0 1
vn 0 0 1
vn 0 0 1
f 2/2/2 1/1/1 5/5/5
f 4/4/4 5/5/5 1/1/1
f 3/3/3 7/7/7 4/4/4
f 1/1/1 3/3/3 4/4/4
f 16/16/16 15/15/15 13/13/13
f 12/12/12 9/9/9 13/13/13
f 10/10/10 12/12/12 11/11/11
f 9/9/9 12/12/12 10/10/10
f 9/18/18 10/20/20 3/19/19
f 10/22/22 11/23/23 7/24/24
f 16/28/28 9/27/27 1/26/26
f 13/30/30 15/32/32 8/31/31
f 14/33/33 12/35/35 4/34/34
f 12/38/38 13/40/40 5/39/39
f 16/42/42 2/41/41 8/43/43
f 14/46/46 6/45/45 7/47/47
f 2/2/2 5/5/5 8/8/8
f 7/7/7 6/6/6 4/4/4
f 16/16/16 13/13/13 9/9/9
f 12/12/12 14/14/14 11/11/11
f 9/18/18 3/19/19 1/17/17
f 10/22/22 7/24/24 3/21/21
f 16/28/28 1/26/26 2/25/25
f 13/30/30 8/31/31 5/29/29
f 14/33/33 4/34/34 6/36/36
f 12/38/38 5/39/39 4/37/37
f 16/42/42 8/43/43 15/44/44
f 14/46/46 7/47/47 11/48/48
