# Rhino

v -0.091297149658203125 -0.50157737731933594 -0.5
v -0.49129486083984375 -0.1015777587890625 -0.5
v -0.49129486083984375 -0.1015777587890625 0
v -0.49129486083984375 -0.1015777587890625 0.5
v -0.45048141479492188 -0.10179519653320313 -0.44999998807907104
v -0.2977447509765625 -0.12854385375976563 -0.44999998807907104
v -0.18700790405273438 -0.19728755950927734 -0.44999998807907104
v -0.11826324462890625 -0.30802726745605469 -0.44999998807907104
v -0.09151458740234375 -0.46076107025146484 -0.44999998807907104
v -0.45048141479492188 -0.10179519653320313 0.5
v -0.45048141479492188 -0.10179519653320313 0.18333333730697632
v -0.45048141479492188 -0.10179519653320313 -0.13333334028720856
v -0.11307907104492188 -0.32336044311523438 -0.5
v -0.18700790405273438 -0.19728755950927734 -0.5
v -0.313079833984375 -0.12336063385009766 -0.5
v -0.091297149658203125 -0.50157737731933594 0.5
v -0.09151458740234375 -0.46076107025146484 0.5
v -0.09151458740234375 -0.46076107025146484 -0.13333334028720856
v -0.09151458740234375 -0.46076107025146484 0.18333333730697632
v 0.10870361328125 -0.50157737731933594 -0.5
v -0.49129486083984375 0.098423004150390625 -0.5
v -0.49129486083984375 0.098423004150390625 0.5
v -0.432159423828125 0.09600830078125 -0.44999998807907104
v -0.31351470947265625 0.080043792724609375 -0.44999998807907104
v -0.20953369140625 0.049407958984375 -0.44999998807907104
v -0.12022781372070313 0.0041046142578125 -0.44999998807907104
v -0.04558563232421875 -0.055866241455078125 -0.44999998807907104
v 0.014385223388671875 -0.13050746917724609 -0.44999998807907104
v 0.059688568115234375 -0.21981620788574219 -0.44999998807907104
v 0.09032440185546875 -0.32379436492919922 -0.44999998807907104
v 0.10628890991210938 -0.44244003295898438 -0.44999998807907104
v -0.432159423828125 0.09600830078125 0.5
v -0.432159423828125 0.09600830078125 0.02500000037252903
v 0.09745025634765625 -0.36282920837402344 -0.5
v 0.06798553466796875 -0.2422943115234375 -0.5
v 0.020305633544921875 -0.13997364044189453 -0.5
v -0.04558563232421875 -0.055866241455078125 -0.5
v -0.12969207763671875 0.010026931762695313 -0.5
v -0.23201370239257813 0.057704925537109375 -0.5
v -0.35254669189453125 0.087171554565429688 -0.5
v 0.10870361328125 -0.50157737731933594 0.5
v 0.10870361328125 -0.50157737731933594 0
v 0.10628890991210938 -0.44244003295898438 0.5
v 0.10628890991210938 -0.44244003295898438 0.02500000037252903
v -0.49129486083984375 -0.0015773773193359375 0.5
v -0.49129486083984375 -0.0015773773193359375 0
v -0.49129486083984375 -0.0015773773193359375 0.25
v -0.49129486083984375 -0.051577568054199219 0
v -0.49129486083984375 -0.051577568054199219 0.25
v -0.49129486083984375 0.048421859741210938 0
v -0.49129486083984375 0.048421859741210938 0.25
v 0.00870513916015625 -0.50157737731933594 0
v 0.00870513916015625 -0.50157737731933594 0.5
v 0.058704376220703125 -0.50157737731933594 0
v 0.00870513916015625 -0.50157737731933594 0.25
v 0.058704376220703125 -0.50157737731933594 0.25
v -0.04129791259765625 -0.50157737731933594 0
v -0.04129791259765625 -0.50157737731933594 0.25
v -0.44131851196289063 -0.0028924942016601563 0.5
v -0.44131851196289063 -0.0028924942016601563 0.02500000037252903
v -0.43674087524414063 0.046558380126953125 0.02500000037252903
v -0.44131851196289063 -0.0028924942016601563 0.26249998807907104
v -0.43674087524414063 0.046558380126953125 0.26249998807907104
v -0.44589996337890625 -0.052343368530273438 0.02500000037252903
v -0.44589996337890625 -0.052343368530273438 0.26249998807907104
v 0.007389068603515625 -0.45160102844238281 0.02500000037252903
v 0.007389068603515625 -0.45160102844238281 0.5
v 0.007389068603515625 -0.45160102844238281 0.26249998807907104
v -0.042064666748046875 -0.45618057250976563 0.02500000037252903
v -0.042064666748046875 -0.45618057250976563 0.26249998807907104
v 0.0568389892578125 -0.44702053070068359 0.02500000037252903
v 0.0568389892578125 -0.44702053070068359 0.26249998807907104
vt 0.30396947264671326 0.4899182915687561
vt 0.63451099395751953 0.4899182915687561
vt 0.63451099395751953 0.74306470155715942
vt 0.63451099395751953 0.99621111154556274
vt 0.61755681037902832 0.51523292064666748
vt 0.54339849948883057 0.51523292064666748
vt 0.4692402184009552 0.51523292064666748
vt 0.39508193731307983 0.51523292064666748
vt 0.32092365622520447 0.51523292064666748
vt 0.61755681037902832 0.99621111154556274
vt 0.61755681037902832 0.83588504791259766
vt 0.61755681037902832 0.67555898427963257
vt 0.38660484552383423 0.4899182915687561
vt 0.4692402184009552 0.4899182915687561
vt 0.55187559127807617 0.4899182915687561
vt 0.30396947264671326 0.99621111154556274
vt 0.32092365622520447 0.99621111154556274
vt 0.32092365622520447 0.67555898427963257
vt 0.32092365622520447 0.83588504791259766
vt 0.50775766372680664 0
vt 0.50775766372680664 0.4884534478187561
vt 0 0.4884534478187561
vt 0.48236978054046631 0.46339958906173706
vt 0.48236978054046631 0.40860638022422791
vt 0.48236978054046631 0.35381317138671875
vt 0.48236978054046631 0.29901993274688721
vt 0.48236978054046631 0.24422672390937805
vt 0.48236978054046631 0.1894335001707077
vt 0.48236978054046631 0.13464027643203735
vt 0.48236978054046631 0.079847052693367004
vt 0.48236978054046631 0.025053828954696655
vt 0 0.46339958906173706
vt 0.24118489027023315 0.46339958906173706
vt 0.50775766372680664 0.061056680977344513
vt 0.50775766372680664 0.12211336195468903
vt 0.50775766372680664 0.18317003548145294
vt 0.50775766372680664 0.24422672390937805
vt 0.50775766372680664 0.30528339743614197
vt 0.50775766372680664 0.36634007096290588
vt 0.50775766372680664 0.4273967444896698
vt 0 0
vt 0.25387883186340332 0
vt 0 0.025053828954696655
vt 0.24118489027023315 0.025053828954696655
vt 0.99853515625 0
vt 0.89844846725463867 0
vt 0.99853515625 0.49121308326721191
vt 0.89844846725463867 0.49121308326721191
vt 0.99853515625 0.12280327081680298
vt 0.99853515625 0.24560654163360596
vt 0.99853515625 0.36840981245040894
vt 0.89844846725463867 0.42981144785881042
vt 0.89844846725463867 0.36840981245040894
vt 0.89844846725463867 0.30700817704200745
vt 0.89844846725463867 0.24560654163360596
vt 0.89844846725463867 0.18420490622520447
vt 0.89844846725463867 0.12280327081680298
vt 0.89844846725463867 0.061401635408401489
vt 0.79611724615097046 0
vt 0.69603055715560913 0
vt 0.79611724615097046 0.50775766372680664
vt 0.69603055715560913 0.50775766372680664
vt 0.79611724615097046 0.25387883186340332
vt 0.74607390165328979 0.50775766372680664
vt 0.74607390165328979 0.25387883186340332
vt 0.74607390165328979 0.38081824779510498
vt 0.77109557390213013 0.25387883186340332
vt 0.77109557390213013 0.38081824779510498
vt 0.72105222940444946 0.25387883186340332
vt 0.72105222940444946 0.38081824779510498
vt 0.10008668899536133 0.4899182915687561
vt 0.10008668899536133 0.99621111154556274
vt 0 0.99621111154556274
vt 0 0.74306470155715942
vt 0.050043344497680664 0.74306470155715942
vt 0 0.4899182915687561
vt 0.050043344497680664 0.4899182915687561
vt 0.025021672248840332 0.74306470155715942
vt 0.050043344497680664 0.61649149656295776
vt 0.025021672248840332 0.61649149656295776
vt 0.075065016746520996 0.74306470155715942
vt 0.075065016746520996 0.61649149656295776
vt 0.89698362350463867 0
vt 0.79758208990097046 0
vt 0.89698362350463867 0.48236978054046631
vt 0.79758208990097046 0.48236978054046631
vt 0.89698362350463867 0.16078992187976837
vt 0.89698362350463867 0.32157984375953674
vt 0.79758208990097046 0.24118489027023315
vt 0.84728282690048218 0
vt 0.84728282690048218 0.24118489027023315
vt 0.82243245840072632 0.24118489027023315
vt 0.84728282690048218 0.12059244513511658
vt 0.82243245840072632 0.12059244513511658
vt 0.87213325500488281 0.24118489027023315
vt 0.87213325500488281 0.12059244513511658
vt 0.20163822174072266 0.4899182915687561
vt 0.10155153274536133 0.4899182915687561
vt 0.20163822174072266 0.92104655504226685
vt 0.10155153274536133 0.92104655504226685
vt 0.20163822174072266 0.59770035743713379
vt 0.20163822174072266 0.70548242330551147
vt 0.20163822174072266 0.81326448917388916
vt 0.10155153274536133 0.86715549230575562
vt 0.10155153274536133 0.81326448917388916
vt 0.10155153274536133 0.75937342643737793
vt 0.10155153274536133 0.70548242330551147
vt 0.10155153274536133 0.65159136056900024
vt 0.10155153274536133 0.59770035743713379
vt 0.10155153274536133 0.54380929470062256
vt 0.30250462889671326 0.4899182915687561
vt 0.20310306549072266 0.4899182915687561
vt 0.30250462889671326 0.97228807210922241
vt 0.25280383229255676 0.73110318183898926
vt 0.25280383229255676 0.97228807210922241
vt 0.25280383229255676 0.85169559717178345
vt 0.27765423059463501 0.73110318183898926
vt 0.27765423059463501 0.85169559717178345
vt 0.22795344889163971 0.73110318183898926
vt 0.22795344889163971 0.85169559717178345
vt 0.30250462889671326 0.65070819854736328
vt 0.30250462889671326 0.81149816513061523
vt 0.20310306549072266 0.97228807210922241
vt 0.20310306549072266 0.73110318183898926
vt 0.63597583770751953 0.10166195034980774
vt 0.63597583770751953 0.00011041631660191342
vt 0.65568959712982178 0
vt 0.66453832387924194 0.1004365086555481
vt 0.63597583770751953 0.050886180251836777
vt 0.66011399030685425 0.050218254327774048
vt 0.69456571340560913 0.10166195034980774
vt 0.67485195398330688 0
vt 0.69456571340560913 0.00011041631660191342
vt 0.66600316762924194 0.1004365086555481
vt 0.69456571340560913 0.050886180251836777
vt 0.67042756080627441 0.050218254327774048
vn -0.99977964162826538 0.020991683006286621 0
vn 0.020991683006286621 -0.99977964162826538 0
vn 0.020991683006286621 -0.99977964162826538 0
vn 0.020991683006286621 -0.99977964162826538 0
vn -0.033088423311710358 -0.99945241212844849 0
vn -0.34074962139129639 -0.94015407562255859 0
vn -0.70710676908493042 -0.70710676908493042 0
vn -0.94015407562255859 -0.34074962139129639 0
vn -0.99945241212844849 -0.033088423311710358 0
vn -0.033088423311710358 -0.99945241212844849 0
vn -0.033088423311710358 -0.99945241212844849 0
vn -0.033088423311710358 -0.99945241212844849 0
vn -0.95392471551895142 -0.30004596710205078 0
vn -0.70710676908493042 -0.70710676908493042 0
vn -0.30004596710205078 -0.95392471551895142 0
vn -0.99977964162826538 0.020991683006286621 0
vn -0.99945241212844849 -0.033088423311710358 0
vn -0.99945241212844849 -0.033088423311710358 0
vn -0.99945241212844849 -0.033088423311710358 0
vn 0.99989479780197144 0.014503604732453823 0
vn 0.014503604732453823 0.99989479780197144 0
vn 0.014503604732453823 0.99989479780197144 0
vn 0.068356417119503021 0.99766093492507935 0
vn 0.20488435029983521 0.9787861704826355 0
vn 0.36566850543022156 0.93074518442153931 0
vn 0.54031813144683838 0.84146082401275635 0
vn 0.70710676908493042 0.70710676908493042 0
vn 0.84146082401275635 0.54031813144683838 0
vn 0.93074518442153931 0.36566850543022156 0
vn 0.9787861704826355 0.20488435029983521 0
vn 0.99766093492507935 0.068356417119503021 0
vn 0.068356417119503021 0.99766093492507935 0
vn 0.068356417119503021 0.99766093492507935 0
vn 0.98789316415786743 0.15513564646244049 0
vn 0.94498288631439209 0.32711976766586304 0
vn 0.85400599241256714 0.5202631950378418 0
vn 0.70710676908493042 0.70710676908493042 0
vn 0.5202631950378418 0.85400599241256714 0
vn 0.32711976766586304 0.94498288631439209 0
vn 0.15513564646244049 0.98789316415786743 0
vn 0.99989479780197144 0.014503604732453823 0
vn 0.99989479780197144 0.014503604732453823 0
vn 0.99766093492507935 0.068356417119503021 0
vn 0.99766093492507935 0.068356417119503021 0
vn 0 0 -1
vn 0 0 -1
vn 0 0 -1
vn 0 0 -1
vn 0 0 -1
vn 0 0 -1
vn 0 0 -1
vn 0 0 -1
vn 0 0 -1
vn 0 0 -1
vn 0 0 -1
vn 0 0 -1
vn 0 0 -1
vn 0 0 -1
vn -1 0 0
vn -1 0 0
vn -1 0 0
vn -1 0 0
vn -1 0 0
vn -1 0 0
vn -1 0 0
vn -1 0 0
vn -1 0 0
vn -1 0 0
vn -1 0 0
vn -1 0 0
vn 0 -1 0
vn 0 -1 0
vn 0 -1 0
vn 0 -1 0
vn 0 -1 0
vn 0 -1 0
vn 0 -1 0
vn 0 -1 0
vn 0 -1 0
vn 0 -1 0
vn 0 -1 0
vn 0 -1 0
vn 0.99573802947998047 -0.092226691544055939 0
vn 0.99573802947998047 -0.092226691544055939 0
vn 0.99573802947998047 -0.092226691544055939 0
vn 0.99573802947998047 -0.092226691544055939 0
vn 0.99573802947998047 -0.092226691544055939 0
vn 0.99573802947998047 -0.092226691544055939 0
vn 0.99573802947998047 -0.092226691544055939 0
vn 0.99573802947998047 -0.092226691544055939 0
vn 0.99573802947998047 -0.092226691544055939 0
vn 0.99573802947998047 -0.092226691544055939 0
vn 0.99573802947998047 -0.092226691544055939 0
vn 0.99573802947998047 -0.092226691544055939 0
vn 0.99573802947998047 -0.092226691544055939 0
vn 0.99573802947998047 -0.092226691544055939 0
vn 0 0 1
vn 0 0 1
vn 0 0 1
vn 0 0 1
vn 0 0 1
vn 0 0 1
vn 0 0 1
vn 0 0 1
vn 0 0 1
vn 0 0 1
vn 0 0 1
vn 0 0 1
vn 0 0 1
vn 0 0 1
vn -0.092226691544055939 0.99573802947998047 0
vn -0.092226691544055939 0.99573802947998047 0
vn -0.092226691544055939 0.99573802947998047 0
vn -0.092226691544055939 0.99573802947998047 0
vn -0.092226691544055939 0.99573802947998047 0
vn -0.092226691544055939 0.99573802947998047 0
vn -0.092226691544055939 0.99573802947998047 0
vn -0.092226691544055939 0.99573802947998047 0
vn -0.092226691544055939 0.99573802947998047 0
vn -0.092226691544055939 0.99573802947998047 0
vn -0.092226691544055939 0.99573802947998047 0
vn -0.092226691544055939 0.99573802947998047 0
vn -0.092226691544055939 0.99573802947998047 0
vn -0.092226691544055939 0.99573802947998047 0
vn 0 0 1
vn 0 0 1
vn 0 0 1
vn 0 0 1
vn 0 0 1
vn 0 0 1
vn 0 0 1
vn 0 0 1
vn 0 0 1
vn 0 0 1
vn 0 0 1
vn 0 0 1
f 18/18/18 9/9/9 1/1/1
f 1/1/1 9/9/9 13/13/13
f 7/7/7 14/14/14 8/8/8
f 19/19/19 18/18/18 16/16/16
f 1/1/1 16/16/16 18/18/18
f 16/16/16 17/17/17 19/19/19
f 14/14/14 7/7/7 6/6/6
f 15/15/15 6/6/6 5/5/5
f 12/12/12 3/3/3 2/2/2
f 4/4/4 11/11/11 10/10/10
f 11/11/11 4/4/4 3/3/3
f 12/12/12 11/11/11 3/3/3
f 20/20/20 34/34/34 31/31/31
f 42/42/42 20/20/20 31/31/31
f 29/29/29 30/30/30 35/35/35
f 35/35/35 36/36/36 29/29/29
f 41/41/41 42/42/42 44/44/44
f 36/36/36 37/37/37 28/28/28
f 26/26/26 27/27/27 37/37/37
f 38/38/38 39/39/39 25/25/25
f 39/39/39 40/40/40 24/24/24
f 40/40/40 21/21/21 23/23/23
f 33/33/33 23/23/23 21/21/21
f 33/33/33 22/22/22 32/32/32
f 33/33/33 21/21/21 22/22/22
f 1/45/45 13/49/49 34/58/58
f 13/49/49 14/50/50 36/56/56
f 35/57/57 34/58/58 13/49/49
f 36/56/56 14/50/50 37/55/55
f 38/54/54 37/55/55 14/50/50
f 15/51/51 38/54/54 14/50/50
f 15/51/51 2/47/47 40/52/52
f 15/51/51 39/53/53 38/54/54
f 40/52/52 39/53/53 15/51/51
f 51/70/70 50/69/69 47/66/66
f 47/66/66 46/65/65 49/68/68
f 48/67/67 2/59/59 3/63/63
f 49/68/68 48/67/67 3/63/63
f 46/65/65 2/59/59 48/67/67
f 50/69/69 21/60/60 46/65/65
f 2/59/59 46/65/65 21/60/60
f 22/62/62 21/60/60 50/69/69
f 45/64/64 47/66/66 49/68/68
f 3/63/63 4/61/61 49/68/68
f 4/61/61 45/64/64 49/68/68
f 22/62/62 51/70/70 45/64/64
f 47/66/66 45/64/64 51/70/70
f 50/69/69 51/70/70 22/62/62
f 54/78/78 56/80/80 55/79/79
f 52/75/75 55/79/79 58/82/82
f 53/77/77 16/71/71 58/82/82
f 57/81/81 58/82/82 16/71/71
f 55/79/79 53/77/77 58/82/82
f 41/76/76 53/77/77 56/80/80
f 55/79/79 56/80/80 53/77/77
f 42/74/74 41/76/76 56/80/80
f 52/75/75 57/81/81 1/72/72
f 16/71/71 1/72/72 57/81/81
f 20/73/73 52/75/75 1/72/72
f 42/74/74 54/78/78 20/73/73
f 52/75/75 20/73/73 54/78/78
f 61/92/92 63/94/94 62/93/93
f 60/91/91 62/93/93 65/96/96
f 65/96/96 10/83/83 11/87/87
f 59/90/90 10/83/83 65/96/96
f 63/94/94 32/84/84 59/90/90
f 59/90/90 62/93/93 63/94/94
f 62/93/93 59/90/90 65/96/96
f 33/89/89 32/84/84 63/94/94
f 11/87/87 64/95/95 65/96/96
f 5/85/85 64/95/95 12/88/88
f 11/87/87 12/88/88 64/95/95
f 60/91/91 64/95/95 5/85/85
f 23/86/86 61/92/92 60/91/91
f 61/92/92 23/86/86 33/89/89
f 23/86/86 60/91/91 5/85/85
f 63/94/94 61/92/92 33/89/89
f 24/110/110 23/98/98 5/97/97
f 6/101/101 24/110/110 5/97/97
f 6/101/101 25/109/109 24/110/110
f 26/108/108 7/102/102 27/107/107
f 26/108/108 25/109/109 6/101/101
f 7/102/102 26/108/108 6/101/101
f 7/102/102 8/103/103 28/106/106
f 8/103/103 9/99/99 30/104/104
f 9/99/99 31/100/100 30/104/104
f 27/107/107 7/102/102 28/106/106
f 72/120/120 71/119/119 66/114/114
f 68/116/116 66/114/114 69/117/117
f 69/117/117 9/111/111 18/121/121
f 18/121/121 19/122/122 69/117/117
f 66/114/114 9/111/111 69/117/117
f 71/119/119 44/124/124 31/112/112
f 31/112/112 66/114/114 71/119/119
f 66/114/114 31/112/112 9/111/111
f 72/120/120 44/124/124 71/119/119
f 70/118/118 19/122/122 17/113/113
f 67/115/115 70/118/118 17/113/113
f 67/115/115 72/120/120 68/116/116
f 72/120/120 67/115/115 43/123/123
f 67/115/115 68/116/116 70/118/118
f 44/124/124 72/120/120 43/123/123
f 17/127/127 16/126/126 53/129/129
f 67/130/130 53/129/129 41/125/125
f 41/125/125 43/128/128 67/130/130
f 17/127/127 53/129/129 67/130/130
f 45/135/135 10/132/132 59/136/136
f 4/133/133 10/132/132 45/135/135
f 59/136/136 32/134/134 22/131/131
f 45/135/135 59/136/136 22/131/131
f 9/9/9 8/8/8 13/13/13
f 14/14/14 13/13/13 8/8/8
f 14/14/14 6/6/6 15/15/15
f 15/15/15 5/5/5 2/2/2
f 12/12/12 2/2/2 5/5/5
f 34/34/34 30/30/30 31/31/31
f 42/42/42 31/31/31 44/44/44
f 30/30/30 34/34/34 35/35/35
f 36/36/36 28/28/28 29/29/29
f 41/41/41 44/44/44 43/43/43
f 37/37/37 27/27/27 28/28/28
f 26/26/26 37/37/37 38/38/38
f 38/38/38 25/25/25 26/26/26
f 39/39/39 24/24/24 25/25/25
f 40/40/40 23/23/23 24/24/24
f 1/45/45 34/58/58 20/46/46
f 13/49/49 36/56/56 35/57/57
f 2/47/47 21/48/48 40/52/52
f 50/69/69 46/65/65 47/66/66
f 46/65/65 48/67/67 49/68/68
f 54/78/78 55/79/79 52/75/75
f 52/75/75 58/82/82 57/81/81
f 42/74/74 56/80/80 54/78/78
f 61/92/92 62/93/93 60/91/91
f 60/91/91 65/96/96 64/95/95
f 8/103/103 29/105/105 28/106/106
f 8/103/103 30/104/104 29/105/105
f 72/120/120 66/114/114 68/116/116
f 68/116/116 69/117/117 70/118/118
f 19/122/122 70/118/118 69/117/117
