# Rhino

v -0.29750823974609375 0.043180465698242188 0.072214722633361816
v -0.2972869873046875 0.083997726440429688 0.072214722633361816
v 0.08798980712890625 0.043180465698242188 -0.30052638053894043
v 0.08797454833984375 0.083997726440429688 -0.30030947923660278
v -0.028961181640625 0.083997726440429688 -0.2921314537525177
v -0.13124847412109375 0.083997726440429688 -0.26900282502174377
v -0.19455718994140625 0.083997726440429688 -0.23981180787086487
v -0.24106597900390625 0.083997726440429688 -0.20239648222923279
v -0.28870391845703125 0.083997726440429688 -0.10661347210407257
v -0.29969024658203125 0.083997726440429688 -0.024425067007541656
v -0.29990386962890625 0.043180465698242188 -0.024457300081849098
v -0.288909912109375 0.043180465698242188 -0.10669111460447311
v -0.24120330810546875 0.043180465698242188 -0.20256434381008148
v -0.19464874267578125 0.043180465698242188 -0.2400091141462326
v -0.1313018798828125 0.043180465698242188 -0.26921480894088745
v -0.0289764404296875 0.043180465698242188 -0.29234889149665833
v -0.49509429931640625 0.10231781005859375 0.072214722633361816
v 0.10231781005859375 0.10231781005859375 -0.49759292602539063
v -0.03781890869140625 0.10231781005859375 -0.48989683389663696
v -0.17510986328125 0.10231781005859375 -0.46180805563926697
v -0.27779388427734375 0.10231781005859375 -0.41928699612617493
v -0.36673736572265625 0.10231781005859375 -0.35509541630744934
v -0.43094635009765625 0.10231781005859375 -0.27323618531227112
v -0.47325897216796875 0.10231781005859375 -0.17724296450614929
v -0.49559783935546875 0.10231781005859375 -0.053744684904813766
v -0.49750518798828125 0.043180465698242188 0.072214722633361816
v 0.1024932861328125 0.043180465698242188 -0.5
v -0.03792572021484375 0.043180465698242188 -0.49230977892875671
v -0.17565155029296875 0.043180465698242188 -0.4641605019569397
v -0.27880859375 0.043180465698242188 -0.42147678136825562
v -0.3682708740234375 0.043180465698242188 -0.35695850849151611
v -0.43289947509765625 0.043180465698242188 -0.27461919188499451
v -0.4755096435546875 0.043180465698242188 -0.17810472846031189
v -0.49799346923828125 0.043180465698242188 -0.054102417081594467
vt 0.057654682546854019 0
vt 0.057654682546854019 0.039760489016771317
vt 0.68157792091369629 0
vt 0.68157792091369629 0.039760489016771317
vt 0.59085577726364136 0.039760489016771317
vt 0.50013363361358643 0.039760489016771317
vt 0.42836892604827881 0.039760489016771317
vt 0.35660424828529358 0.039760489016771317
vt 0.22059063613414764 0.039760489016771317
vt 0.13912266492843628 0.039760489016771317
vt 0.13912266492843628 0
vt 0.22059063613414764 0
vt 0.35660424828529358 0
vt 0.42836892604827881 0
vt 0.50013363361358643 0
vt 0.59085577726364136 0
vt 0.057654682546854019 0.087472729384899139
vt 0.057654682546854019 0.28110459446907043
vt 0.99615061283111572 0.087472729384899139
vt 0.99615061283111572 0.28110459446907043
vt 0.1801975816488266 0.087472729384899139
vt 0.30274048447608948 0.087472729384899139
vt 0.50733011960983276 0.087472729384899139
vt 0.61527746915817261 0.087472729384899139
vt 0.72322481870651245 0.087472729384899139
vt 0.85968774557113647 0.087472729384899139
vt 0.85968774557113647 0.28110459446907043
vt 0.72322481870651245 0.28110459446907043
vt 0.61527746915817261 0.28110459446907043
vt 0.50733011960983276 0.28110459446907043
vt 0.40503531694412231 0.28110459446907043
vt 0.30274048447608948 0.28110459446907043
vt 0.1801975816488266 0.28110459446907043
vt 0.056189838796854019 0
vt 0 0
vt 0.056189838796854019 0.94088047742843628
vt 0 0.94088047742843628
vt 0.056189838796854019 0.12285426259040833
vt 0.056189838796854019 0.24570852518081665
vt 0.056189838796854019 0.34826326370239258
vt 0.056189838796854019 0.45081797242164612
vt 0.056189838796854019 0.55903959274291992
vt 0.056189838796854019 0.66726124286651611
vt 0.056189838796854019 0.80407083034515381
vt 0 0.80407083034515381
vt 0 0.66726124286651611
vt 0 0.55903959274291992
vt 0 0.45081797242164612
vt 0 0.34826326370239258
vt 0 0.24570852518081665
vt 0 0.12285426259040833
vt 0.057654682546854019 0.51346111297607422
vt 0.057654682546854019 0.70840924978256226
vt 0.99853515625 0.51346111297607422
vt 0.99853515625 0.70840924978256226
vt 0.18050894141197205 0.51346111297607422
vt 0.30336320400238037 0.51346111297607422
vt 0.4059179425239563 0.51346111297607422
vt 0.50847268104553223 0.51346111297607422
vt 0.61669427156448364 0.51346111297607422
vt 0.72491592168807983 0.51346111297607422
vt 0.86172550916671753 0.51346111297607422
vt 0.86172550916671753 0.70840924978256226
vt 0.72491592168807983 0.70840924978256226
vt 0.61669427156448364 0.70840924978256226
vt 0.50847268104553223 0.70840924978256226
vt 0.30336320400238037 0.70840924978256226
vt 0.18050894141197205 0.70840924978256226
vn 0.99510443210601807 -0.0053016636520624161 -0.098686851561069489
vn 0.99510031938552856 -0.0053016417659819126 -0.098728165030479431
vn 0.0087446756660938263 -0.0053100674413144588 0.99994766712188721
vn 0.0087505532428622246 -0.0053100651130080223 0.99994760751724243
vn 0.13724817335605621 -0.0053089526481926441 0.99052244424819946
vn 0.32277357578277588 -0.0052963895723223686 0.94646137952804565
vn 0.52226495742797852 -0.0052931858226656914 0.85276687145233154
vn 0.73123222589492798 -0.0052805589511990547 0.68210816383361816
vn 0.97421067953109741 -0.0052717882208526134 0.22557871043682098
vn 0.9986114501953125 -0.0053108576685190201 0.052411854267120361
vn 0.99860978126525879 -0.0053108739666640759 0.052443541586399078
vn 0.97418040037155151 -0.0052718864753842354 0.22570957243442535
vn 0.73115420341491699 -0.0052806390449404716 0.68219178915023804
vn 0.52218043804168701 -0.0052932463586330414 0.85281860828399658
vn 0.32272732257843018 -0.0052964170463383198 0.94647717475891113
vn 0.13721983134746552 -0.0053089666180312634 0.99052637815475464
vn 0.092222832143306732 0.99569636583328247 -0.0091498224064707756
vn 0.092224858701229095 0.99571824073791504 -0.0063058845698833466
vn 0.00080969894770532846 0.99570989608764648 0.092526324093341827
vn 0.0003857905394397676 0.9957129955291748 0.092495791614055634
vn 0.092389009892940521 0.99571120738983154 0.0048490124754607677
vn 0.090793699026107788 0.99564778804779053 0.021023303270339966
vn 0.068036578595638275 0.9956621527671814 0.063465893268585205
vn 0.048478562384843826 0.99568265676498413 0.079156972467899323
vn 0.029943067580461502 0.99568784236907959 0.087801359593868256
vn 0.01270237285643816 0.99570810794830322 0.091673247516155243
vn 0.010763151571154594 0.99572283029556274 0.091761432588100433
vn 0.027195153757929802 0.99571120738983154 0.088428698480129242
vn 0.044061951339244843 0.99572265148162842 0.081209324300289154
vn 0.064208231866359711 0.99571019411087036 0.066622383892536163
vn 0.080144234001636505 0.99565356969833374 0.047443501651287079
vn 0.088393412530422211 0.99571114778518677 0.027311632409691811
vn 0.092104576528072357 0.99572640657424927 0.0067590866237878799
vn -0.99684464931488037 0.040681887418031693 0.06815936416387558
vn -0.99686515331268311 0.040682725608348846 0.067858271300792694
vn -0.0041674133390188217 0.040656909346580505 -0.99916446208953857
vn -0.0041196825914084911 0.040657058358192444 -0.9991646409034729
vn -0.9964909553527832 0.040720894932746887 -0.073127403855323792
vn -0.9546433687210083 0.04064805805683136 -0.29496392607688904
vn -0.85982227325439453 0.040376603603363037 -0.50899451971054077
vn -0.6933673620223999 0.040643468499183655 -0.7194371223449707
vn -0.47650343179702759 0.040702946484088898 -0.87822991609573364
vn -0.29370787739753723 0.040648318827152252 -0.95503056049346924
vn -0.11639975011348724 0.040703918784856796 -0.99236804246902466
vn -0.11619666218757629 0.040704518556594849 -0.99239182472229004
vn -0.29346820712089539 0.040649082511663437 -0.95510423183441162
vn -0.47617921233177185 0.040703888982534409 -0.87840569019317627
vn -0.69313037395477295 0.040644515305757523 -0.71966540813446045
vn -0.85958594083786011 0.040378108620643616 -0.50939333438873291
vn -0.95449107885360718 0.040649432688951492 -0.29545620083808899
vn -0.99647754430770874 0.040721453726291656 -0.073309212923049927
vn 0 -1 0
vn 0 -1 0
vn 0 -1 0
vn 0 -1 0
vn 0 -1 0
vn 0 -1 0
vn 0 -1 0
vn 0 -1 0
vn 0 -1 0
vn 0 -1 0
vn 0 -1 0
vn 0 -1 0
vn 0 -1 0
vn 0 -1 0
vn 0 -1 0
vn 0 -1 0
vn 0 -1 0
f 1/1/1 11/11/11 10/10/10
f 12/12/12 13/13/13 8/8/8
f 11/11/11 12/12/12 9/9/9
f 13/13/13 14/14/14 7/7/7
f 14/14/14 15/15/15 6/6/6
f 3/3/3 4/4/4 16/16/16
f 15/15/15 16/16/16 5/5/5
f 2/17/17 10/21/21 17/18/18
f 10/21/21 9/22/22 25/33/33
f 23/31/31 8/23/23 22/30/30
f 23/31/31 24/32/32 9/22/22
f 8/23/23 23/31/31 9/22/22
f 8/23/23 7/24/24 22/30/30
f 5/26/26 19/27/27 20/28/28
f 6/25/25 20/28/28 21/29/29
f 4/19/19 18/20/20 19/27/27
f 17/34/34 25/38/38 26/35/35
f 24/39/39 23/40/40 33/50/50
f 25/38/38 24/39/39 34/51/51
f 31/48/48 32/49/49 22/41/41
f 20/43/43 29/46/46 30/47/47
f 18/36/36 27/37/37 28/45/45
f 19/44/44 28/45/45 29/46/46
f 30/47/47 31/48/48 21/42/42
f 26/52/52 34/56/56 11/68/68
f 12/67/67 33/57/57 32/58/58
f 34/56/56 33/57/57 12/67/67
f 32/58/58 13/66/66 12/67/67
f 13/66/66 32/58/58 31/59/59
f 31/59/59 30/60/60 14/65/65
f 28/62/62 16/63/63 29/61/61
f 29/61/61 15/64/64 30/60/60
f 27/54/54 3/55/55 28/62/62
f 1/1/1 10/10/10 2/2/2
f 12/12/12 8/8/8 9/9/9
f 11/11/11 9/9/9 10/10/10
f 13/13/13 7/7/7 8/8/8
f 14/14/14 6/6/6 7/7/7
f 4/4/4 5/5/5 16/16/16
f 15/15/15 5/5/5 6/6/6
f 10/21/21 25/33/33 17/18/18
f 9/22/22 24/32/32 25/33/33
f 7/24/24 21/29/29 22/30/30
f 5/26/26 20/28/28 6/25/25
f 6/25/25 21/29/29 7/24/24
f 4/19/19 19/27/27 5/26/26
f 25/38/38 34/51/51 26/35/35
f 23/40/40 32/49/49 33/50/50
f 24/39/39 33/50/50 34/51/51
f 32/49/49 23/40/40 22/41/41
f 20/43/43 30/47/47 21/42/42
f 18/36/36 28/45/45 19/44/44
f 19/44/44 29/46/46 20/43/43
f 31/48/48 22/41/41 21/42/42
f 26/52/52 11/68/68 1/53/53
f 34/56/56 12/67/67 11/68/68
f 31/59/59 14/65/65 13/66/66
f 16/63/63 15/64/64 29/61/61
f 15/64/64 14/65/65 30/60/60
f 3/55/55 16/63/63 28/62/62
v 0.10231781005859375 -0.29768180847167969 0.074621796607971191
v 0.06150054931640625 -0.29746437072753906 0.074621796607971191
v 0.10231781005859375 0.087818145751953125 -0.29811930656433105
v 0.06150054931640625 0.087800979614257813 -0.29790240526199341
v 0.06150054931640625 -0.029139518737792969 -0.28972437977790833
v 0.06150054931640625 -0.13142681121826172 -0.2665957510471344
v 0.06150054931640625 -0.19473552703857422 -0.2374047189950943
v 0.06150054931640625 -0.24123764038085938 -0.19998940825462341
v 0.06150054931640625 -0.28888130187988281 -0.1042063981294632
v 0.06150054931640625 -0.29986381530761719 -0.022017993032932281
v 0.10231781005859375 -0.300079345703125 -0.022050226107239723
v 0.10231781005859375 -0.28908348083496094 -0.10428404062986374
v 0.10231781005859375 -0.24137592315673828 -0.20015726983547211
v 0.10231781005859375 -0.19482707977294922 -0.23760204017162323
v 0.10231781005859375 -0.13147544860839844 -0.26680770516395569
v 0.10231781005859375 -0.029149055480957031 -0.28994181752204895
v 0.043182373046875 -0.49526786804199219 0.074621796607971191
v 0.043182373046875 0.10214424133300781 -0.49518585205078125
v 0.043182373046875 0.031972885131835938 -0.493308424949646
v 0.043182373046875 -0.037994384765625 -0.48748975992202759
v 0.043182373046875 -0.10725021362304688 -0.47657290101051331
v 0.043182373046875 -0.17528820037841797 -0.45940098166465759
v 0.043182373046875 -0.2779693603515625 -0.41687989234924316
v 0.043182373046875 -0.36690902709960938 -0.35268834233283997
v 0.043182373046875 -0.43111801147460938 -0.27082911133766174
v 0.043182373046875 -0.4734344482421875 -0.17483589053153992
v 0.043182373046875 -0.48809432983398438 -0.11377935111522675
v 0.043182373046875 -0.49577617645263672 -0.051337610930204391
v 0.043182373046875 -0.49774551391601563 0.011719409376382828
v 0.05234527587890625 -0.39636611938476563 0.074621796607971191
v 0.07274627685546875 -0.4964752197265625 0.074621796607971191
v 0.10231781005859375 -0.49768161773681641 0.074621796607971191
v 0.07274627685546875 0.10223007202148438 -0.49638938903808594
v 0.10231781005859375 0.10231781005859375 -0.49759292602539063
v 0.10231781005859375 0.032016754150390625 -0.49572047591209412
v 0.10231781005859375 -0.038102149963378906 -0.48990270495414734
v 0.10231781005859375 -0.10754680633544922 -0.47897014021873474
v 0.10231781005859375 -0.17582321166992188 -0.46175342798233032
v 0.10231781005859375 -0.27898502349853516 -0.41906970739364624
v 0.10231781005859375 -0.36844253540039063 -0.35455143451690674
v 0.10231781005859375 -0.43307685852050781 -0.27221211791038513
v 0.10231781005859375 -0.47568607330322266 -0.17569765448570251
v 0.10231781005859375 -0.49044036865234375 -0.11436930298805237
v 0.10231781005859375 -0.49816703796386719 -0.051695343106985092
v 0.10231781005859375 -0.50015163421630859 0.011557322926819324
v 0.07274627685546875 -0.45088100433349609 -0.23616684973239899
v 0.07274627685546875 -0.35277080535888672 -0.36719772219657898
v 0.07274627685546875 -0.21435260772705078 -0.44725823402404785
v 0.07274627685546875 -0.058394432067871094 -0.48608550429344177
v 0.10231781005859375 -0.39768123626708984 0.074621796607971191
vt 0.057654682546854019 0
vt 0.057654682546854019 0.039760489016771317
vt 0.68157792091369629 0
vt 0.68157792091369629 0.039760489016771317
vt 0.59085577726364136 0.039760489016771317
vt 0.50013363361358643 0.039760489016771317
vt 0.42836892604827881 0.039760489016771317
vt 0.35660424828529358 0.039760489016771317
vt 0.22059063613414764 0.039760489016771317
vt 0.13912266492843628 0.039760489016771317
vt 0.13912266492843628 0
vt 0.22059063613414764 0
vt 0.35660424828529358 0
vt 0.42836892604827881 0
vt 0.50013363361358643 0
vt 0.59085577726364136 0
vt 0.057654682546854019 0.087472729384899139
vt 0.057654682546854019 0.28110459446907043
vt 0.99615061283111572 0.087472729384899139
vt 0.99615061283111572 0.28110459446907043
vt 0.1801975816488266 0.087472729384899139
vt 0.30274048447608948 0.087472729384899139
vt 0.50733011960983276 0.087472729384899139
vt 0.61527746915817261 0.087472729384899139
vt 0.72322481870651245 0.087472729384899139
vt 0.85968774557113647 0.087472729384899139
vt 0.92791920900344849 0.28110459446907043
vt 0.85968774557113647 0.28110459446907043
vt 0.79145634174346924 0.28110459446907043
vt 0.72322481870651245 0.28110459446907043
vt 0.61527746915817261 0.28110459446907043
vt 0.50733011960983276 0.28110459446907043
vt 0.40503531694412231 0.28110459446907043
vt 0.30274048447608948 0.28110459446907043
vt 0.24146904051303864 0.28110459446907043
vt 0.1801975816488266 0.28110459446907043
vt 0.11892613768577576 0.28110459446907043
vt 0.057654682546854019 0.18428865075111389
vt 0.056189838796854019 0
vt 0.02809491939842701 0
vt 0 0
vt 0.056189838796854019 0.94088047742843628
vt 0.02809491939842701 0.94088047742843628
vt 0 0.94088047742843628
vt 0.056189838796854019 0.061427131295204163
vt 0.056189838796854019 0.12285426259040833
vt 0.056189838796854019 0.18428139388561249
vt 0.056189838796854019 0.24570852518081665
vt 0.056189838796854019 0.34826326370239258
vt 0.056189838796854019 0.45081797242164612
vt 0.056189838796854019 0.55903959274291992
vt 0.056189838796854019 0.66726124286651611
vt 0.056189838796854019 0.73566609621047974
vt 0.056189838796854019 0.80407083034515381
vt 0.056189838796854019 0.87247568368911743
vt 0 0.87247568368911743
vt 0 0.80407083034515381
vt 0 0.73566609621047974
vt 0 0.66726124286651611
vt 0 0.55903959274291992
vt 0 0.45081797242164612
vt 0 0.34826326370239258
vt 0 0.24570852518081665
vt 0 0.18428139388561249
vt 0 0.12285426259040833
vt 0 0.061427131295204163
vt 0.02809491939842701 0.30929246544837952
vt 0.02809491939842701 0.47067111730575562
vt 0.02809491939842701 0.62751269340515137
vt 0.02809491939842701 0.78409439325332642
vt 0.057654682546854019 0.51346111297607422
vt 0.057654682546854019 0.70840924978256226
vt 0.99853515625 0.51346111297607422
vt 0.99853515625 0.70840924978256226
vt 0.11908181011676788 0.51346111297607422
vt 0.18050894141197205 0.51346111297607422
vt 0.24193607270717621 0.51346111297607422
vt 0.30336320400238037 0.51346111297607422
vt 0.4059179425239563 0.51346111297607422
vt 0.50847268104553223 0.51346111297607422
vt 0.61669427156448364 0.51346111297607422
vt 0.72491592168807983 0.51346111297607422
vt 0.79332077503204346 0.51346111297607422
vt 0.86172550916671753 0.51346111297607422
vt 0.93013036251068115 0.51346111297607422
vt 0.057654682546854019 0.61093521118164063
vt 0.86172550916671753 0.70840924978256226
vt 0.72491592168807983 0.70840924978256226
vt 0.61669427156448364 0.70840924978256226
vt 0.50847268104553223 0.70840924978256226
vt 0.30336320400238037 0.70840924978256226
vt 0.18050894141197205 0.70840924978256226
vn 0.0053016636520624161 0.99510443210601807 -0.098686851561069489
vn 0.0053016417659819126 0.99510031938552856 -0.098728165030479431
vn 0.0053100674413144588 0.0087446756660938263 0.99994766712188721
vn 0.0053100651130080223 0.0087505532428622246 0.99994760751724243
vn 0.0053089526481926441 0.13724817335605621 0.99052244424819946
vn 0.0052963895723223686 0.32277357578277588 0.94646137952804565
vn 0.0052931858226656914 0.52226495742797852 0.85276687145233154
vn 0.0052805589511990547 0.73123222589492798 0.68210816383361816
vn 0.0052717882208526134 0.97421067953109741 0.22557871043682098
vn 0.0053108576685190201 0.9986114501953125 0.052411854267120361
vn 0.0053108739666640759 0.99860978126525879 0.052443541586399078
vn 0.0052718864753842354 0.97418040037155151 0.22570957243442535
vn 0.0052806390449404716 0.73115420341491699 0.68219178915023804
vn 0.0052932463586330414 0.52218043804168701 0.85281860828399658
vn 0.0052964170463383198 0.32272732257843018 0.94647717475891113
vn 0.0053089666180312634 0.13721983134746552 0.99052637815475464
vn -0.99569636583328247 0.092222832143306732 -0.0091498224064707756
vn -0.99571824073791504 0.092224858701229095 -0.0063058845698833466
vn -0.99570989608764648 0.00080969894770532846 0.092526324093341827
vn -0.9957129955291748 0.0003857905394397676 0.092495791614055634
vn -0.99571120738983154 0.092389009892940521 0.0048490124754607677
vn -0.99564778804779053 0.090793699026107788 0.021023303270339966
vn -0.9956621527671814 0.068036578595638275 0.063465893268585205
vn -0.99568265676498413 0.048478562384843826 0.079156972467899323
vn -0.99568784236907959 0.029943067580461502 0.087801359593868256
vn -0.99570810794830322 0.01270237285643816 0.091673247516155243
vn -0.99571341276168823 0.0048126345500349998 0.092366665601730347
vn -0.99572283029556274 0.010763151571154594 0.091761432588100433
vn -0.99572139978408813 0.01825576089322567 0.090585023164749146
vn -0.99571120738983154 0.027195153757929802 0.088428698480129242
vn -0.99572265148162842 0.044061951339244843 0.081209324300289154
vn -0.99571019411087036 0.064208231866359711 0.066622383892536163
vn -0.99565356969833374 0.080144234001636505 0.047443501651287079
vn -0.99571114778518677 0.088393412530422211 0.027311632409691811
vn -0.99573415517807007 0.090854421257972717 0.016092395409941673
vn -0.99572640657424927 0.092104576528072357 0.0067590866237878799
vn -0.99570894241333008 0.092537730932235718 -0.00068195123458281159
vn -0.99570947885513306 0.092224046587944031 -0.0075771687552332878
vn -0.040681887418031693 -0.99684464931488037 0.06815936416387558
vn -0.040682308375835419 -0.99685496091842651 0.068008638918399811
vn -0.040682725608348846 -0.99686515331268311 0.067858271300792694
vn -0.040656909346580505 -0.0041674133390188217 -0.99916446208953857
vn -0.040656983852386475 -0.0041435272432863712 -0.99916458129882813
vn -0.040657058358192444 -0.0041196825914084911 -0.9991646409034729
vn -0.040637597441673279 -0.99914681911468506 0.0073631522245705128
vn -0.040720894932746887 -0.9964909553527832 -0.073127403855323792
vn -0.040758077055215836 -0.98385524749755859 -0.17426325380802155
vn -0.04064805805683136 -0.9546433687210083 -0.29496392607688904
vn -0.040376603603363037 -0.85982227325439453 -0.50899451971054077
vn -0.040643468499183655 -0.6933673620223999 -0.7194371223449707
vn -0.040702946484088898 -0.47650343179702759 -0.87822991609573364
vn -0.040648318827152252 -0.29370787739753723 -0.95503056049346924
vn -0.040696926414966583 -0.19739609956741333 -0.97947871685028076
vn -0.040703918784856796 -0.11639975011348724 -0.99236804246902466
vn -0.040658961981534958 -0.051989980041980743 -0.99781954288482666
vn -0.04065946489572525 -0.051816027611494064 -0.99782860279083252
vn -0.040704518556594849 -0.11619666218757629 -0.99239182472229004
vn -0.040697544813156128 -0.19719909131526947 -0.9795183539390564
vn -0.040649082511663437 -0.29346820712089539 -0.95510423183441162
vn -0.040703888982534409 -0.47617921233177185 -0.87840569019317627
vn -0.040644515305757523 -0.69313037395477295 -0.71966540813446045
vn -0.040378108620643616 -0.85958594083786011 -0.50939333438873291
vn -0.040649432688951492 -0.95449107885360718 -0.29545620083808899
vn -0.040759045630693436 -0.98379677534103394 -0.17459258437156677
vn -0.040721453726291656 -0.99647754430770874 -0.073309212923049927
vn -0.04063805565237999 -0.99914789199829102 0.0072122421115636826
vn -0.040435157716274261 -0.90282738208770752 -0.42809772491455078
vn -0.040697433054447174 -0.65228730440139771 -0.75687843561172485
vn -0.040648810565471649 -0.35601258277893066 -0.93359667062759399
vn -0.040709558874368668 -0.13826167583465576 -0.98955869674682617
vn 1 0 0
vn 1 0 0
vn 1 0 0
vn 1 0 0
vn 1 0 0
vn 1 0 0
vn 1 0 0
vn 1 0 0
vn 1 0 0
vn 1 0 0
vn 1 0 0
vn 1 0 0
vn 1 0 0
vn 1 0 0
vn 1 0 0
vn 1 0 0
vn 1 0 0
vn 1 0 0
vn 1 0 0
vn 1 0 0
vn 1 0 0
vn 1 0 0
f 35/69/69 45/79/79 44/78/78
f 46/80/80 47/81/81 42/76/76
f 45/79/79 46/80/80 43/77/77
f 41/75/75 42/76/76 47/81/81
f 48/82/82 49/83/83 40/74/74
f 37/71/71 38/72/72 50/84/84
f 50/84/84 39/73/73 49/83/83
f 44/89/89 64/106/106 36/85/85
f 64/106/106 44/89/89 62/104/104
f 51/86/86 64/106/106 63/105/105
f 44/89/89 43/90/90 61/103/103
f 64/106/106 62/104/104 63/105/105
f 44/89/89 61/103/103 62/104/104
f 43/90/90 59/101/101 60/102/102
f 59/101/101 42/91/91 58/100/100
f 42/91/91 59/101/101 43/90/90
f 42/91/91 41/92/92 58/100/100
f 55/97/97 40/93/93 39/94/94
f 53/95/95 39/94/94 38/87/87
f 40/93/93 56/98/98 57/99/99
f 40/93/93 55/97/97 56/98/98
f 39/94/94 53/95/95 54/96/96
f 38/87/87 52/88/88 53/95/95
f 54/96/96 55/97/97 39/94/94
f 65/108/108 51/107/107 63/113/113
f 61/115/115 65/108/108 62/114/114
f 63/113/113 62/114/114 65/108/108
f 80/135/135 65/108/108 61/115/115
f 59/117/117 80/135/135 60/116/116
f 60/116/116 80/135/135 61/115/115
f 81/136/136 80/135/135 59/117/117
f 79/134/134 66/109/109 65/108/108
f 77/132/132 78/133/133 65/108/108
f 79/134/134 65/108/108 78/133/133
f 75/130/130 76/131/131 80/135/135
f 77/132/132 80/135/135 76/131/131
f 74/129/129 75/130/130 81/136/136
f 80/135/135 77/132/132 65/108/108
f 82/137/137 57/119/119 56/120/120
f 81/136/136 82/137/137 73/128/128
f 82/137/137 81/136/136 57/119/119
f 82/137/137 56/120/120 55/121/121
f 83/138/138 82/137/137 55/121/121
f 53/123/123 83/138/138 54/122/122
f 54/122/122 83/138/138 55/121/121
f 52/110/110 67/111/111 53/123/123
f 73/128/128 82/137/137 72/127/127
f 82/137/137 83/138/138 71/126/126
f 71/126/126 83/138/138 70/125/125
f 70/125/125 83/138/138 69/124/124
f 67/111/111 69/124/124 83/138/138
f 67/111/111 68/112/112 69/124/124
f 67/111/111 83/138/138 53/123/123
f 84/154/154 66/139/139 79/143/143
f 45/160/160 78/144/144 77/145/145
f 46/159/159 77/145/145 76/146/146
f 84/154/154 79/143/143 78/144/144
f 35/140/140 84/154/154 45/160/160
f 45/160/160 84/154/154 78/144/144
f 47/158/158 46/159/159 75/147/147
f 77/145/145 46/159/159 45/160/160
f 76/146/146 75/147/147 46/159/159
f 72/150/150 49/156/156 73/149/149
f 50/155/155 71/151/151 70/152/152
f 50/155/155 70/152/152 69/153/153
f 49/156/156 72/150/150 71/151/151
f 48/157/157 47/158/158 74/148/148
f 50/155/155 69/153/153 37/142/142
f 71/151/151 50/155/155 49/156/156
f 37/142/142 69/153/153 68/141/141
f 35/69/69 44/78/78 36/70/70
f 46/80/80 42/76/76 43/77/77
f 45/79/79 43/77/77 44/78/78
f 41/75/75 47/81/81 48/82/82
f 48/82/82 40/74/74 41/75/75
f 38/72/72 39/73/73 50/84/84
f 39/73/73 40/74/74 49/83/83
f 43/90/90 60/102/102 61/103/103
f 41/92/92 57/99/99 58/100/100
f 40/93/93 57/99/99 41/92/92
f 81/136/136 59/117/117 58/118/118
f 75/130/130 80/135/135 81/136/136
f 81/136/136 73/128/128 74/129/129
f 81/136/136 58/118/118 57/119/119
f 82/137/137 71/126/126 72/127/127
f 47/158/158 75/147/147 74/148/148
f 49/156/156 48/157/157 73/149/149
f 48/157/157 74/148/148 73/149/149
