# Rhino

v 1.350006103515625 1.3713016510009766 -0.12818039953708649
v 1.350006103515625 0.44629669189453125 -0.12816961109638214
v 1.350006103515625 -0.47870826721191406 -0.1281588226556778
v 1.1500091552734375 1.3713016510009766 -0.12818039953708649
v 1.1500091552734375 -0.47870826721191406 -0.1281588226556778
v 1.1500091552734375 1.371302604675293 -0.2281804084777832
v 1.1500091552734375 -0.47870731353759766 -0.22815881669521332
v 1.1500091552734375 1.3713035583496094 -0.32818040251731873
v 1.1500091552734375 -0.47870731353759766 -0.32815882563591003
v 0.94870758056640625 1.3712959289550781 -0.3277648389339447
v 0.94870758056640625 -0.4787139892578125 -0.32774326205253601
v 0.94870758056640625 1.3712968826293945 -0.42776486277580261
v 0.94870758056640625 -0.47871303558349609 -0.42774325609207153
v 0.94870758056640625 1.3712968826293945 -0.52776485681533813
v 0.94870758056640625 -0.47871303558349609 -0.52774327993392944
v 0.72870635986328125 1.3712968826293945 -0.52776485681533813
v 0.72870635986328125 0.44629192352294922 -0.52775406837463379
v 0.72870635986328125 -0.47871303558349609 -0.52774327993392944
vt 0.99853515625 0
vt 0.54804784059524536 0
vt 0.097560495138168335 0
vt 0.99853515625 0.097560495138168335
vt 0.097560495138168335 0.097560495138168335
vt 0.99853515625 0.21975846588611603
vt 0.097560495138168335 0.21975846588611603
vt 0.99853515625 0.2685387134552002
vt 0.097560495138168335 0.2685387134552002
vt 0.99853515625 0.31731897592544556
vt 0.097560495138168335 0.31731897592544556
vt 0.99853515625 0.68125128746032715
vt 0.097560495138168335 0.68125128746032715
vt 0.99853515625 0.77944648265838623
vt 0.097560495138168335 0.77944648265838623
vt 0 0
vt 0 0.90097463130950928
vt 0.048047825694084167 0
vt 0.048047825694084167 0.90097463130950928
vt 0.096095651388168335 0
vt 0.096095651388168335 0.90097463130950928
vt 0.99853515625 0.43951693177223206
vt 0.097560495138168335 0.43951693177223206
vt 0.99853515625 0.54683351516723633
vt 0.54804784059524536 0.54683351516723633
vt 0.097560495138168335 0.54683351516723633
vn 0 1.1666831596812699E-05 1
vn 0 1.1666831596812699E-05 1
vn 0 1.1666831596812699E-05 1
vn 0 1.1666831596812699E-05 1
vn 0 1.1666831596812699E-05 1
vn -1 0 0
vn -1 0 0
vn -1 0 0
vn -1 0 0
vn -1 0 0
vn -1 0 0
vn 0.0020643486641347408 1.1666807040455751E-05 0.99999785423278809
vn 0.0020643486641347408 1.1666807040455751E-05 0.99999785423278809
vn 0.0020643486641347408 1.1666807040455751E-05 0.99999785423278809
vn 0.0020643486641347408 1.1666807040455751E-05 0.99999785423278809
vn -1 0 0
vn -1 0 0
vn -1 0 0
vn -1 0 0
vn -1 0 0
vn -1 0 0
vn 0 1.1666831596812699E-05 1
vn 0 1.1666831596812699E-05 1
vn 0 1.1666831596812699E-05 1
vn 0 1.1666831596812699E-05 1
vn 0 1.1666831596812699E-05 1
f 4/4/4 2/2/2 1/1/1
f 3/3/3 2/2/2 5/5/5
f 4/4/4 5/5/5 2/2/2
f 5/7/7 4/6/6 7/9/9
f 8/10/10 9/11/11 6/8/8
f 9/13/13 8/12/12 10/14/14
f 11/17/17 10/16/16 13/19/19
f 14/20/20 15/21/21 12/18/18
f 17/25/25 15/23/23 14/22/22
f 14/22/22 16/24/24 17/25/25
f 15/23/23 17/25/25 18/26/26
f 4/6/6 6/8/8 7/9/9
f 9/11/11 7/9/9 6/8/8
f 9/13/13 10/14/14 11/15/15
f 10/16/16 12/18/18 13/19/19
f 15/21/21 13/19/19 12/18/18
v -0.50000762939453125 1.3713016510009766 -0.12820199131965637
v 0.4250030517578125 1.3713016510009766 -0.12819120287895203
v 1.350006103515625 1.3713016510009766 -0.12818039953708649
v -0.50000762939453125 1.1713018417358398 -0.12820199131965637
v 1.350006103515625 1.1713018417358398 -0.12818039953708649
v -0.50000762939453125 1.1713018417358398 -0.22820198535919189
v 1.350006103515625 1.1713018417358398 -0.2281804084777832
v -0.50000762939453125 1.1713018417358398 -0.32820197939872742
v 1.350006103515625 1.1713018417358398 -0.32818040251731873
v -0.5 0.970001220703125 -0.32778644561767578
v 1.3500137329101563 0.970001220703125 -0.3277648389339447
v -0.5 0.970001220703125 -0.4277864396572113
v 1.3500137329101563 0.970001220703125 -0.42776486277580261
v -0.5 0.970001220703125 -0.52778643369674683
v 1.3500137329101563 0.970001220703125 -0.52776485681533813
v -0.5 0.75000095367431641 -0.52778643369674683
v 0.4250030517578125 0.75000095367431641 -0.52777564525604248
v 1.3500137329101563 0.75000095367431641 -0.52776485681533813
vt 0.99853515625 0
vt 0.54804784059524536 0
vt 0.097560495138168335 0
vt 0.99853515625 0.097560495138168335
vt 0.097560495138168335 0.097560495138168335
vt 0.99853515625 0.21975846588611603
vt 0.097560495138168335 0.21975846588611603
vt 0.99853515625 0.2685387134552002
vt 0.097560495138168335 0.2685387134552002
vt 0.99853515625 0.31731897592544556
vt 0.097560495138168335 0.31731897592544556
vt 0.99853515625 0.68125128746032715
vt 0.097560495138168335 0.68125128746032715
vt 0.99853515625 0.77944648265838623
vt 0.097560495138168335 0.77944648265838623
vt 0 0
vt 0 0.90097463130950928
vt 0.048047825694084167 0
vt 0.048047825694084167 0.90097463130950928
vt 0.096095651388168335 0
vt 0.096095651388168335 0.90097463130950928
vt 0.99853515625 0.43951693177223206
vt 0.097560495138168335 0.43951693177223206
vt 0.99853515625 0.54683351516723633
vt 0.54804784059524536 0.54683351516723633
vt 0.097560495138168335 0.54683351516723633
vn -1.1666831596812699E-05 0 1
vn -1.1666831596812699E-05 0 1
vn -1.1666831596812699E-05 0 1
vn -1.1666831596812699E-05 0 1
vn -1.1666831596812699E-05 0 1
vn 0 -1 0
vn 0 -1 0
vn 0 -1 0
vn 0 -1 0
vn 0 -1 0
vn 0 -1 0
vn -1.1666807040455751E-05 0.0020643486641347408 0.99999785423278809
vn -1.1666807040455751E-05 0.0020643486641347408 0.99999785423278809
vn -1.1666807040455751E-05 0.0020643486641347408 0.99999785423278809
vn -1.1666807040455751E-05 0.0020643486641347408 0.99999785423278809
vn 0 -1 0
vn 0 -1 0
vn 0 -1 0
vn 0 -1 0
vn 0 -1 0
vn 0 -1 0
vn -1.1666831596812699E-05 0 1
vn -1.1666831596812699E-05 0 1
vn -1.1666831596812699E-05 0 1
vn -1.1666831596812699E-05 0 1
vn -1.1666831596812699E-05 0 1
f 22/30/30 20/28/28 19/27/27
f 21/29/29 20/28/28 23/31/31
f 22/30/30 23/31/31 20/28/28
f 23/33/33 22/32/32 25/35/35
f 26/36/36 27/37/37 24/34/34
f 27/39/39 26/38/38 28/40/40
f 29/43/43 28/42/42 31/45/45
f 32/46/46 33/47/47 30/44/44
f 35/51/51 33/49/49 32/48/48
f 32/48/48 34/50/50 35/51/51
f 33/49/49 35/51/51 36/52/52
f 22/32/32 24/34/34 25/35/35
f 27/37/37 25/35/35 24/34/34
f 27/39/39 28/40/40 29/41/41
f 28/42/42 30/44/44 31/45/45
f 33/47/47 31/45/45 30/44/44
