# Rhino

v -0.4787139892578125 1.3212947845458984 -0.12817057967185974
v 0.01064300537109375 1.3212947845458984 -0.1281648725271225
v 0.49999237060546875 1.3212947845458984 -0.12815916538238525
v -0.4787139892578125 1.1212949752807617 -0.12817057967185974
v 0.49999237060546875 1.1212949752807617 -0.12815916538238525
v -0.4787139892578125 1.1212949752807617 -0.22817057371139526
v 0.49999237060546875 1.1212949752807617 -0.22815915942192078
v -0.4787139892578125 1.1212949752807617 -0.32817056775093079
v 0.49999237060546875 1.1212949752807617 -0.3281591534614563
v -0.4787139892578125 0.91999435424804688 -0.32775503396987915
v 0.5 0.91999435424804688 -0.32774358987808228
v -0.4787139892578125 0.91999435424804688 -0.42775502800941467
v 0.5 0.91999435424804688 -0.42774361371994019
v -0.4787139892578125 0.91999435424804688 -0.5277550220489502
v 0.5 0.91999435424804688 -0.52774357795715332
v -0.4787139892578125 0.69999408721923828 -0.5277550220489502
v 0.01064300537109375 0.69999408721923828 -0.52774930000305176
v 0.5 0.69999408721923828 -0.52774357795715332
vt 0 0
vt 0 0.47841635346412659
vt 0 0.95683270692825317
vt 0.19436377286911011 0
vt 0.19436377286911011 0.95683270692825317
vt 0.60834276676177979 0
vt 0.60834276676177979 0.95683270692825317
vt 0.70552468299865723 0
vt 0.70552468299865723 0.95683270692825317
vt 0.80270653963088989 0
vt 0.80270653963088989 0.95683270692825317
vt 0.19582861661911011 0
vt 0.19582861661911011 0.95683270692825317
vt 0.39146646857261658 0
vt 0.39146646857261658 0.95683270692825317
vt 0.80417138338088989 0
vt 0.80417138338088989 0.95683270692825317
vt 0.90135329961776733 0
vt 0.90135329961776733 0.95683270692825317
vt 0.99853515625 0
vt 0.99853515625 0.95683270692825317
vt 0.39293131232261658 0
vt 0.39293131232261658 0.95683270692825317
vt 0.60687792301177979 0
vt 0.60687792301177979 0.47841635346412659
vt 0.60687792301177979 0.95683270692825317
vn -1.1666831596812699E-05 0 1
vn -1.1666831596812699E-05 0 1
vn -1.1666831596812699E-05 0 1
vn -1.1666831596812699E-05 0 1
vn -1.1666831596812699E-05 0 1
vn 0 -1 0
vn 0 -1 0
vn 0 -1 0
vn 0 -1 0
vn 0 -1 0
vn 0 -1 0
vn -1.1666807040455751E-05 0.0020643486641347408 0.99999785423278809
vn -1.1666807040455751E-05 0.0020643486641347408 0.99999785423278809
vn -1.1666807040455751E-05 0.0020643486641347408 0.99999785423278809
vn -1.1666807040455751E-05 0.0020643486641347408 0.99999785423278809
vn 0 -1 0
vn 0 -1 0
vn 0 -1 0
vn 0 -1 0
vn 0 -1 0
vn 0 -1 0
vn -1.1666831596812699E-05 0 1
vn -1.1666831596812699E-05 0 1
vn -1.1666831596812699E-05 0 1
vn -1.1666831596812699E-05 0 1
vn -1.1666831596812699E-05 0 1
f 4/4/4 2/2/2 1/1/1
f 3/3/3 2/2/2 5/5/5
f 4/4/4 5/5/5 2/2/2
f 5/7/7 4/6/6 7/9/9
f 8/10/10 9/11/11 6/8/8
f 9/13/13 8/12/12 10/14/14
f 11/17/17 10/16/16 13/19/19
f 14/20/20 15/21/21 12/18/18
f 17/25/25 15/23/23 14/22/22
f 14/22/22 16/24/24 17/25/25
f 15/23/23 17/25/25 18/26/26
f 4/6/6 6/8/8 7/9/9
f 9/11/11 7/9/9 6/8/8
f 9/13/13 10/14/14 11/15/15
f 10/16/16 12/18/18 13/19/19
f 15/21/21 13/19/19 12/18/18
